<svg width="64" height="63" viewBox="0 0 64 63" fill="none" xmlns="http://www.w3.org/2000/svg">
<path d="M31.6636 0.154297C26.2872 6.2862 23.3216 14.1414 23.3128 22.2734C23.3324 23.7759 23.4521 25.2746 23.6731 26.7607H39.6458C39.8688 25.2746 39.9923 23.7759 40.0138 22.2734C40.0043 14.1414 37.0406 6.2862 31.6636 0.154297ZM0.000433328 12.52C-0.0255305 17.4609 1.11561 22.3383 3.3314 26.7607H22.1279C21.3402 25.5087 20.465 24.3132 19.5088 23.1826C14.5123 17.4081 7.5844 13.6211 0.000433328 12.52ZM63.3261 12.52C55.7428 13.6217 48.8149 17.4081 43.819 23.1826C42.8654 24.3132 41.9921 25.5087 41.2062 26.7607H59.9901C62.2084 22.3383 63.3502 17.4609 63.3261 12.52ZM4.66061 29.1497C5.16279 29.9702 5.70233 30.7673 6.27734 31.5386H57.0581C57.6312 30.7679 58.1688 29.9702 58.6691 29.1497H4.66061ZM8.24044 33.9276C9.01053 34.7675 9.82488 35.5647 10.6811 36.3166H52.6632C53.5206 35.5647 54.3369 34.7669 55.1082 33.9276H8.24044ZM13.7587 38.7062C17.7578 41.4519 22.3376 43.2501 27.1452 43.961C27.1396 42.1999 26.9863 40.442 26.6855 38.7062H13.7587ZM27.6677 38.7062C28.7993 40.7333 30.1381 42.6391 31.6636 44.3927C33.1878 42.6385 34.5266 40.7327 35.6576 38.7062H27.6677ZM36.6277 38.7062C36.3314 40.4427 36.1826 42.1999 36.1813 43.961C40.989 43.2494 45.5681 41.4513 49.5672 38.7062H36.6277Z" fill="white"/>
<path d="M21.1713 47.3938V51.8767C20.2689 51.2506 19.1784 50.897 18.0037 50.897C14.94 50.897 12.4639 53.3558 12.4639 56.3998C12.4639 59.4437 14.94 61.9038 18.0037 61.9038C19.1784 61.9038 20.2689 61.5496 21.1713 60.9241V61.6729H23.8366V47.3926H21.1713V47.3938ZM25.138 47.3938V50.042H27.8022V47.3938H25.138ZM37.6019 47.3938V51.8767C36.6995 51.2506 35.6077 50.897 34.433 50.897C31.3693 50.897 28.8945 53.3558 28.8945 56.3998C28.8945 59.4437 31.3693 61.9038 34.433 61.9038C35.6077 61.9038 36.6995 61.5496 37.6019 60.9241V61.6729H40.2661V47.3926H37.6019V47.3938ZM5.54042 50.8977C2.47606 50.897 0 53.3565 0 56.3998C0 59.4431 2.47606 61.9038 5.53979 61.9038C6.71449 61.9038 7.80498 61.5496 8.70738 60.9241V61.6729H11.3727V51.0198H8.70738V51.8754C7.80498 51.2494 6.71449 50.8958 5.53979 50.8958L5.54042 50.8977ZM46.8969 50.8977C43.8332 50.8977 41.3584 53.3565 41.3584 56.4004C41.3584 59.4443 43.8332 61.9044 46.8969 61.9044C48.0716 61.9044 49.1634 61.5502 50.0658 60.9248V61.6735H52.73V51.0204H50.0658V51.876C49.1634 51.25 48.0716 50.8964 46.8969 50.8964V50.8977ZM58.3957 50.8977C55.605 50.8977 53.947 52.419 53.947 54.4002C53.947 56.8188 55.9209 57.2139 57.6206 57.5266L59.0258 57.7777C60.0327 57.9652 60.4741 58.2565 60.4741 58.8404C60.4741 59.3613 59.97 59.8829 58.7738 59.8829C57.0323 59.8829 56.4655 58.9876 56.4446 58.2149H53.7172C53.797 60.3623 55.648 61.8843 58.7326 61.8843C61.2505 61.8843 63.3276 60.8002 63.3276 58.4031C63.3276 56.7351 62.3834 55.7555 60.2005 55.3383L58.5009 55.0055C57.4098 54.7973 56.6542 54.5878 56.6542 53.941C56.6542 53.2325 57.3888 52.9198 58.3115 52.9198C59.6547 52.9198 60.2005 53.588 60.2423 54.3795H62.9287C62.7817 52.2944 61.1023 50.8977 58.3957 50.8977ZM25.138 51.021V61.6741H27.8022V51.021H25.138ZM5.66517 53.3558C7.36547 53.3558 8.72887 54.7111 8.72887 56.3991C8.72887 58.0872 7.36547 59.4431 5.66517 59.4431C3.96486 59.4431 2.60271 58.0878 2.60271 56.3991C2.60271 54.7105 3.9655 53.3558 5.66517 53.3558ZM18.1303 53.3558C19.8294 53.3558 21.1928 54.7111 21.1928 56.3991C21.1928 58.0872 19.8294 59.4431 18.1303 59.4431C16.4313 59.4431 15.0666 58.0878 15.0666 56.3991C15.0666 54.7105 16.43 53.3558 18.1303 53.3558ZM34.5591 53.3558C36.2588 53.3558 37.6228 54.7111 37.6228 56.3991C37.6228 58.0872 36.2588 59.4431 34.5591 59.4431C32.8594 59.4431 31.4954 58.0878 31.4954 56.3991C31.4954 54.7105 32.8594 53.3558 34.5591 53.3558ZM47.023 53.3558C48.722 53.3558 50.0867 54.7111 50.0867 56.3991C50.0867 58.0872 48.722 59.4431 47.023 59.4431C45.3239 59.4431 43.9593 58.0878 43.9593 56.3991C43.9593 54.7105 45.3233 53.3558 47.023 53.3558Z" fill="white"/>
</svg>
