<svg width="134" height="36" viewBox="0 0 134 36" fill="none" xmlns="http://www.w3.org/2000/svg">
<g clip-path="url(#clip0_225_16)">
<path d="M18.3164 33.6795C16.3125 34.0314 14.2735 34.1369 12.1641 34.4179L5.73038 15.5743V35.2266C3.72655 35.4375 1.89846 35.7188 0 36V0H5.34389L12.6562 20.4261V0H18.3164V33.6795ZM29.3906 13.1836C31.5705 13.1836 34.9103 13.0781 36.9141 13.0781V18.703C34.4179 18.703 31.5001 18.703 29.3906 18.8085V27.1758C32.6954 26.9649 36.0001 26.6834 39.3398 26.5779V31.9917L23.7655 33.2224V0H39.3398V5.62501H29.3906V13.1836ZM60.2577 5.62514H54.4219V31.5001C52.5234 31.5001 50.6249 31.5001 48.7971 31.5702V5.62514H42.9612V0H60.258L60.2577 5.62514ZM69.3983 12.797H77.0976V18.4219H69.3983V31.1837H63.8784V0H79.5937V5.62501H69.3983V12.797ZM88.7343 26.2617C91.9336 26.3318 95.1678 26.5783 98.2968 26.7538V32.3086C93.2696 31.992 88.2422 31.676 83.1094 31.5702V0H88.7343V26.2617ZM103.043 32.6953C104.836 32.8009 106.734 32.9064 108.562 33.1171V0H103.043V32.6953ZM133.207 0L126.07 17.1211L133.207 36C131.098 35.7188 128.988 35.332 126.879 34.9804L122.836 24.5744L118.723 34.1369C116.684 33.785 114.715 33.6795 112.676 33.3983L119.918 16.91L113.379 0H119.426L123.117 9.45705L127.055 0L133.207 0Z" fill="white"/>
</g>
<defs>
<clipPath id="clip0_225_16">
<rect width="133.207" height="36" fill="white"/>
</clipPath>
</defs>
</svg>
