<svg width="174" height="64" viewBox="0 0 174 64" fill="none" xmlns="http://www.w3.org/2000/svg">
<g clip-path="url(#clip0_225_41)">
<path d="M161.529 57.3252C161.529 60.5853 163.443 62.2571 165.772 62.2571C168.101 62.2571 170.008 60.5853 170.008 57.3252C170.008 54.1498 168.101 52.478 165.772 52.478C163.442 52.478 161.529 54.1498 161.529 57.3252ZM171.76 62.0065H173.756V63.6783H170.008V61.8395C169.265 63.009 167.602 63.9289 165.606 63.9289C162.028 63.9289 159.699 61.0866 159.699 57.3252C159.699 53.565 162.028 50.7227 165.606 50.7227C167.513 50.7227 169.099 51.5591 169.93 52.8121V47.6308L167.934 47.6308V45.959H171.76V62.0065Z" fill="white"/>
<path d="M153.873 62.0063H155.87V63.6781L149.965 63.6781V62.0063H151.961V52.6448H149.965V51.0565H153.707V52.8118C154.456 51.4753 156.286 50.2211 158.781 51.0565V52.8954C155.787 52.06 153.873 53.6483 153.873 56.5731V62.0063Z" fill="white"/>
<path d="M100.31 18.8747C96.9827 20.1278 94.7362 22.3019 94.7362 22.3019C94.6586 21.2148 94.4036 20.1278 94.071 19.2924C94.071 19.2924 95.1576 17.2029 98.3143 15.0298C101.724 12.6898 105.633 12.0215 105.633 12.0215C106.465 13.7756 107.047 15.6147 107.297 17.537C107.297 17.537 104.468 17.2865 100.31 18.8747Z" fill="#DADADA"/>
<path d="M97.8996 11.949C94.6607 15.1244 93.4965 18.3009 93.4965 18.3009C92.9088 17.2974 92.1659 16.4621 91.168 15.7927C91.168 15.7927 92.4099 12.0325 94.3281 9.27371C96.2352 6.43242 99.3977 4.17578 99.3977 4.17578C100.978 5.34528 102.308 6.76651 103.473 8.27127C103.473 8.27127 100.313 9.69134 97.8997 11.949H97.8996Z" fill="#DADADA"/>
<path d="M92.2484 8.01054C90.7515 11.7708 90.4188 15.3649 90.4188 15.3649C89.4209 14.8637 88.179 14.4461 87.0924 14.3625C87.0924 14.3625 87.0148 10.7683 87.8464 7.0071C88.7556 2.66104 89.7535 0.0703125 89.7535 0.0703125C91.6718 0.237375 93.5013 0.822117 95.2422 1.57504C95.2422 1.57504 93.2462 5.41879 92.2484 8.01054Z" fill="#DADADA"/>
<path d="M97.5596 31.5902C93.489 29.6678 89.4086 30.0854 89.4086 30.0854C90.9056 29.5007 92.1584 28.5818 93.0677 27.4112C93.0677 27.4112 96.6491 26.9935 99.3901 27.4947C103.631 28.4136 105.461 29.8347 105.461 29.8347C104.629 31.59 103.548 33.2619 102.218 34.6831C102.218 34.6831 100.554 33.0114 97.5596 31.5902Z" fill="white"/>
<path d="M100.651 25.4791C96.574 25.312 93.7466 26.3991 93.7466 26.3991C94.2456 25.4791 94.5782 24.3932 94.6669 23.306C94.6669 23.306 97.989 21.4672 100.984 21.0495C105.142 20.4648 107.555 21.3001 107.555 21.3001C107.472 23.2225 107.222 25.1449 106.64 26.9838C106.64 26.9838 103.978 25.6461 100.651 25.4791Z" fill="white"/>
<path d="M73.0336 18.8747C76.3611 20.1278 78.6075 22.3019 78.6075 22.3019C78.6851 21.2148 78.9402 20.1278 79.2728 19.2924C79.2728 19.2924 78.1862 17.2029 75.0294 15.0298C71.6198 12.6898 67.7112 12.0215 67.7112 12.0215C66.8785 13.7756 66.2963 15.6147 66.0469 17.537C66.0469 17.537 68.8754 17.2865 73.0336 18.8747Z" fill="#DADADA"/>
<path d="M75.4442 11.949C78.6831 15.1244 79.8473 18.3009 79.8473 18.3009C80.435 17.2974 81.1779 16.4621 82.1757 15.7927C82.1757 15.7927 80.9339 12.0325 79.0156 9.27371C77.1085 6.43242 73.946 4.17578 73.946 4.17578C72.366 5.34528 71.0355 6.76651 69.8711 8.27127C69.8711 8.27127 73.0312 9.69134 75.444 11.949H75.4442Z" fill="#DADADA"/>
<path d="M81.0954 8.01054C82.5923 11.7708 82.9249 15.3649 82.9249 15.3649C83.9228 14.8637 85.1647 14.4461 86.2514 14.3625C86.2514 14.3625 86.329 10.7683 85.4974 7.0071C84.5882 2.66104 83.5903 0.0703125 83.5903 0.0703125C81.672 0.237375 79.8425 0.822117 78.1016 1.57504C78.1016 1.57504 80.0975 5.41879 81.0954 8.01054Z" fill="#DADADA"/>
<path d="M75.7842 31.5902C79.8547 29.6678 83.9351 30.0854 83.9351 30.0854C82.4382 29.5007 81.1853 28.5818 80.2761 27.4112C80.2761 27.4112 76.6946 26.9935 73.9536 27.4947C69.7125 28.4136 67.8828 29.8347 67.8828 29.8347C68.7144 31.59 69.7955 33.2619 71.1261 34.6831C71.1261 34.6831 72.7893 33.0114 75.7842 31.5902Z" fill="white"/>
<path d="M72.6926 25.4791C76.7698 25.312 79.5972 26.3991 79.5972 26.3991C79.0982 25.4791 78.7655 24.3932 78.6768 23.306C78.6768 23.306 75.3548 21.4672 72.3598 21.0495C68.2019 20.4648 65.7891 21.3001 65.7891 21.3001C65.8722 23.2225 66.1217 25.1449 66.7038 26.9838C66.7038 26.9838 69.3662 25.6461 72.6926 25.4791Z" fill="white"/>
<path d="M86.6642 34.7652C92.5742 34.7652 95.1577 39.863 95.1577 39.863C96.9872 39.0276 98.6505 38.0241 100.225 36.6864C100.225 36.6864 95.2352 30.418 86.664 30.418C78.1815 30.418 73.1953 36.6864 73.1953 36.6864C74.6922 38.0241 76.4398 39.0276 78.2703 39.863C78.2703 39.863 80.8427 34.765 86.664 34.7652H86.6642Z" fill="white"/>
<path d="M4.15917 47.8022V55.3248H7.23609C10.5636 55.3249 12.0605 53.9872 12.0605 51.5636C12.0605 49.1399 10.6468 47.8024 7.23609 47.8024L4.15917 47.8022ZM4.15917 61.9274H6.32142V63.6827H1.69761e-05V61.9274H2.16227L2.16225 47.7187H0V46.0469L7.23607 46.0469C11.2289 46.0469 13.9732 47.8022 13.9732 51.5635C13.9732 55.3247 11.2289 57.079 7.23607 57.079H4.15915L4.15917 61.9274Z" fill="white"/>
<path d="M25.6167 56.657C25.6167 54.317 23.8703 52.478 21.4587 52.478C19.0471 52.478 17.2995 54.3168 17.2995 56.657H25.6167ZM27.1147 60.0841C26.5325 62.2571 24.5355 63.9289 21.4586 63.9289C17.7152 63.9289 15.3867 61.5887 15.3867 57.3252C15.3867 53.3144 17.7983 50.7227 21.4586 50.7227C25.4503 50.7227 27.9462 53.8157 27.4472 58.3288L17.2994 58.3288C17.4658 60.2512 18.7974 62.2571 21.4586 62.2572C23.2049 62.2572 24.4523 61.5043 25.1176 60.0843L27.1147 60.0841Z" fill="white"/>
<path d="M33.9359 62.0063H35.9328V63.6781L30.0273 63.6781V62.0063H32.0232V52.6448H30.0273V51.0565H33.7696V52.8118C34.518 51.4753 36.3487 50.2211 38.8436 51.0565V52.8954C35.8498 52.06 33.9359 53.6483 33.9359 56.5731V62.0063Z" fill="white"/>
<path d="M53.4755 62.0069H55.4714L55.4714 63.6788H49.649V62.0069H51.6459L51.6458 56.6574C51.6458 53.7326 49.8983 52.4784 47.9024 52.4784C45.9897 52.4784 44.3266 53.8161 44.3266 56.8245V62.0069H46.3225V63.6788H40.5V62.0069H42.4959V52.6455H40.5V51.0572L44.2434 51.0572V52.8125C44.9087 51.8101 46.3225 50.8066 48.3184 50.8066C51.0637 50.8066 53.4755 52.3949 53.4755 56.6575V62.0069Z" fill="white"/>
<path d="M63.3023 62.2571C65.7971 62.2571 67.5447 60.5017 67.5447 57.3252C67.5447 54.1498 65.7971 52.478 63.3023 52.478C60.8907 52.478 59.0612 54.1498 59.0612 57.3252C59.0612 60.5017 60.8907 62.2571 63.3025 62.2571H63.3023ZM63.3023 50.7227C67.2119 50.7227 69.4574 53.5651 69.4574 57.3252C69.4574 61.1699 67.2119 63.9289 63.3023 63.9289C59.4769 63.9289 57.2305 61.1701 57.2305 57.3252C57.2305 53.565 59.4769 50.7227 63.3023 50.7227Z" fill="white"/>
<path d="M73.5248 57.3252C73.5248 60.5853 75.4387 62.2571 77.7682 62.2571C80.0966 62.2571 82.0039 60.5853 82.0039 57.3252C82.0039 54.1498 80.0968 52.478 77.7682 52.478C75.4386 52.478 73.5248 54.1498 73.5248 57.3252ZM83.7558 62.0065H85.7517V63.6783H82.0039V61.8395C81.261 63.009 79.5977 63.9289 77.602 63.9289C74.0239 63.9289 71.6953 61.0866 71.6953 57.3252C71.6953 53.565 74.0238 50.7227 77.602 50.7227C79.5091 50.7227 81.0948 51.5591 81.9263 52.8121V47.6308L79.9304 47.6308V45.959H83.7558V62.0065Z" fill="white"/>
<path d="M98.3105 47.8037V54.3227H102.38C105.041 54.3227 106.128 53.0686 106.128 51.0626C106.128 49.1412 105.041 47.8037 102.38 47.8037H98.3105ZM94.1523 45.9648H102.38C105.706 45.9648 108.124 47.8037 108.124 51.0626C108.124 53.9051 106.372 55.5769 103.799 56.078L106.627 61.9289H108.955V63.6842H105.296L101.637 56.1616H98.3106V61.9289H100.218V63.6842L94.1525 63.6842V61.9288H96.3148L96.3147 47.7202H94.1525L94.1523 45.9648Z" fill="white"/>
<path d="M113.029 48.3807H115.113V45.957H113.029V48.3807ZM115.113 62.0046H117.109V63.6764H111.199V62.0046H113.195V52.6431H111.199V51.0548H115.113V62.0046Z" fill="white"/>
<path d="M131.004 59.0805C130.339 61.923 128.42 63.9289 124.928 63.9289C121.102 63.9289 118.852 61.1701 118.852 57.3252C118.852 53.565 121.102 50.7227 124.928 50.7227C126.757 50.7227 128.421 51.6427 129.175 52.8121V51.0567H130.915V55.6546H128.92C128.343 53.8992 127.168 52.478 124.928 52.478C122.511 52.478 120.681 54.1498 120.681 57.3252C120.681 60.5018 122.511 62.2571 124.928 62.2571C127.09 62.2571 128.509 60.9194 129.086 59.0805H131.004Z" fill="white"/>
<path d="M135.164 57.3252C135.164 60.5853 136.994 62.2571 139.322 62.2571C141.651 62.2571 143.558 60.5853 143.558 57.3252C143.558 54.1498 141.651 52.478 139.322 52.478C136.994 52.478 135.164 54.1498 135.164 57.3252ZM143.48 51.0568L147.306 51.0568V52.645H145.31V62.0065H147.306V63.6783H143.48V61.8395C142.726 63.0925 141.063 63.9289 139.156 63.9289C135.575 63.9289 133.246 61.0866 133.246 57.3252C133.246 53.565 135.575 50.7227 139.156 50.7227C141.063 50.7227 142.726 51.5591 143.48 52.8121L143.48 51.0568Z" fill="white"/>
</g>
<defs>
<clipPath id="clip0_225_41">
<rect width="173.836" height="64" fill="white"/>
</clipPath>
</defs>
</svg>
