<svg width="64" height="64" viewBox="0 0 64 64" fill="none" xmlns="http://www.w3.org/2000/svg">
<g clip-path="url(#clip0_225_18)">
<path d="M0 0H63.8411V34.4633L60.6811 39.4008L63.8411 43.7951V63.8411H0V31.3527L1.97498 29.0815L0 26.909V0Z" fill="white"/>
<path d="M12.3945 44.4859V34.4629H23.007L24.1456 35.9472L25.3219 34.4629H63.8426V43.7947C63.8426 43.7947 62.8352 44.4759 61.6702 44.4859H40.3404L39.0567 42.9059V44.4859H34.85V41.7888C34.85 41.7888 34.2754 42.1653 33.033 42.1653H31.6012V44.4859H25.2319L24.0949 42.9697L22.9405 44.4859H12.3945Z" fill="black"/>
<path d="M0 26.9094L2.39316 21.3301H6.53188L7.89003 24.4554V21.3301H13.0348L13.8433 23.5889L14.6272 21.3301H37.722V22.4657C37.722 22.4657 38.9361 21.3301 40.9314 21.3301L48.4248 21.3563L49.7595 24.4407V21.3301H54.065L55.2499 23.1018V21.3301H59.5949V31.3531H55.2499L54.1143 29.5756V31.3531H47.7887L47.1525 29.7731H45.452L44.8262 31.3531H40.5364C38.8195 31.3531 37.722 30.2406 37.722 30.2406V31.3531H31.254L29.9703 29.7731V31.3531H5.91875L5.28306 29.7731H3.58793L2.95673 31.3531H0V26.9094Z" fill="black"/>
<path d="M3.23957 22.5645L0.0117188 30.0694H2.11322L2.70879 28.5665H6.17117L6.76367 30.0694H8.91145L5.68669 22.5645H3.23957ZM4.43381 24.3111L5.48919 26.9372H3.37535L4.43381 24.3111Z" fill="white"/>
<path d="M9.13281 30.0694V22.5645L12.1192 22.5755L13.8561 27.4142L15.5515 22.5645H18.5139V30.0694H16.6377V24.5394L14.6489 30.0694H13.0034L11.009 24.5394V30.0694H9.13281Z" fill="white"/>
<path d="M19.8008 30.0694V22.5645H25.9232V24.2432H21.6968V25.5269H25.8245V27.1069H21.6968V28.44H25.9232V30.0694H19.8008Z" fill="white"/>
<path d="M27.0078 22.5645V30.0694H28.884V27.4031H29.674L31.9237 30.0694H34.2165L31.7478 27.3044C32.7609 27.2189 33.806 26.3493 33.806 24.9992C33.806 23.4199 32.5665 22.5645 31.183 22.5645H27.0078ZM28.884 24.2432H31.0287C31.5432 24.2432 31.9175 24.6456 31.9175 25.0332C31.9175 25.5318 31.4326 25.8232 31.0565 25.8232H28.884V24.2432Z" fill="white"/>
<path d="M36.486 30.0694H34.5703V22.5645H36.486V30.0694Z" fill="white"/>
<path d="M41.0314 30.0694H40.6179C38.6171 30.0694 37.4023 28.4931 37.4023 26.3478C37.4023 24.1494 38.6035 22.5645 41.1301 22.5645H43.2038V24.3419H41.0543C40.0286 24.3419 39.3033 25.1424 39.3033 26.3663C39.3033 27.8197 40.1327 28.4301 41.3276 28.4301H41.8214L41.0314 30.0694Z" fill="white"/>
<path d="M45.1146 22.5645L41.8867 30.0694H43.9882L44.5838 28.5665H48.0462L48.6387 30.0694H50.7864L47.5617 22.5645H45.1146ZM46.3088 24.3111L47.3642 26.9372H45.2503L46.3088 24.3111Z" fill="white"/>
<path d="M51.0039 30.0694V22.5645H53.3893L56.4351 27.2797V22.5645H58.3113V30.0694H56.0031L52.8801 25.2307V30.0694H51.0039Z" fill="white"/>
<path d="M13.6758 43.2022V35.6973H19.7982V37.376H15.5718V38.6597H19.6995V40.2397H15.5718V41.5728H19.7982V43.2022H13.6758Z" fill="white"/>
<path d="M43.6758 43.2022V35.6973H49.7982V37.376H45.5718V38.6597H49.6797V40.2397H45.5718V41.5728H49.7982V43.2022H43.6758Z" fill="white"/>
<path d="M20.0358 43.2022L23.0168 39.496L19.9648 35.6973H22.3286L24.1462 38.0456L25.97 35.6973H28.2412L25.2294 39.4497L28.2159 43.2022H25.8524L24.0876 40.8908L22.3657 43.2022H20.0358Z" fill="white"/>
<path d="M28.4414 35.6992V43.2041H30.367V40.8342H32.342C34.0131 40.8342 35.2798 39.9476 35.2798 38.2235C35.2798 36.7952 34.2863 35.6992 32.5858 35.6992H28.4414ZM30.367 37.3965H32.4469C32.9868 37.3965 33.3727 37.7274 33.3727 38.2605C33.3727 38.7614 32.9887 39.1246 32.4407 39.1246H30.367V37.3965Z" fill="white"/>
<path d="M36.0938 35.6973V43.2022H37.97V40.536H38.76L41.0096 43.2022H43.3024L40.8337 40.4372C41.8469 40.3517 42.892 39.4821 42.892 38.132C42.892 36.5527 41.6524 35.6973 40.269 35.6973H36.0938ZM37.97 37.376H40.1147C40.6292 37.376 41.0034 37.7784 41.0034 38.166C41.0034 38.6646 40.5185 38.956 40.1424 38.956H37.97V37.376Z" fill="white"/>
<path d="M50.6679 43.2022V41.5728H54.4228C54.9784 41.5728 55.219 41.2726 55.219 40.9433C55.219 40.6278 54.9792 40.3088 54.4228 40.3088H52.726C51.2511 40.3088 50.4297 39.4102 50.4297 38.0611C50.4297 36.8577 51.1819 35.6973 53.3736 35.6973H57.0273L56.2374 37.3859H53.0774C52.4733 37.3859 52.2874 37.7028 52.2874 38.0055C52.2874 38.3166 52.5172 38.6597 52.9786 38.6597H54.7561C56.4003 38.6597 57.1137 39.5924 57.1137 40.8137C57.1137 42.1267 56.3187 43.2022 54.6666 43.2022H50.6679Z" fill="white"/>
<path d="M57.5546 43.2022V41.5728H61.3096C61.8652 41.5728 62.1057 41.2726 62.1057 40.9433C62.1057 40.6278 61.8659 40.3088 61.3096 40.3088H59.6128C58.1378 40.3088 57.3164 39.4102 57.3164 38.0611C57.3164 36.8577 58.0686 35.6973 60.2604 35.6973H63.9141L63.1241 37.3859H59.9641C59.3601 37.3859 59.1741 37.7028 59.1741 38.0055C59.1741 38.3166 59.4039 38.6597 59.8654 38.6597H61.6428C63.287 38.6597 64.0005 39.5924 64.0005 40.8137C64.0005 42.1267 63.2054 43.2022 61.5533 43.2022H57.5546Z" fill="white"/>
</g>
<defs>
<clipPath id="clip0_225_18">
<rect width="64" height="63.8411" fill="white"/>
</clipPath>
</defs>
</svg>
