<svg width="70" height="70" viewBox="0 0 70 70" fill="none" xmlns="http://www.w3.org/2000/svg">
<g clip-path="url(#clip0_2_142)">
<path d="M34.9999 70C44.3487 70 53.1378 66.3592 59.7486 59.7486C66.3592 53.1379 70 44.3487 70 34.9999C70 25.6513 66.3592 16.8621 59.7486 10.2514C53.1379 3.64068 44.3487 0 34.9999 0C15.7008 0 0 15.7008 0 34.9999C0 44.3487 3.64068 53.1379 10.2514 59.7486C16.8621 66.3592 25.6513 70 34.9999 70Z" fill="black"/>
<path d="M1.21094 34.9999C1.21094 25.9748 4.72566 17.4896 11.1076 11.1076C17.4896 4.72552 25.9746 1.21094 34.9999 1.21094C44.0251 1.21094 52.5103 4.72552 58.8921 11.1076C65.2741 17.4896 68.7888 25.9746 68.7888 34.9999C68.7888 53.6313 53.6312 68.789 34.9999 68.789C25.9746 68.789 17.4896 65.2742 11.1076 58.8923C4.72566 52.5102 1.21094 44.0251 1.21094 34.9999Z" fill="white"/>
<path d="M34.9999 2.60352C17.1081 2.60352 2.60352 17.1081 2.60352 34.9999C2.60352 52.8917 17.1081 67.3964 34.9999 67.3964C52.8917 67.3964 67.3963 52.8917 67.3963 34.9999C67.3963 17.1081 52.8917 2.60352 34.9999 2.60352Z" fill="black"/>
<path d="M34.9999 55.6937C23.5712 55.6937 14.3062 46.4287 14.3062 34.9999C14.3062 23.5712 23.5712 14.3062 34.9999 14.3062C46.4286 14.3062 55.6937 23.5712 55.6937 34.9999C55.6937 46.4287 46.4287 55.6937 34.9999 55.6937Z" fill="white"/>
<path d="M15.6377 34.9999H35.0001V15.6375C24.3067 15.6375 15.6377 24.3066 15.6377 34.9999ZM35.0001 34.9999V54.3624C45.6936 54.3624 54.3626 45.6935 54.3626 34.9999H35.0001Z" fill="black"/>
<path d="M19.7923 15.2557C19.1064 14.589 18.046 14.3881 17.0506 15.0052C17.2407 14.5125 17.1631 14.0096 17.0621 13.7322C16.6333 12.9502 16.4836 12.8523 16.1302 12.5557C14.986 11.5957 13.7819 12.4153 12.9207 13.4416L8.75977 18.4003L15.3007 23.8889L19.6887 18.6597C20.6913 17.4648 20.8463 16.2802 19.7923 15.2557ZM36.0836 12.8995L38.3299 6.94552V12.8995H40.0371V4.37231H37.4721L35.139 10.4777H35.1632L32.8301 4.37231H30.2652V12.8995H31.9722V6.94552L34.2187 12.8995H36.0836ZM59.0367 16.4471L55.8225 20.9977L60.8055 18.632L62.1249 20.2613L54.2818 24.0632L52.7334 22.1356L55.8183 17.6249L55.8 17.6023L50.7464 19.6819L49.1829 17.7666L54.5325 10.8854L55.8519 12.5147L52.5018 16.897L57.6213 14.6991L59.0367 16.4471Z" fill="white"/>
<path d="M13.8303 14.6689C14.1198 14.3238 14.7742 14.338 15.195 14.691C15.6577 15.0792 15.6588 15.6297 15.3481 15.9998L12.8771 18.9446L11.3311 17.6473L13.8303 14.6689ZM18.2267 18.1428L15.6215 21.2475L13.9878 19.8767L16.6141 16.7467C16.9107 16.3933 17.5719 16.2904 18.0179 16.6647C18.5227 17.0881 18.5727 17.7305 18.2267 18.1428Z" fill="black"/>
</g>
<defs>
<clipPath id="clip0_2_142">
<rect width="70" height="70" fill="white"/>
</clipPath>
</defs>
</svg>
