<svg width="512" height="517" viewBox="0 0 512 517" fill="none" xmlns="http://www.w3.org/2000/svg">
<path d="M260.508 3.15621L260.509 8.34552L260.509 9.84518H262.009C262.189 9.84518 262.509 9.83698 262.906 9.82677C264.059 9.7972 265.865 9.75086 266.809 9.83873C268.29 9.97661 271.177 10.1499 275.654 10.3476C280.084 10.5431 287.997 11.2498 293.208 11.9172C298.424 12.5852 306.321 13.8647 310.732 14.7557L310.732 14.7557C315.142 15.6465 322.774 17.5072 327.665 18.8859L327.665 18.886C332.55 20.2624 340.375 22.8063 345.024 24.5286C349.658 26.2459 358.055 29.8678 363.651 32.567L363.651 32.567C369.263 35.2727 376.609 39.1015 379.959 41.0615C383.334 43.036 388.646 46.349 391.746 48.4118C394.838 50.4697 400.722 54.6924 404.803 57.7849C408.865 60.8625 416.008 66.7663 420.654 70.8882L421.649 69.7661L420.654 70.8882C425.315 75.0229 427.955 77.5787 429.047 78.7379L430.037 79.7882L431.124 78.8405L434.938 75.5187L436.193 74.4252L434.975 73.2903C434.636 72.9743 434.486 72.8239 434.221 72.5582C434.132 72.4693 434.031 72.3676 433.905 72.2425C433.409 71.7489 432.573 70.9292 430.725 69.1677L429.69 70.2534L430.725 69.1676C426.603 65.2386 419.813 59.2848 415.611 55.9158C411.427 52.5612 405.154 47.79 401.653 45.3009C398.148 42.8079 391.997 38.7858 387.962 36.3462C383.915 33.9002 376.635 29.9205 371.757 27.4868L371.757 27.4867C366.894 25.0611 360.185 21.9209 356.831 20.5015L356.831 20.5014C353.474 19.0816 346.905 16.613 342.213 15.0056L341.727 16.4247L342.213 15.0056C337.508 13.3943 329.958 11.1122 325.406 9.92665C320.86 8.74284 313.441 7.07135 308.894 6.20683L308.894 6.20679C304.347 5.34294 296.927 4.1924 292.379 3.64618C287.821 3.09873 278.694 2.36989 272.077 2.0238L260.508 3.15621Z" fill="white" stroke="white" stroke-width="3"/>
</svg>
