<svg width="512" height="518" viewBox="0 0 512 518" fill="none" xmlns="http://www.w3.org/2000/svg">
<circle cx="256" cy="262" r="255" stroke="white" stroke-opacity="0.5" stroke-width="2"/>
<path d="M431.07 69.8056L431.07 69.8058C432.92 71.5687 433.758 72.391 434.258 72.8881C434.386 73.0157 434.489 73.1186 434.578 73.2077C434.84 73.4711 434.984 73.6149 435.316 73.9245L436.94 75.4378L435.266 76.8957L431.453 80.2176L430.002 81.4811L428.683 80.0808C427.607 78.9382 424.98 76.3944 420.322 72.2623L420.322 72.2622C415.684 68.1472 408.551 62.2518 404.501 59.1834C400.425 56.095 394.55 51.8787 391.469 49.8281C388.377 47.7708 383.073 44.4629 379.707 42.4931C376.373 40.5425 369.04 36.7202 363.434 34.0174L363.434 34.0173C357.848 31.3234 349.466 27.7081 344.85 25.9974C340.214 24.2798 332.402 21.7401 327.529 20.3672L327.529 20.3672C322.649 18.9915 315.029 17.1338 310.633 16.2458L310.633 16.2458C306.236 15.3576 298.35 14.0799 293.145 13.4132C287.945 12.7472 280.046 12.0419 275.632 11.8471C271.156 11.6494 268.257 11.4757 266.762 11.3366C265.852 11.2518 264.123 11.2961 262.97 11.3257C262.552 11.3364 262.21 11.3452 262.009 11.3452H260.01L260.009 9.34563L260.008 4.18017C260.006 4.1613 260.005 4.14222 260.004 4.12296C259.966 3.50466 260.215 3.02991 260.44 2.7499C260.783 2.32247 261.206 2.16302 261.27 2.13889C261.273 2.13797 261.275 2.13725 261.276 2.13672C261.483 2.05644 261.661 2.02968 261.686 2.02595C261.687 2.02579 261.688 2.02567 261.688 2.02559C261.778 2.01136 261.851 2.00653 261.865 2.00562C261.865 2.00558 261.866 2.00555 261.866 2.00553C261.908 2.00266 261.943 2.00173 261.952 2.00149L261.953 2.00147C261.978 2.00077 262.003 2.00052 262.021 2.00038C262.095 1.99978 262.257 1.99977 262.617 2.00133C262.851 2.00235 263.213 2.0191 263.778 2.05114L264.008 2.05768L264.008 2.06437C264.31 2.08197 264.664 2.10322 265.077 2.12806C266.54 2.21596 268.751 2.34885 272.103 2.52447L431.07 69.8056ZM431.07 69.8056C426.938 65.8674 420.137 59.9042 415.923 56.5257M431.07 69.8056L415.923 56.5257M262.008 4.0007L262.065 2.00247L262.065 2.00248C262.065 2.00248 262.065 2.00247 262.008 4.00167M262.008 4.0007L262.008 4.00167M262.008 4.0007C261.99 4.00116 262.008 4.00167 262.008 4.00167M262.008 4.0007L262.008 4.00167M371.98 28.0393L371.98 28.0394C376.868 30.4782 384.161 34.4643 388.22 36.9183C392.265 39.3637 398.426 43.3926 401.943 45.8934L371.98 28.0393ZM371.98 28.0393C367.112 25.6111 360.393 22.4659 357.026 21.0411L357.026 21.0409M371.98 28.0393L357.026 21.0409M357.026 21.0409C353.655 19.6152 347.075 17.1425 342.375 15.5326L342.375 15.5326M357.026 21.0409L342.375 15.5326M342.375 15.5326C337.659 13.9174 330.097 11.6317 325.532 10.4428C320.975 9.25621 313.546 7.58227 308.987 6.71563L308.987 6.71557M342.375 15.5326L308.987 6.71557M308.987 6.71557C304.429 5.84963 296.998 4.69734 292.438 4.14975M308.987 6.71557L292.438 4.14975M415.923 56.5257C411.734 53.1665 405.453 48.3894 401.943 45.8936L415.923 56.5257ZM292.438 4.14975C287.865 3.60051 278.727 2.87093 272.103 2.52448L292.438 4.14975Z" fill="white" stroke="white" stroke-width="4"/>
</svg>
