<svg width="520" height="250" viewBox="0 0 520 250" fill="none" xmlns="http://www.w3.org/2000/svg">
<path d="M34.54 73.9C29.8 73.9 25.42 73.12 21.4 71.56C17.44 69.94 13.99 67.69 11.05 64.81C8.11 61.87 5.83 58.42 4.21 54.46C2.65 50.44 1.87 46.03 1.87 41.23C1.87 36.55 2.71 32.23 4.39 28.27C6.07 24.31 8.38 20.89 11.32 18.01C14.32 15.07 17.83 12.79 21.85 11.17C25.93 9.55 30.37 8.74 35.17 8.74C38.17 8.74 41.11 9.13 43.99 9.91C46.87 10.69 49.54 11.86 52 13.42C54.52 14.92 56.68 16.72 58.48 18.82L49.12 29.53C47.86 28.21 46.51 27.07 45.07 26.11C43.69 25.09 42.16 24.31 40.48 23.77C38.8 23.23 37 22.96 35.08 22.96C32.68 22.96 30.4 23.41 28.24 24.31C26.14 25.15 24.28 26.38 22.66 28C21.1 29.56 19.87 31.48 18.97 33.76C18.07 36.04 17.62 38.59 17.62 41.41C17.62 44.17 18.07 46.69 18.97 48.97C19.87 51.19 21.13 53.11 22.75 54.73C24.37 56.35 26.32 57.58 28.6 58.42C30.94 59.26 33.52 59.68 36.34 59.68C38.26 59.68 40.09 59.41 41.83 58.87C43.57 58.33 45.16 57.61 46.6 56.71C48.1 55.75 49.42 54.67 50.56 53.47L57.94 65.17C56.44 66.85 54.43 68.35 51.91 69.67C49.45 70.99 46.69 72.04 43.63 72.82C40.63 73.54 37.6 73.9 34.54 73.9ZM66.8802 73V25.21H80.5602L81.1902 40.78L78.4902 37.81C79.2102 35.23 80.3802 32.92 82.0002 30.88C83.6802 28.84 85.6302 27.22 87.8502 26.02C90.0702 24.82 92.4402 24.22 94.9602 24.22C96.0402 24.22 97.0302 24.31 97.9302 24.49C98.8902 24.67 99.7602 24.88 100.54 25.12L96.5802 41.05C95.9202 40.63 95.0202 40.3 93.8802 40.06C92.8002 39.76 91.6602 39.61 90.4602 39.61C89.1402 39.61 87.9102 39.85 86.7702 40.33C85.6302 40.75 84.6702 41.38 83.8902 42.22C83.1102 43.06 82.4802 44.05 82.0002 45.19C81.5802 46.33 81.3702 47.62 81.3702 49.06V73H66.8802ZM128.586 73.9C123.306 73.9 118.716 72.85 114.816 70.75C110.916 68.59 107.886 65.68 105.726 62.02C103.566 58.3 102.486 54.07 102.486 49.33C102.486 45.67 103.086 42.31 104.286 39.25C105.486 36.19 107.166 33.55 109.326 31.33C111.486 29.05 114.036 27.31 116.976 26.11C119.976 24.85 123.246 24.22 126.786 24.22C130.146 24.22 133.206 24.82 135.966 26.02C138.786 27.22 141.216 28.9 143.256 31.06C145.296 33.22 146.856 35.77 147.936 38.71C149.016 41.65 149.496 44.86 149.376 48.34L149.286 52.21H111.216L109.146 44.11H137.586L136.056 45.82V44.02C135.936 42.52 135.456 41.2 134.616 40.06C133.836 38.86 132.786 37.93 131.466 37.27C130.146 36.61 128.646 36.28 126.966 36.28C124.626 36.28 122.616 36.76 120.936 37.72C119.316 38.62 118.086 39.97 117.246 41.77C116.406 43.51 115.986 45.67 115.986 48.25C115.986 50.89 116.526 53.2 117.606 55.18C118.746 57.1 120.366 58.6 122.466 59.68C124.626 60.76 127.176 61.3 130.116 61.3C132.156 61.3 133.956 61 135.516 60.4C137.136 59.8 138.876 58.78 140.736 57.34L147.486 66.88C145.626 68.5 143.646 69.82 141.546 70.84C139.446 71.86 137.286 72.61 135.066 73.09C132.906 73.63 130.746 73.9 128.586 73.9ZM176.19 73.81C172.17 73.81 168.57 72.76 165.39 70.66C162.27 68.5 159.78 65.56 157.92 61.84C156.06 58.06 155.13 53.8 155.13 49.06C155.13 44.2 156.06 39.91 157.92 36.19C159.78 32.47 162.33 29.56 165.57 27.46C168.81 25.3 172.5 24.22 176.64 24.22C178.92 24.22 180.99 24.55 182.85 25.21C184.77 25.87 186.45 26.8 187.89 28C189.33 29.14 190.56 30.49 191.58 32.05C192.6 33.55 193.35 35.17 193.83 36.91L190.86 36.55V25.21H205.17V73H190.59V61.48L193.83 61.39C193.35 63.07 192.57 64.66 191.49 66.16C190.41 67.66 189.09 68.98 187.53 70.12C185.97 71.26 184.23 72.16 182.31 72.82C180.39 73.48 178.35 73.81 176.19 73.81ZM180.15 61.66C182.37 61.66 184.29 61.15 185.91 60.13C187.53 59.11 188.79 57.67 189.69 55.81C190.59 53.89 191.04 51.64 191.04 49.06C191.04 46.48 190.59 44.26 189.69 42.4C188.79 40.48 187.53 39.01 185.91 37.99C184.29 36.91 182.37 36.37 180.15 36.37C177.99 36.37 176.1 36.91 174.48 37.99C172.92 39.01 171.69 40.48 170.79 42.4C169.89 44.26 169.44 46.48 169.44 49.06C169.44 51.64 169.89 53.89 170.79 55.81C171.69 57.67 172.92 59.11 174.48 60.13C176.1 61.15 177.99 61.66 180.15 61.66ZM221.836 73V13.15H236.236V73H221.836ZM213.376 37.81V25.21H245.506V37.81H213.376ZM254.546 73V25.21H268.946V73H254.546ZM261.746 15.76C259.046 15.76 256.916 15.13 255.356 13.87C253.856 12.55 253.106 10.69 253.106 8.29C253.106 6.13 253.886 4.36 255.446 2.97999C257.006 1.59999 259.106 0.909995 261.746 0.909995C264.446 0.909995 266.546 1.57 268.046 2.89C269.546 4.15 270.296 5.95 270.296 8.29C270.296 10.51 269.516 12.31 267.956 13.69C266.456 15.07 264.386 15.76 261.746 15.76ZM297.146 73L277.166 25.21H293.096L304.976 60.94L301.466 61.3L313.706 25.21H329.456L308.486 73H297.146ZM358.42 73.9C353.14 73.9 348.55 72.85 344.65 70.75C340.75 68.59 337.72 65.68 335.56 62.02C333.4 58.3 332.32 54.07 332.32 49.33C332.32 45.67 332.92 42.31 334.12 39.25C335.32 36.19 337 33.55 339.16 31.33C341.32 29.05 343.87 27.31 346.81 26.11C349.81 24.85 353.08 24.22 356.62 24.22C359.98 24.22 363.04 24.82 365.8 26.02C368.62 27.22 371.05 28.9 373.09 31.06C375.13 33.22 376.69 35.77 377.77 38.71C378.85 41.65 379.33 44.86 379.21 48.34L379.12 52.21H341.05L338.98 44.11H367.42L365.89 45.82V44.02C365.77 42.52 365.29 41.2 364.45 40.06C363.67 38.86 362.62 37.93 361.3 37.27C359.98 36.61 358.48 36.28 356.8 36.28C354.46 36.28 352.45 36.76 350.77 37.72C349.15 38.62 347.92 39.97 347.08 41.77C346.24 43.51 345.82 45.67 345.82 48.25C345.82 50.89 346.36 53.2 347.44 55.18C348.58 57.1 350.2 58.6 352.3 59.68C354.46 60.76 357.01 61.3 359.95 61.3C361.99 61.3 363.79 61 365.35 60.4C366.97 59.8 368.71 58.78 370.57 57.34L377.32 66.88C375.46 68.5 373.48 69.82 371.38 70.84C369.28 71.86 367.12 72.61 364.9 73.09C362.74 73.63 360.58 73.9 358.42 73.9ZM393.514 73.99C391.054 73.99 389.134 73.3 387.754 71.92C386.434 70.54 385.774 68.56 385.774 65.98C385.774 63.58 386.494 61.63 387.934 60.13C389.374 58.63 391.234 57.88 393.514 57.88C395.974 57.88 397.894 58.6 399.274 60.04C400.654 61.42 401.344 63.4 401.344 65.98C401.344 68.32 400.624 70.24 399.184 71.74C397.744 73.24 395.854 73.99 393.514 73.99ZM19.6 161V111.5H0.88V98H54.07V111.5H34.9V161H19.6ZM77.1698 161.9C71.8898 161.9 67.2998 160.85 63.3998 158.75C59.4998 156.59 56.4698 153.68 54.3098 150.02C52.1498 146.3 51.0698 142.07 51.0698 137.33C51.0698 133.67 51.6698 130.31 52.8698 127.25C54.0698 124.19 55.7498 121.55 57.9098 119.33C60.0698 117.05 62.6198 115.31 65.5598 114.11C68.5598 112.85 71.8298 112.22 75.3698 112.22C78.7298 112.22 81.7898 112.82 84.5498 114.02C87.3698 115.22 89.7998 116.9 91.8398 119.06C93.8798 121.22 95.4398 123.77 96.5198 126.71C97.5998 129.65 98.0798 132.86 97.9598 136.34L97.8698 140.21H59.7998L57.7298 132.11H86.1698L84.6398 133.82V132.02C84.5198 130.52 84.0398 129.2 83.1998 128.06C82.4198 126.86 81.3698 125.93 80.0498 125.27C78.7298 124.61 77.2298 124.28 75.5498 124.28C73.2098 124.28 71.1998 124.76 69.5198 125.72C67.8998 126.62 66.6698 127.97 65.8298 129.77C64.9898 131.51 64.5698 133.67 64.5698 136.25C64.5698 138.89 65.1098 141.2 66.1898 143.18C67.3298 145.1 68.9498 146.6 71.0498 147.68C73.2098 148.76 75.7598 149.3 78.6998 149.3C80.7398 149.3 82.5398 149 84.0998 148.4C85.7198 147.8 87.4598 146.78 89.3198 145.34L96.0698 154.88C94.2098 156.5 92.2298 157.82 90.1298 158.84C88.0298 159.86 85.8698 160.61 83.6498 161.09C81.4898 161.63 79.3298 161.9 77.1698 161.9ZM128.104 161.9C123.484 161.9 119.344 160.82 115.684 158.66C112.024 156.5 109.114 153.56 106.954 149.84C104.854 146.06 103.804 141.8 103.804 137.06C103.804 132.32 104.854 128.09 106.954 124.37C109.114 120.59 112.024 117.62 115.684 115.46C119.344 113.3 123.484 112.22 128.104 112.22C132.364 112.22 136.264 112.97 139.804 114.47C143.404 115.97 146.254 118.07 148.354 120.77L140.524 130.13C139.684 129.17 138.694 128.27 137.554 127.43C136.414 126.59 135.154 125.93 133.774 125.45C132.394 124.97 130.954 124.73 129.454 124.73C127.174 124.73 125.164 125.27 123.424 126.35C121.684 127.37 120.334 128.81 119.374 130.67C118.414 132.53 117.934 134.66 117.934 137.06C117.934 139.34 118.414 141.41 119.374 143.27C120.394 145.13 121.774 146.6 123.514 147.68C125.254 148.76 127.234 149.3 129.454 149.3C131.014 149.3 132.454 149.12 133.774 148.76C135.094 148.34 136.294 147.74 137.374 146.96C138.514 146.18 139.564 145.22 140.524 144.08L148.264 153.53C146.224 156.11 143.374 158.15 139.714 159.65C136.114 161.15 132.244 161.9 128.104 161.9ZM156.177 161V94.4H170.307V122.93L167.427 124.01C168.087 121.85 169.257 119.9 170.937 118.16C172.677 116.36 174.747 114.92 177.147 113.84C179.547 112.76 182.067 112.22 184.707 112.22C188.307 112.22 191.337 112.97 193.797 114.47C196.257 115.91 198.117 118.1 199.377 121.04C200.637 123.92 201.267 127.46 201.267 131.66V161H186.777V132.83C186.777 130.91 186.507 129.32 185.967 128.06C185.427 126.8 184.587 125.87 183.447 125.27C182.367 124.61 181.017 124.31 179.397 124.37C178.137 124.37 176.967 124.58 175.887 125C174.807 125.36 173.877 125.93 173.097 126.71C172.317 127.43 171.687 128.27 171.207 129.23C170.787 130.19 170.577 131.24 170.577 132.38V161H163.467C161.787 161 160.347 161 159.147 161C157.947 161 156.957 161 156.177 161ZM213.306 161V113.21H226.986L227.436 122.93L224.556 124.01C225.216 121.85 226.386 119.9 228.066 118.16C229.806 116.36 231.876 114.92 234.276 113.84C236.676 112.76 239.196 112.22 241.836 112.22C245.436 112.22 248.466 112.97 250.926 114.47C253.386 115.91 255.246 118.1 256.506 121.04C257.766 123.92 258.396 127.46 258.396 131.66V161H243.906V132.83C243.906 130.91 243.636 129.32 243.096 128.06C242.556 126.8 241.716 125.87 240.576 125.27C239.496 124.61 238.146 124.31 236.526 124.37C235.266 124.37 234.096 124.58 233.016 125C231.936 125.36 231.006 125.93 230.226 126.71C229.446 127.43 228.816 128.27 228.336 129.23C227.916 130.19 227.706 131.24 227.706 132.38V161H220.596C218.916 161 217.476 161 216.276 161C215.076 161 214.086 161 213.306 161ZM271.245 161V113.21H285.645V161H271.245ZM278.445 103.76C275.745 103.76 273.615 103.13 272.055 101.87C270.555 100.55 269.805 98.69 269.805 96.29C269.805 94.13 270.585 92.36 272.145 90.98C273.705 89.6 275.805 88.91 278.445 88.91C281.145 88.91 283.245 89.57 284.745 90.89C286.245 92.15 286.995 93.95 286.995 96.29C286.995 98.51 286.215 100.31 284.655 101.69C283.155 103.07 281.085 103.76 278.445 103.76ZM320.145 161.9C315.525 161.9 311.385 160.82 307.725 158.66C304.065 156.5 301.155 153.56 298.995 149.84C296.895 146.06 295.845 141.8 295.845 137.06C295.845 132.32 296.895 128.09 298.995 124.37C301.155 120.59 304.065 117.62 307.725 115.46C311.385 113.3 315.525 112.22 320.145 112.22C324.405 112.22 328.305 112.97 331.845 114.47C335.445 115.97 338.295 118.07 340.395 120.77L332.565 130.13C331.725 129.17 330.735 128.27 329.595 127.43C328.455 126.59 327.195 125.93 325.815 125.45C324.435 124.97 322.995 124.73 321.495 124.73C319.215 124.73 317.205 125.27 315.465 126.35C313.725 127.37 312.375 128.81 311.415 130.67C310.455 132.53 309.975 134.66 309.975 137.06C309.975 139.34 310.455 141.41 311.415 143.27C312.435 145.13 313.815 146.6 315.555 147.68C317.295 148.76 319.275 149.3 321.495 149.3C323.055 149.3 324.495 149.12 325.815 148.76C327.135 148.34 328.335 147.74 329.415 146.96C330.555 146.18 331.605 145.22 332.565 144.08L340.305 153.53C338.265 156.11 335.415 158.15 331.755 159.65C328.155 161.15 324.285 161.9 320.145 161.9ZM365.858 161.81C361.838 161.81 358.238 160.76 355.058 158.66C351.938 156.5 349.448 153.56 347.588 149.84C345.728 146.06 344.798 141.8 344.798 137.06C344.798 132.2 345.728 127.91 347.588 124.19C349.448 120.47 351.998 117.56 355.238 115.46C358.478 113.3 362.168 112.22 366.308 112.22C368.588 112.22 370.658 112.55 372.518 113.21C374.438 113.87 376.118 114.8 377.558 116C378.998 117.14 380.228 118.49 381.248 120.05C382.268 121.55 383.018 123.17 383.498 124.91L380.528 124.55V113.21H394.838V161H380.258V149.48L383.498 149.39C383.018 151.07 382.238 152.66 381.158 154.16C380.078 155.66 378.758 156.98 377.198 158.12C375.638 159.26 373.898 160.16 371.978 160.82C370.058 161.48 368.018 161.81 365.858 161.81ZM369.818 149.66C372.038 149.66 373.958 149.15 375.578 148.13C377.198 147.11 378.458 145.67 379.358 143.81C380.258 141.89 380.708 139.64 380.708 137.06C380.708 134.48 380.258 132.26 379.358 130.4C378.458 128.48 377.198 127.01 375.578 125.99C373.958 124.91 372.038 124.37 369.818 124.37C367.658 124.37 365.768 124.91 364.148 125.99C362.588 127.01 361.358 128.48 360.458 130.4C359.558 132.26 359.108 134.48 359.108 137.06C359.108 139.64 359.558 141.89 360.458 143.81C361.358 145.67 362.588 147.11 364.148 148.13C365.768 149.15 367.658 149.66 369.818 149.66ZM407.634 161V94.4H422.034V161H407.634ZM440.008 161.99C437.548 161.99 435.628 161.3 434.248 159.92C432.928 158.54 432.268 156.56 432.268 153.98C432.268 151.58 432.988 149.63 434.428 148.13C435.868 146.63 437.728 145.88 440.008 145.88C442.468 145.88 444.388 146.6 445.768 148.04C447.148 149.42 447.838 151.4 447.838 153.98C447.838 156.32 447.118 158.24 445.678 159.74C444.238 161.24 442.348 161.99 440.008 161.99ZM5.92 249V186H33.1C37.06 186 40.57 186.9 43.63 188.7C46.75 190.5 49.21 192.96 51.01 196.08C52.87 199.2 53.8 202.71 53.8 206.61C53.8 210.69 52.87 214.35 51.01 217.59C49.21 220.77 46.75 223.29 43.63 225.15C40.57 227.01 37.06 227.94 33.1 227.94H21.22V249H5.92ZM20.95 214.53H30.94C32.26 214.53 33.46 214.2 34.54 213.54C35.62 212.88 36.49 211.98 37.15 210.84C37.81 209.7 38.14 208.38 38.14 206.88C38.14 205.32 37.81 204 37.15 202.92C36.49 201.84 35.62 201 34.54 200.4C33.46 199.8 32.26 199.5 30.94 199.5H20.95V214.53ZM63.9798 249V201.21H77.6598L78.2898 216.78L75.5898 213.81C76.3098 211.23 77.4798 208.92 79.0998 206.88C80.7798 204.84 82.7298 203.22 84.9498 202.02C87.1698 200.82 89.5398 200.22 92.0598 200.22C93.1398 200.22 94.1298 200.31 95.0298 200.49C95.9898 200.67 96.8598 200.88 97.6398 201.12L93.6798 217.05C93.0198 216.63 92.1198 216.3 90.9798 216.06C89.8998 215.76 88.7598 215.61 87.5598 215.61C86.2398 215.61 85.0098 215.85 83.8698 216.33C82.7298 216.75 81.7698 217.38 80.9898 218.22C80.2098 219.06 79.5798 220.05 79.0998 221.19C78.6798 222.33 78.4698 223.62 78.4698 225.06V249H63.9798ZM125.415 249.9C120.435 249.9 115.995 248.82 112.095 246.66C108.255 244.5 105.195 241.56 102.915 237.84C100.695 234.12 99.5854 229.86 99.5854 225.06C99.5854 220.26 100.695 216 102.915 212.28C105.195 208.56 108.255 205.62 112.095 203.46C115.995 201.3 120.435 200.22 125.415 200.22C130.395 200.22 134.805 201.3 138.645 203.46C142.545 205.62 145.605 208.56 147.825 212.28C150.045 216 151.155 220.26 151.155 225.06C151.155 229.86 150.045 234.12 147.825 237.84C145.605 241.56 142.545 244.5 138.645 246.66C134.805 248.82 130.395 249.9 125.415 249.9ZM125.415 237.48C127.575 237.48 129.495 236.94 131.175 235.86C132.855 234.78 134.175 233.31 135.135 231.45C136.095 229.59 136.545 227.46 136.485 225.06C136.545 222.66 136.095 220.53 135.135 218.67C134.175 216.75 132.855 215.25 131.175 214.17C129.495 213.09 127.575 212.55 125.415 212.55C123.255 212.55 121.305 213.09 119.565 214.17C117.885 215.25 116.565 216.75 115.605 218.67C114.645 220.53 114.195 222.66 114.255 225.06C114.195 227.46 114.645 229.59 115.605 231.45C116.565 233.31 117.885 234.78 119.565 235.86C121.305 236.94 123.255 237.48 125.415 237.48ZM178.662 249.99C174.522 249.99 170.832 248.94 167.592 246.84C164.412 244.68 161.892 241.74 160.032 238.02C158.172 234.24 157.242 229.95 157.242 225.15C157.242 220.35 158.172 216.09 160.032 212.37C161.892 208.59 164.442 205.62 167.682 203.46C170.922 201.3 174.642 200.22 178.842 200.22C181.002 200.22 183.072 200.55 185.052 201.21C187.032 201.87 188.832 202.77 190.452 203.91C192.072 205.05 193.392 206.37 194.412 207.87C195.432 209.31 196.032 210.81 196.212 212.37L192.792 213.18V182.4H207.282V249H193.872L193.062 238.11L195.942 238.56C195.762 240.06 195.162 241.5 194.142 242.88C193.182 244.26 191.922 245.49 190.362 246.57C188.802 247.59 187.002 248.4 184.962 249C182.982 249.66 180.882 249.99 178.662 249.99ZM182.352 238.02C184.572 238.02 186.492 237.48 188.112 236.4C189.732 235.32 190.962 233.82 191.802 231.9C192.702 229.98 193.152 227.73 193.152 225.15C193.152 222.51 192.702 220.23 191.802 218.31C190.962 216.39 189.732 214.89 188.112 213.81C186.492 212.73 184.572 212.19 182.352 212.19C180.132 212.19 178.212 212.73 176.592 213.81C175.032 214.89 173.802 216.39 172.902 218.31C172.002 220.23 171.552 222.51 171.552 225.15C171.552 227.73 172.002 229.98 172.902 231.9C173.802 233.82 175.032 235.32 176.592 236.4C178.212 237.48 180.132 238.02 182.352 238.02ZM237.155 249.99C233.615 249.99 230.585 249.24 228.065 247.74C225.605 246.18 223.685 243.96 222.305 241.08C220.985 238.2 220.325 234.75 220.325 230.73V201.21H234.815V228.75C234.815 230.67 235.115 232.32 235.715 233.7C236.315 235.08 237.215 236.16 238.415 236.94C239.615 237.66 241.055 238.02 242.735 238.02C243.995 238.02 245.135 237.81 246.155 237.39C247.235 236.97 248.135 236.4 248.855 235.68C249.635 234.9 250.235 234.03 250.655 233.07C251.075 232.05 251.285 230.94 251.285 229.74V201.21H265.775V249H252.185L251.555 239.19L254.255 238.11C253.535 240.39 252.335 242.43 250.655 244.23C248.975 245.97 246.965 247.38 244.625 248.46C242.285 249.48 239.795 249.99 237.155 249.99ZM299.579 249.9C294.959 249.9 290.819 248.82 287.159 246.66C283.499 244.5 280.589 241.56 278.429 237.84C276.329 234.06 275.279 229.8 275.279 225.06C275.279 220.32 276.329 216.09 278.429 212.37C280.589 208.59 283.499 205.62 287.159 203.46C290.819 201.3 294.959 200.22 299.579 200.22C303.839 200.22 307.739 200.97 311.279 202.47C314.879 203.97 317.729 206.07 319.829 208.77L311.999 218.13C311.159 217.17 310.169 216.27 309.029 215.43C307.889 214.59 306.629 213.93 305.249 213.45C303.869 212.97 302.429 212.73 300.929 212.73C298.649 212.73 296.639 213.27 294.899 214.35C293.159 215.37 291.809 216.81 290.849 218.67C289.889 220.53 289.409 222.66 289.409 225.06C289.409 227.34 289.889 229.41 290.849 231.27C291.869 233.13 293.249 234.6 294.989 235.68C296.729 236.76 298.709 237.3 300.929 237.3C302.489 237.3 303.929 237.12 305.249 236.76C306.569 236.34 307.769 235.74 308.849 234.96C309.989 234.18 311.039 233.22 311.999 232.08L319.739 241.53C317.699 244.11 314.849 246.15 311.189 247.65C307.589 249.15 303.719 249.9 299.579 249.9ZM331.612 249V189.15H346.012V249H331.612ZM323.152 213.81V201.21H355.282V213.81H323.152ZM364.321 249V201.21H378.721V249H364.321ZM371.521 191.76C368.821 191.76 366.691 191.13 365.131 189.87C363.631 188.55 362.881 186.69 362.881 184.29C362.881 182.13 363.661 180.36 365.221 178.98C366.781 177.6 368.881 176.91 371.521 176.91C374.221 176.91 376.321 177.57 377.821 178.89C379.321 180.15 380.071 181.95 380.071 184.29C380.071 186.51 379.291 188.31 377.731 189.69C376.231 191.07 374.161 191.76 371.521 191.76ZM414.751 249.9C409.771 249.9 405.331 248.82 401.431 246.66C397.591 244.5 394.531 241.56 392.251 237.84C390.031 234.12 388.921 229.86 388.921 225.06C388.921 220.26 390.031 216 392.251 212.28C394.531 208.56 397.591 205.62 401.431 203.46C405.331 201.3 409.771 200.22 414.751 200.22C419.731 200.22 424.141 201.3 427.981 203.46C431.881 205.62 434.941 208.56 437.161 212.28C439.381 216 440.491 220.26 440.491 225.06C440.491 229.86 439.381 234.12 437.161 237.84C434.941 241.56 431.881 244.5 427.981 246.66C424.141 248.82 419.731 249.9 414.751 249.9ZM414.751 237.48C416.911 237.48 418.831 236.94 420.511 235.86C422.191 234.78 423.511 233.31 424.471 231.45C425.431 229.59 425.881 227.46 425.821 225.06C425.881 222.66 425.431 220.53 424.471 218.67C423.511 216.75 422.191 215.25 420.511 214.17C418.831 213.09 416.911 212.55 414.751 212.55C412.591 212.55 410.641 213.09 408.901 214.17C407.221 215.25 405.901 216.75 404.941 218.67C403.981 220.53 403.531 222.66 403.591 225.06C403.531 227.46 403.981 229.59 404.941 231.45C405.901 233.31 407.221 234.78 408.901 235.86C410.641 236.94 412.591 237.48 414.751 237.48ZM449.908 249V201.21H463.588L464.038 210.93L461.158 212.01C461.818 209.85 462.988 207.9 464.668 206.16C466.408 204.36 468.478 202.92 470.878 201.84C473.278 200.76 475.798 200.22 478.438 200.22C482.038 200.22 485.068 200.97 487.528 202.47C489.988 203.91 491.848 206.1 493.108 209.04C494.368 211.92 494.998 215.46 494.998 219.66V249H480.508V220.83C480.508 218.91 480.238 217.32 479.698 216.06C479.158 214.8 478.318 213.87 477.178 213.27C476.098 212.61 474.748 212.31 473.128 212.37C471.868 212.37 470.698 212.58 469.618 213C468.538 213.36 467.608 213.93 466.828 214.71C466.048 215.43 465.418 216.27 464.938 217.23C464.518 218.19 464.308 219.24 464.308 220.38V249H457.198C455.518 249 454.078 249 452.878 249C451.678 249 450.688 249 449.908 249ZM512.166 249.99C509.706 249.99 507.786 249.3 506.406 247.92C505.086 246.54 504.426 244.56 504.426 241.98C504.426 239.58 505.146 237.63 506.586 236.13C508.026 234.63 509.886 233.88 512.166 233.88C514.626 233.88 516.546 234.6 517.926 236.04C519.306 237.42 519.996 239.4 519.996 241.98C519.996 244.32 519.276 246.24 517.836 247.74C516.396 249.24 514.506 249.99 512.166 249.99Z" fill="white"/>
</svg>
