<svg width="48" height="48" viewBox="0 0 48 48" fill="none" xmlns="http://www.w3.org/2000/svg">
<path opacity="0.4" d="M44.5 22.5C44.5 34.6503 34.6503 44.5 22.5 44.5C10.3497 44.5 0.5 34.6503 0.5 22.5C0.5 10.3497 10.3497 0.5 22.5 0.5C34.6503 0.5 44.5 10.3497 44.5 22.5Z" stroke="#B0B0B0"/>
<path d="M21.75 18.0078C19.25 18.0078 17.2578 20.0391 17.2578 22.5C17.2578 25 19.25 26.9922 21.75 26.9922C24.2109 26.9922 26.2422 25 26.2422 22.5C26.2422 20.0391 24.2109 18.0078 21.75 18.0078ZM21.75 25.4297C20.1484 25.4297 18.8203 24.1406 18.8203 22.5C18.8203 20.8984 20.1094 19.6094 21.75 19.6094C23.3516 19.6094 24.6406 20.8984 24.6406 22.5C24.6406 24.1406 23.3516 25.4297 21.75 25.4297ZM27.4531 17.8516C27.4531 17.2656 26.9844 16.7969 26.3984 16.7969C25.8125 16.7969 25.3438 17.2656 25.3438 17.8516C25.3438 18.4375 25.8125 18.9062 26.3984 18.9062C26.9844 18.9062 27.4531 18.4375 27.4531 17.8516ZM30.4219 18.9062C30.3438 17.5 30.0312 16.25 29.0156 15.2344C28 14.2188 26.75 13.9062 25.3438 13.8281C23.8984 13.75 19.5625 13.75 18.1172 13.8281C16.7109 13.9062 15.5 14.2188 14.4453 15.2344C13.4297 16.25 13.1172 17.5 13.0391 18.9062C12.9609 20.3516 12.9609 24.6875 13.0391 26.1328C13.1172 27.5391 13.4297 28.75 14.4453 29.8047C15.5 30.8203 16.7109 31.1328 18.1172 31.2109C19.5625 31.2891 23.8984 31.2891 25.3438 31.2109C26.75 31.1328 28 30.8203 29.0156 29.8047C30.0312 28.75 30.3438 27.5391 30.4219 26.1328C30.5 24.6875 30.5 20.3516 30.4219 18.9062ZM28.5469 27.6562C28.2734 28.4375 27.6484 29.0234 26.9062 29.3359C25.7344 29.8047 23 29.6875 21.75 29.6875C20.4609 29.6875 17.7266 29.8047 16.5938 29.3359C15.8125 29.0234 15.2266 28.4375 14.9141 27.6562C14.4453 26.5234 14.5625 23.7891 14.5625 22.5C14.5625 21.25 14.4453 18.5156 14.9141 17.3438C15.2266 16.6016 15.8125 16.0156 16.5938 15.7031C17.7266 15.2344 20.4609 15.3516 21.75 15.3516C23 15.3516 25.7344 15.2344 26.9062 15.7031C27.6484 15.9766 28.2344 16.6016 28.5469 17.3438C29.0156 18.5156 28.8984 21.25 28.8984 22.5C28.8984 23.7891 29.0156 26.5234 28.5469 27.6562Z" fill="white"/>
</svg>
