<svg width="500" height="250" viewBox="0 0 500 250" fill="none" xmlns="http://www.w3.org/2000/svg">
<path d="M5.66 73V60.13H16.28V22.87H5.66V10H42.29V22.87H31.58V60.13H42.29V73H5.66ZM55.3119 73V25.21H68.9919L69.4419 34.93L66.5619 36.01C67.2219 33.85 68.3919 31.9 70.0719 30.16C71.8119 28.36 73.8819 26.92 76.2819 25.84C78.6819 24.76 81.2019 24.22 83.8419 24.22C87.4419 24.22 90.4719 24.97 92.9319 26.47C95.3919 27.91 97.2519 30.1 98.5119 33.04C99.7719 35.92 100.402 39.46 100.402 43.66V73H85.9119V44.83C85.9119 42.91 85.6419 41.32 85.1019 40.06C84.5619 38.8 83.7219 37.87 82.5819 37.27C81.5019 36.61 80.1519 36.31 78.5319 36.37C77.2719 36.37 76.1019 36.58 75.0219 37C73.9419 37.36 73.0119 37.93 72.2319 38.71C71.4519 39.43 70.8219 40.27 70.3419 41.23C69.9219 42.19 69.7119 43.24 69.7119 44.38V73H62.6019C60.9219 73 59.4819 73 58.2819 73C57.0819 73 56.0919 73 55.3119 73ZM112.441 73V25.21H126.121L126.571 34.93L123.691 36.01C124.351 33.85 125.521 31.9 127.201 30.16C128.941 28.36 131.011 26.92 133.411 25.84C135.811 24.76 138.331 24.22 140.971 24.22C144.571 24.22 147.601 24.97 150.061 26.47C152.521 27.91 154.381 30.1 155.641 33.04C156.901 35.92 157.531 39.46 157.531 43.66V73H143.041V44.83C143.041 42.91 142.771 41.32 142.231 40.06C141.691 38.8 140.851 37.87 139.711 37.27C138.631 36.61 137.281 36.31 135.661 36.37C134.401 36.37 133.231 36.58 132.151 37C131.071 37.36 130.141 37.93 129.361 38.71C128.581 39.43 127.951 40.27 127.471 41.23C127.051 42.19 126.841 43.24 126.841 44.38V73H119.731C118.051 73 116.611 73 115.411 73C114.211 73 113.221 73 112.441 73ZM192.07 73.9C187.09 73.9 182.65 72.82 178.75 70.66C174.91 68.5 171.85 65.56 169.57 61.84C167.35 58.12 166.24 53.86 166.24 49.06C166.24 44.26 167.35 40 169.57 36.28C171.85 32.56 174.91 29.62 178.75 27.46C182.65 25.3 187.09 24.22 192.07 24.22C197.05 24.22 201.46 25.3 205.3 27.46C209.2 29.62 212.26 32.56 214.48 36.28C216.7 40 217.81 44.26 217.81 49.06C217.81 53.86 216.7 58.12 214.48 61.84C212.26 65.56 209.2 68.5 205.3 70.66C201.46 72.82 197.05 73.9 192.07 73.9ZM192.07 61.48C194.23 61.48 196.15 60.94 197.83 59.86C199.51 58.78 200.83 57.31 201.79 55.45C202.75 53.59 203.2 51.46 203.14 49.06C203.2 46.66 202.75 44.53 201.79 42.67C200.83 40.75 199.51 39.25 197.83 38.17C196.15 37.09 194.23 36.55 192.07 36.55C189.91 36.55 187.96 37.09 186.22 38.17C184.54 39.25 183.22 40.75 182.26 42.67C181.3 44.53 180.85 46.66 180.91 49.06C180.85 51.46 181.3 53.59 182.26 55.45C183.22 57.31 184.54 58.78 186.22 59.86C187.96 60.94 189.91 61.48 192.07 61.48ZM240.578 73L220.598 25.21H236.528L248.408 60.94L244.898 61.3L257.138 25.21H272.888L251.918 73H240.578ZM296.721 73.81C292.701 73.81 289.101 72.76 285.921 70.66C282.801 68.5 280.311 65.56 278.451 61.84C276.591 58.06 275.661 53.8 275.661 49.06C275.661 44.2 276.591 39.91 278.451 36.19C280.311 32.47 282.861 29.56 286.101 27.46C289.341 25.3 293.031 24.22 297.171 24.22C299.451 24.22 301.521 24.55 303.381 25.21C305.301 25.87 306.981 26.8 308.421 28C309.861 29.14 311.091 30.49 312.111 32.05C313.131 33.55 313.881 35.17 314.361 36.91L311.391 36.55V25.21H325.701V73H311.121V61.48L314.361 61.39C313.881 63.07 313.101 64.66 312.021 66.16C310.941 67.66 309.621 68.98 308.061 70.12C306.501 71.26 304.761 72.16 302.841 72.82C300.921 73.48 298.881 73.81 296.721 73.81ZM300.681 61.66C302.901 61.66 304.821 61.15 306.441 60.13C308.061 59.11 309.321 57.67 310.221 55.81C311.121 53.89 311.571 51.64 311.571 49.06C311.571 46.48 311.121 44.26 310.221 42.4C309.321 40.48 308.061 39.01 306.441 37.99C304.821 36.91 302.901 36.37 300.681 36.37C298.521 36.37 296.631 36.91 295.011 37.99C293.451 39.01 292.221 40.48 291.321 42.4C290.421 44.26 289.971 46.48 289.971 49.06C289.971 51.64 290.421 53.89 291.321 55.81C292.221 57.67 293.451 59.11 295.011 60.13C296.631 61.15 298.521 61.66 300.681 61.66ZM342.368 73V13.15H356.768V73H342.368ZM333.908 37.81V25.21H366.038V37.81H333.908ZM375.077 73V25.21H389.477V73H375.077ZM382.277 15.76C379.577 15.76 377.447 15.13 375.887 13.87C374.387 12.55 373.637 10.69 373.637 8.29C373.637 6.13 374.417 4.36 375.977 2.97999C377.537 1.59999 379.637 0.909995 382.277 0.909995C384.977 0.909995 387.077 1.57 388.577 2.89C390.077 4.15 390.827 5.95 390.827 8.29C390.827 10.51 390.047 12.31 388.487 13.69C386.987 15.07 384.917 15.76 382.277 15.76ZM417.677 73L397.697 25.21H413.627L425.507 60.94L421.997 61.3L434.237 25.21H449.987L429.017 73H417.677ZM478.951 73.9C473.671 73.9 469.081 72.85 465.181 70.75C461.281 68.59 458.251 65.68 456.091 62.02C453.931 58.3 452.851 54.07 452.851 49.33C452.851 45.67 453.451 42.31 454.651 39.25C455.851 36.19 457.531 33.55 459.691 31.33C461.851 29.05 464.401 27.31 467.341 26.11C470.341 24.85 473.611 24.22 477.151 24.22C480.511 24.22 483.571 24.82 486.331 26.02C489.151 27.22 491.581 28.9 493.621 31.06C495.661 33.22 497.221 35.77 498.301 38.71C499.381 41.65 499.861 44.86 499.741 48.34L499.651 52.21H461.581L459.511 44.11H487.951L486.421 45.82V44.02C486.301 42.52 485.821 41.2 484.981 40.06C484.201 38.86 483.151 37.93 481.831 37.27C480.511 36.61 479.011 36.28 477.331 36.28C474.991 36.28 472.981 36.76 471.301 37.72C469.681 38.62 468.451 39.97 467.611 41.77C466.771 43.51 466.351 45.67 466.351 48.25C466.351 50.89 466.891 53.2 467.971 55.18C469.111 57.1 470.731 58.6 472.831 59.68C474.991 60.76 477.541 61.3 480.481 61.3C482.521 61.3 484.321 61 485.881 60.4C487.501 59.8 489.241 58.78 491.101 57.34L497.851 66.88C495.991 68.5 494.011 69.82 491.911 70.84C489.811 71.86 487.651 72.61 485.431 73.09C483.271 73.63 481.111 73.9 478.951 73.9ZM9.35 161V101.15H23.75V161H9.35ZM0.89 125.81V113.21H33.02V125.81H0.89ZM63.5799 161.9C58.2999 161.9 53.7099 160.85 49.8099 158.75C45.9099 156.59 42.8799 153.68 40.7199 150.02C38.5599 146.3 37.4799 142.07 37.4799 137.33C37.4799 133.67 38.0799 130.31 39.2799 127.25C40.4799 124.19 42.1599 121.55 44.3199 119.33C46.4799 117.05 49.0299 115.31 51.9699 114.11C54.9699 112.85 58.2399 112.22 61.7799 112.22C65.1399 112.22 68.1999 112.82 70.9599 114.02C73.7799 115.22 76.2099 116.9 78.2499 119.06C80.2899 121.22 81.8499 123.77 82.9299 126.71C84.0099 129.65 84.4899 132.86 84.3699 136.34L84.2799 140.21H46.2099L44.1399 132.11H72.5799L71.0499 133.82V132.02C70.9299 130.52 70.4499 129.2 69.6099 128.06C68.8299 126.86 67.7799 125.93 66.4599 125.27C65.1399 124.61 63.6399 124.28 61.9599 124.28C59.6199 124.28 57.6099 124.76 55.9299 125.72C54.3099 126.62 53.0799 127.97 52.2399 129.77C51.3999 131.51 50.9799 133.67 50.9799 136.25C50.9799 138.89 51.5199 141.2 52.5999 143.18C53.7399 145.1 55.3599 146.6 57.4599 147.68C59.6199 148.76 62.1699 149.3 65.1099 149.3C67.1499 149.3 68.9499 149 70.5099 148.4C72.1299 147.8 73.8699 146.78 75.7299 145.34L82.4799 154.88C80.6199 156.5 78.6399 157.82 76.5399 158.84C74.4399 159.86 72.2799 160.61 70.0599 161.09C67.8999 161.63 65.7399 161.9 63.5799 161.9ZM114.514 161.9C109.894 161.9 105.754 160.82 102.094 158.66C98.4343 156.5 95.5243 153.56 93.3643 149.84C91.2643 146.06 90.2143 141.8 90.2143 137.06C90.2143 132.32 91.2643 128.09 93.3643 124.37C95.5243 120.59 98.4343 117.62 102.094 115.46C105.754 113.3 109.894 112.22 114.514 112.22C118.774 112.22 122.674 112.97 126.214 114.47C129.814 115.97 132.664 118.07 134.764 120.77L126.934 130.13C126.094 129.17 125.104 128.27 123.964 127.43C122.824 126.59 121.564 125.93 120.184 125.45C118.804 124.97 117.364 124.73 115.864 124.73C113.584 124.73 111.574 125.27 109.834 126.35C108.094 127.37 106.744 128.81 105.784 130.67C104.824 132.53 104.344 134.66 104.344 137.06C104.344 139.34 104.824 141.41 105.784 143.27C106.804 145.13 108.184 146.6 109.924 147.68C111.664 148.76 113.644 149.3 115.864 149.3C117.424 149.3 118.864 149.12 120.184 148.76C121.504 148.34 122.704 147.74 123.784 146.96C124.924 146.18 125.974 145.22 126.934 144.08L134.674 153.53C132.634 156.11 129.784 158.15 126.124 159.65C122.524 161.15 118.654 161.9 114.514 161.9ZM142.587 161V94.4H156.717V122.93L153.837 124.01C154.497 121.85 155.667 119.9 157.347 118.16C159.087 116.36 161.157 114.92 163.557 113.84C165.957 112.76 168.477 112.22 171.117 112.22C174.717 112.22 177.747 112.97 180.207 114.47C182.667 115.91 184.527 118.1 185.787 121.04C187.047 123.92 187.677 127.46 187.677 131.66V161H173.187V132.83C173.187 130.91 172.917 129.32 172.377 128.06C171.837 126.8 170.997 125.87 169.857 125.27C168.777 124.61 167.427 124.31 165.807 124.37C164.547 124.37 163.377 124.58 162.297 125C161.217 125.36 160.287 125.93 159.507 126.71C158.727 127.43 158.097 128.27 157.617 129.23C157.197 130.19 156.987 131.24 156.987 132.38V161H149.877C148.197 161 146.757 161 145.557 161C144.357 161 143.367 161 142.587 161ZM199.716 161V113.21H213.396L213.846 122.93L210.966 124.01C211.626 121.85 212.796 119.9 214.476 118.16C216.216 116.36 218.286 114.92 220.686 113.84C223.086 112.76 225.606 112.22 228.246 112.22C231.846 112.22 234.876 112.97 237.336 114.47C239.796 115.91 241.656 118.1 242.916 121.04C244.176 123.92 244.806 127.46 244.806 131.66V161H230.316V132.83C230.316 130.91 230.046 129.32 229.506 128.06C228.966 126.8 228.126 125.87 226.986 125.27C225.906 124.61 224.556 124.31 222.936 124.37C221.676 124.37 220.506 124.58 219.426 125C218.346 125.36 217.416 125.93 216.636 126.71C215.856 127.43 215.226 128.27 214.746 129.23C214.326 130.19 214.116 131.24 214.116 132.38V161H207.006C205.326 161 203.886 161 202.686 161C201.486 161 200.496 161 199.716 161ZM257.655 161V113.21H272.055V161H257.655ZM264.855 103.76C262.155 103.76 260.025 103.13 258.465 101.87C256.965 100.55 256.215 98.69 256.215 96.29C256.215 94.13 256.995 92.36 258.555 90.98C260.115 89.6 262.215 88.91 264.855 88.91C267.555 88.91 269.655 89.57 271.155 90.89C272.655 92.15 273.405 93.95 273.405 96.29C273.405 98.51 272.625 100.31 271.065 101.69C269.565 103.07 267.495 103.76 264.855 103.76ZM306.555 161.9C301.935 161.9 297.795 160.82 294.135 158.66C290.475 156.5 287.565 153.56 285.405 149.84C283.305 146.06 282.255 141.8 282.255 137.06C282.255 132.32 283.305 128.09 285.405 124.37C287.565 120.59 290.475 117.62 294.135 115.46C297.795 113.3 301.935 112.22 306.555 112.22C310.815 112.22 314.715 112.97 318.255 114.47C321.855 115.97 324.705 118.07 326.805 120.77L318.975 130.13C318.135 129.17 317.145 128.27 316.005 127.43C314.865 126.59 313.605 125.93 312.225 125.45C310.845 124.97 309.405 124.73 307.905 124.73C305.625 124.73 303.615 125.27 301.875 126.35C300.135 127.37 298.785 128.81 297.825 130.67C296.865 132.53 296.385 134.66 296.385 137.06C296.385 139.34 296.865 141.41 297.825 143.27C298.845 145.13 300.225 146.6 301.965 147.68C303.705 148.76 305.685 149.3 307.905 149.3C309.465 149.3 310.905 149.12 312.225 148.76C313.545 148.34 314.745 147.74 315.825 146.96C316.965 146.18 318.015 145.22 318.975 144.08L326.715 153.53C324.675 156.11 321.825 158.15 318.165 159.65C314.565 161.15 310.695 161.9 306.555 161.9ZM352.268 161.81C348.248 161.81 344.648 160.76 341.468 158.66C338.348 156.5 335.858 153.56 333.998 149.84C332.138 146.06 331.208 141.8 331.208 137.06C331.208 132.2 332.138 127.91 333.998 124.19C335.858 120.47 338.408 117.56 341.648 115.46C344.888 113.3 348.578 112.22 352.718 112.22C354.998 112.22 357.068 112.55 358.928 113.21C360.848 113.87 362.528 114.8 363.968 116C365.408 117.14 366.638 118.49 367.658 120.05C368.678 121.55 369.428 123.17 369.908 124.91L366.938 124.55V113.21H381.248V161H366.668V149.48L369.908 149.39C369.428 151.07 368.648 152.66 367.568 154.16C366.488 155.66 365.168 156.98 363.608 158.12C362.048 159.26 360.308 160.16 358.388 160.82C356.468 161.48 354.428 161.81 352.268 161.81ZM356.228 149.66C358.448 149.66 360.368 149.15 361.988 148.13C363.608 147.11 364.868 145.67 365.768 143.81C366.668 141.89 367.118 139.64 367.118 137.06C367.118 134.48 366.668 132.26 365.768 130.4C364.868 128.48 363.608 127.01 361.988 125.99C360.368 124.91 358.448 124.37 356.228 124.37C354.068 124.37 352.178 124.91 350.558 125.99C348.998 127.01 347.768 128.48 346.868 130.4C345.968 132.26 345.518 134.48 345.518 137.06C345.518 139.64 345.968 141.89 346.868 143.81C347.768 145.67 348.998 147.11 350.558 148.13C352.178 149.15 354.068 149.66 356.228 149.66ZM394.044 161V94.4H408.444V161H394.044ZM21.5 249.9C16.82 249.9 12.68 249.15 9.08 247.65C5.54 246.15 2.72 244.14 0.62 241.62L9.35 234.06C11.21 235.92 13.31 237.3 15.65 238.2C17.99 239.04 20.21 239.46 22.31 239.46C23.15 239.46 23.9 239.37 24.56 239.19C25.22 239.01 25.76 238.77 26.18 238.47C26.66 238.11 27.02 237.72 27.26 237.3C27.5 236.82 27.62 236.28 27.62 235.68C27.62 234.48 27.08 233.55 26 232.89C25.46 232.59 24.56 232.23 23.3 231.81C22.04 231.39 20.42 230.91 18.44 230.37C15.62 229.65 13.16 228.81 11.06 227.85C9.02 226.83 7.34 225.66 6.02 224.34C4.82 223.08 3.89 221.7 3.23 220.2C2.57 218.64 2.24 216.9 2.24 214.98C2.24 212.76 2.75 210.75 3.77 208.95C4.85 207.15 6.26 205.59 8 204.27C9.8 202.95 11.84 201.96 14.12 201.3C16.46 200.58 18.86 200.22 21.32 200.22C23.96 200.22 26.48 200.52 28.88 201.12C31.28 201.72 33.5 202.56 35.54 203.64C37.64 204.72 39.5 206.01 41.12 207.51L33.56 215.97C32.48 214.95 31.25 214.05 29.87 213.27C28.55 212.43 27.17 211.77 25.73 211.29C24.29 210.81 22.97 210.57 21.77 210.57C20.87 210.57 20.06 210.66 19.34 210.84C18.68 210.96 18.11 211.2 17.63 211.56C17.15 211.86 16.79 212.25 16.55 212.73C16.31 213.15 16.19 213.66 16.19 214.26C16.19 214.86 16.34 215.43 16.64 215.97C17 216.51 17.48 216.96 18.08 217.32C18.68 217.68 19.64 218.1 20.96 218.58C22.28 219 24.08 219.54 26.36 220.2C29.18 220.98 31.61 221.85 33.65 222.81C35.69 223.77 37.31 224.91 38.51 226.23C39.47 227.25 40.19 228.45 40.67 229.83C41.15 231.15 41.39 232.59 41.39 234.15C41.39 237.21 40.52 239.94 38.78 242.34C37.1 244.68 34.76 246.54 31.76 247.92C28.76 249.24 25.34 249.9 21.5 249.9ZM72.4505 249.9C67.4705 249.9 63.0305 248.82 59.1305 246.66C55.2905 244.5 52.2305 241.56 49.9505 237.84C47.7305 234.12 46.6205 229.86 46.6205 225.06C46.6205 220.26 47.7305 216 49.9505 212.28C52.2305 208.56 55.2905 205.62 59.1305 203.46C63.0305 201.3 67.4705 200.22 72.4505 200.22C77.4305 200.22 81.8405 201.3 85.6805 203.46C89.5806 205.62 92.6406 208.56 94.8606 212.28C97.0806 216 98.1906 220.26 98.1906 225.06C98.1906 229.86 97.0806 234.12 94.8606 237.84C92.6406 241.56 89.5806 244.5 85.6805 246.66C81.8405 248.82 77.4305 249.9 72.4505 249.9ZM72.4505 237.48C74.6105 237.48 76.5305 236.94 78.2105 235.86C79.8905 234.78 81.2105 233.31 82.1705 231.45C83.1305 229.59 83.5805 227.46 83.5206 225.06C83.5805 222.66 83.1305 220.53 82.1705 218.67C81.2105 216.75 79.8905 215.25 78.2105 214.17C76.5305 213.09 74.6105 212.55 72.4505 212.55C70.2905 212.55 68.3405 213.09 66.6005 214.17C64.9205 215.25 63.6005 216.75 62.6405 218.67C61.6805 220.53 61.2305 222.66 61.2905 225.06C61.2305 227.46 61.6805 229.59 62.6405 231.45C63.6005 233.31 64.9205 234.78 66.6005 235.86C68.3405 236.94 70.2905 237.48 72.4505 237.48ZM107.697 249V182.4H122.097V249H107.697ZM150.791 249.99C147.251 249.99 144.221 249.24 141.701 247.74C139.241 246.18 137.321 243.96 135.941 241.08C134.621 238.2 133.961 234.75 133.961 230.73V201.21H148.451V228.75C148.451 230.67 148.751 232.32 149.351 233.7C149.951 235.08 150.851 236.16 152.051 236.94C153.251 237.66 154.691 238.02 156.371 238.02C157.631 238.02 158.771 237.81 159.791 237.39C160.871 236.97 161.771 236.4 162.491 235.68C163.271 234.9 163.871 234.03 164.291 233.07C164.711 232.05 164.921 230.94 164.921 229.74V201.21H179.411V249H165.821L165.191 239.19L167.891 238.11C167.171 240.39 165.971 242.43 164.291 244.23C162.611 245.97 160.601 247.38 158.261 248.46C155.921 249.48 153.431 249.99 150.791 249.99ZM196.205 249V189.15H210.605V249H196.205ZM187.745 213.81V201.21H219.875V213.81H187.745ZM228.915 249V201.21H243.315V249H228.915ZM236.115 191.76C233.415 191.76 231.285 191.13 229.725 189.87C228.225 188.55 227.475 186.69 227.475 184.29C227.475 182.13 228.255 180.36 229.815 178.98C231.375 177.6 233.475 176.91 236.115 176.91C238.815 176.91 240.915 177.57 242.415 178.89C243.915 180.15 244.665 181.95 244.665 184.29C244.665 186.51 243.885 188.31 242.325 189.69C240.825 191.07 238.755 191.76 236.115 191.76ZM279.345 249.9C274.365 249.9 269.925 248.82 266.025 246.66C262.185 244.5 259.125 241.56 256.845 237.84C254.625 234.12 253.515 229.86 253.515 225.06C253.515 220.26 254.625 216 256.845 212.28C259.125 208.56 262.185 205.62 266.025 203.46C269.925 201.3 274.365 200.22 279.345 200.22C284.325 200.22 288.735 201.3 292.575 203.46C296.475 205.62 299.535 208.56 301.755 212.28C303.975 216 305.085 220.26 305.085 225.06C305.085 229.86 303.975 234.12 301.755 237.84C299.535 241.56 296.475 244.5 292.575 246.66C288.735 248.82 284.325 249.9 279.345 249.9ZM279.345 237.48C281.505 237.48 283.425 236.94 285.105 235.86C286.785 234.78 288.105 233.31 289.065 231.45C290.025 229.59 290.475 227.46 290.415 225.06C290.475 222.66 290.025 220.53 289.065 218.67C288.105 216.75 286.785 215.25 285.105 214.17C283.425 213.09 281.505 212.55 279.345 212.55C277.185 212.55 275.235 213.09 273.495 214.17C271.815 215.25 270.495 216.75 269.535 218.67C268.575 220.53 268.125 222.66 268.185 225.06C268.125 227.46 268.575 229.59 269.535 231.45C270.495 233.31 271.815 234.78 273.495 235.86C275.235 236.94 277.185 237.48 279.345 237.48ZM314.501 249V201.21H328.181L328.631 210.93L325.751 212.01C326.411 209.85 327.581 207.9 329.261 206.16C331.001 204.36 333.071 202.92 335.471 201.84C337.871 200.76 340.391 200.22 343.031 200.22C346.631 200.22 349.661 200.97 352.121 202.47C354.581 203.91 356.441 206.1 357.701 209.04C358.961 211.92 359.591 215.46 359.591 219.66V249H345.101V220.83C345.101 218.91 344.831 217.32 344.291 216.06C343.751 214.8 342.911 213.87 341.771 213.27C340.691 212.61 339.341 212.31 337.721 212.37C336.461 212.37 335.291 212.58 334.211 213C333.131 213.36 332.201 213.93 331.421 214.71C330.641 215.43 330.011 216.27 329.531 217.23C329.111 218.19 328.901 219.24 328.901 220.38V249H321.791C320.111 249 318.671 249 317.471 249C316.271 249 315.281 249 314.501 249ZM387.74 249.9C383.06 249.9 378.92 249.15 375.32 247.65C371.78 246.15 368.96 244.14 366.86 241.62L375.59 234.06C377.45 235.92 379.55 237.3 381.89 238.2C384.23 239.04 386.45 239.46 388.55 239.46C389.39 239.46 390.14 239.37 390.8 239.19C391.46 239.01 392 238.77 392.42 238.47C392.9 238.11 393.26 237.72 393.5 237.3C393.74 236.82 393.86 236.28 393.86 235.68C393.86 234.48 393.32 233.55 392.24 232.89C391.7 232.59 390.8 232.23 389.54 231.81C388.28 231.39 386.66 230.91 384.68 230.37C381.86 229.65 379.4 228.81 377.3 227.85C375.26 226.83 373.58 225.66 372.26 224.34C371.06 223.08 370.13 221.7 369.47 220.2C368.81 218.64 368.48 216.9 368.48 214.98C368.48 212.76 368.99 210.75 370.01 208.95C371.09 207.15 372.5 205.59 374.24 204.27C376.04 202.95 378.08 201.96 380.36 201.3C382.7 200.58 385.1 200.22 387.56 200.22C390.2 200.22 392.72 200.52 395.12 201.12C397.52 201.72 399.74 202.56 401.78 203.64C403.88 204.72 405.74 206.01 407.36 207.51L399.8 215.97C398.72 214.95 397.49 214.05 396.11 213.27C394.79 212.43 393.41 211.77 391.97 211.29C390.53 210.81 389.21 210.57 388.01 210.57C387.11 210.57 386.3 210.66 385.58 210.84C384.92 210.96 384.35 211.2 383.87 211.56C383.39 211.86 383.03 212.25 382.79 212.73C382.55 213.15 382.43 213.66 382.43 214.26C382.43 214.86 382.58 215.43 382.88 215.97C383.24 216.51 383.72 216.96 384.32 217.32C384.92 217.68 385.88 218.1 387.2 218.58C388.52 219 390.32 219.54 392.6 220.2C395.42 220.98 397.85 221.85 399.89 222.81C401.93 223.77 403.55 224.91 404.75 226.23C405.71 227.25 406.43 228.45 406.91 229.83C407.39 231.15 407.63 232.59 407.63 234.15C407.63 237.21 406.76 239.94 405.02 242.34C403.34 244.68 401 246.54 398 247.92C395 249.24 391.58 249.9 387.74 249.9Z" fill="white"/>
</svg>
