<svg width="48" height="48" viewBox="0 0 48 48" fill="none" xmlns="http://www.w3.org/2000/svg">
<path opacity="0.4" d="M44.5 22.5C44.5 34.6503 34.6503 44.5 22.5 44.5C10.3497 44.5 0.5 34.6503 0.5 22.5C0.5 10.3497 10.3497 0.5 22.5 0.5C34.6503 0.5 44.5 10.3497 44.5 22.5Z" stroke="#B0B0B0"/>
<path d="M16.9062 30V18.3203H13.2734V30H16.9062ZM15.0703 16.7578C16.2422 16.7578 17.1797 15.7812 17.1797 14.6094C17.1797 13.4766 16.2422 12.5391 15.0703 12.5391C13.9375 12.5391 13 13.4766 13 14.6094C13 15.7812 13.9375 16.7578 15.0703 16.7578ZM30.4609 30H30.5V23.5938C30.5 20.4688 29.7969 18.0469 26.125 18.0469C24.3672 18.0469 23.1953 19.0234 22.6875 19.9219H22.6484V18.3203H19.1719V30H22.8047V24.2188C22.8047 22.6953 23.0781 21.25 24.9531 21.25C26.8281 21.25 26.8672 22.9688 26.8672 24.3359V30H30.4609Z" fill="white"/>
</svg>
