<svg width="177" height="28" viewBox="0 0 177 28" fill="none" xmlns="http://www.w3.org/2000/svg">
<path d="M11.6918 18.9963C11.9613 19.5977 11.8602 20.3829 11.7423 20.8507C11.5233 21.6693 10.9505 22.5381 9.29951 22.5381C7.73275 22.5381 6.77247 21.6359 6.77247 20.2827V17.8603H0V19.7648C0 25.3447 4.39705 27.0321 9.16474 27.0321C13.9324 27.0321 17.4534 25.4784 18.0599 21.3185C18.3632 19.1466 18.1442 17.7767 18.0094 17.2087C16.9649 11.9796 7.41265 10.4092 6.67139 7.51895C6.53661 7.00105 6.58715 6.48315 6.62085 6.21585C6.78932 5.43064 7.36211 4.52849 8.92888 4.52849C10.4114 4.52849 11.2874 5.43064 11.2874 6.78387V8.33757H17.5714V6.56668C17.5714 1.12037 12.6352 0.301758 9.06365 0.301758C4.58237 0.318464 0.960276 1.78863 0.252704 5.8483C0.0842347 6.96764 0.0336939 7.97002 0.303245 9.22301C1.43199 14.2851 10.3777 15.7552 11.6918 18.9963ZM93.45 18.9629C93.7027 19.5643 93.6184 20.3495 93.5005 20.7839C93.2815 21.6025 92.7087 22.4211 91.0577 22.4211C89.4909 22.4211 88.5812 21.519 88.5812 20.1657V17.7934H81.9098V19.698C81.9098 25.1944 86.2732 26.8817 90.9735 26.8817C95.6738 26.8817 99.1779 25.3615 99.7844 21.2183C100.088 19.0965 99.8687 17.6765 99.7339 17.1586C98.6894 11.9629 89.2214 10.4593 88.5307 7.55236C88.3959 7.03446 88.4464 6.51656 88.4801 6.24926C88.6486 5.46405 89.1709 4.61203 90.7545 4.61203C92.1865 4.61203 93.0625 5.51417 93.0625 6.8674V8.38769H99.2959V6.65021C99.2959 1.27073 94.4103 0.401997 90.8724 0.401997C86.4585 0.401997 82.8532 1.87217 82.1457 5.89842C81.9772 6.98434 81.9267 7.97002 82.1962 9.22301C83.325 14.2851 92.1865 15.7552 93.45 18.9629ZM145.642 21.1681L145.288 1.10367H151.521V25.7457H142.542L136.224 5.02969L136.578 25.7457H130.378V1.10367H139.712L145.642 21.1681ZM32.5651 2.90797L29.0778 26.013H22.2717L26.9046 1.10367H38.1078L42.7238 26.013H35.9682L32.5651 2.90797ZM69.2915 2.90797L64.9281 26.013H58.56L54.2472 2.90797L54.0787 26.013H47.7948L48.317 1.10367H58.56L61.744 20.5667L64.9281 1.10367H75.171L75.7438 26.013H69.4599L69.2915 2.90797ZM114.559 22.2875C116.311 22.2875 116.867 21.0679 116.951 20.4665C117.002 20.1992 117.002 19.8149 117.002 19.5142V1.05355H123.37V18.9629C123.37 19.4307 123.32 20.3495 123.32 20.6001C122.882 25.2779 119.175 26.7815 114.559 26.7815C109.943 26.7815 106.237 25.2612 105.799 20.6001C105.748 20.3328 105.715 19.4307 105.748 18.9629V1.05355H112.116V19.5142C112.116 19.8149 112.116 20.1992 112.167 20.4665C112.302 21.118 112.824 22.2875 114.559 22.2875ZM167.071 22.0369C168.907 22.0369 169.514 20.8674 169.649 20.2159C169.699 19.9151 169.733 19.5643 169.699 19.2636V15.6383H167.122V11.9963H176.017V18.6956C176.017 19.1634 176.017 19.5142 175.933 20.3328C175.495 24.877 171.536 26.4808 167.088 26.4808C162.64 26.4808 158.664 24.877 158.243 20.3328C158.159 19.5142 158.159 19.1634 158.159 18.6956V8.18721C158.159 7.75284 158.21 6.96764 158.243 6.54997C158.816 1.87217 162.607 0.401997 167.088 0.401997C171.569 0.401997 175.461 1.87217 175.899 6.54997C175.983 7.33518 175.949 8.18721 175.949 8.18721V9.00583H169.581V7.61919C169.581 7.61919 169.581 7.01776 169.497 6.66692C169.362 6.0989 168.891 4.84592 166.97 4.84592C165.049 4.84592 164.611 6.06549 164.477 6.66692C164.392 7.01776 164.392 7.45212 164.392 7.83637V19.2469C164.392 19.5476 164.392 19.8984 164.443 20.1992C164.611 20.8841 165.268 22.0202 167.105 22.0202L167.071 22.0369Z" fill="white"/>
</svg>
