<svg width="521" height="244" viewBox="0 0 521 244" fill="none" xmlns="http://www.w3.org/2000/svg">
<path d="M33.616 73.92C28.8933 73.92 24.5387 73.1227 20.552 71.528C16.6267 69.872 13.192 67.572 10.248 64.628C7.36533 61.6227 5.12667 58.096 3.532 54.048C1.93733 49.9387 1.14 45.4613 1.14 40.616C1.14 35.8933 1.968 31.5387 3.624 27.552C5.28 23.504 7.61067 20.008 10.616 17.064C13.6213 14.0587 17.148 11.728 21.196 10.072C25.244 8.416 29.6293 7.588 34.352 7.588C37.4187 7.588 40.424 8.01733 43.368 8.876C46.3733 9.67333 49.1027 10.8693 51.556 12.464C54.0707 14.0587 56.2173 15.96 57.996 18.168L49.348 27.736C47.876 26.264 46.3427 25.0067 44.748 23.964C43.2147 22.86 41.5587 22.032 39.78 21.48C38.0627 20.8667 36.2227 20.56 34.26 20.56C31.6227 20.56 29.1387 21.0507 26.808 22.032C24.5387 23.0133 22.5453 24.3933 20.828 26.172C19.1107 27.8893 17.7307 30.0053 16.688 32.52C15.7067 34.9733 15.216 37.7027 15.216 40.708C15.216 43.7747 15.7067 46.5653 16.688 49.08C17.6693 51.5333 19.0493 53.6493 20.828 55.428C22.6067 57.1453 24.7227 58.4947 27.176 59.476C29.6907 60.396 32.4507 60.856 35.456 60.856C37.4187 60.856 39.32 60.58 41.16 60.028C43 59.476 44.6867 58.7093 46.22 57.728C47.8147 56.7467 49.2253 55.612 50.452 54.324L57.168 65.088C55.696 66.744 53.7027 68.2467 51.188 69.596C48.7347 70.9453 45.9747 72.0187 42.908 72.816C39.8413 73.552 36.744 73.92 33.616 73.92ZM66.9617 73V24.332H79.5657L80.0257 39.972L77.8177 36.752C78.5537 34.2373 79.7497 31.968 81.4057 29.944C83.0617 27.8587 84.9937 26.2333 87.2017 25.068C89.471 23.9027 91.8324 23.32 94.2857 23.32C95.3284 23.32 96.3404 23.412 97.3217 23.596C98.303 23.78 99.131 23.9947 99.8057 24.24L96.3097 38.592C95.5737 38.224 94.6844 37.9173 93.6417 37.672C92.599 37.3653 91.5257 37.212 90.4217 37.212C88.9497 37.212 87.5697 37.488 86.2817 38.04C85.055 38.5307 83.9817 39.2667 83.0617 40.248C82.1417 41.168 81.4057 42.272 80.8537 43.56C80.363 44.848 80.1177 46.2587 80.1177 47.792V73H66.9617ZM128.327 73.92C123.052 73.92 118.452 72.8467 114.527 70.7C110.602 68.5533 107.535 65.6093 105.327 61.868C103.119 58.1267 102.015 53.8333 102.015 48.988C102.015 45.2467 102.628 41.812 103.855 38.684C105.082 35.556 106.799 32.8573 109.007 30.588C111.215 28.2573 113.822 26.4787 116.827 25.252C119.894 23.964 123.206 23.32 126.763 23.32C130.075 23.32 133.142 23.9333 135.963 25.16C138.784 26.3253 141.207 28.012 143.231 30.22C145.316 32.3667 146.911 34.912 148.015 37.856C149.119 40.8 149.61 44.02 149.487 47.516L149.395 51.564H110.295L108.179 43.56H138.631L137.159 45.216V43.192C137.036 41.536 136.484 40.0333 135.503 38.684C134.583 37.3347 133.387 36.292 131.915 35.556C130.443 34.82 128.787 34.452 126.947 34.452C124.248 34.452 121.948 34.9733 120.047 36.016C118.207 37.0587 116.796 38.592 115.815 40.616C114.834 42.64 114.343 45.0933 114.343 47.976C114.343 50.92 114.956 53.4653 116.183 55.612C117.471 57.7587 119.25 59.4453 121.519 60.672C123.85 61.8373 126.579 62.42 129.707 62.42C131.854 62.42 133.816 62.0827 135.595 61.408C137.374 60.7333 139.275 59.568 141.299 57.912L147.555 66.652C145.776 68.2467 143.814 69.596 141.667 70.7C139.52 71.7427 137.312 72.54 135.043 73.092C132.774 73.644 130.535 73.92 128.327 73.92ZM177.357 73.92C173.309 73.92 169.66 72.816 166.409 70.608C163.159 68.4 160.583 65.3947 158.681 61.592C156.78 57.7893 155.829 53.4347 155.829 48.528C155.829 43.6213 156.78 39.2973 158.681 35.556C160.644 31.7533 163.281 28.7787 166.593 26.632C169.905 24.424 173.677 23.32 177.909 23.32C180.301 23.32 182.479 23.688 184.441 24.424C186.465 25.0987 188.213 26.0493 189.685 27.276C191.219 28.5027 192.507 29.9133 193.549 31.508C194.592 33.1027 195.328 34.82 195.757 36.66L192.997 36.2V24.332H205.969V73H192.813V61.316L195.757 61.04C195.267 62.7573 194.469 64.3827 193.365 65.916C192.261 67.4493 190.881 68.8293 189.225 70.056C187.631 71.2213 185.821 72.172 183.797 72.908C181.773 73.5827 179.627 73.92 177.357 73.92ZM180.945 62.604C183.399 62.604 185.545 62.0213 187.385 60.856C189.225 59.6907 190.636 58.0653 191.617 55.98C192.66 53.8333 193.181 51.3493 193.181 48.528C193.181 45.768 192.66 43.3453 191.617 41.26C190.636 39.1747 189.225 37.5493 187.385 36.384C185.545 35.1573 183.399 34.544 180.945 34.544C178.553 34.544 176.437 35.1573 174.597 36.384C172.819 37.5493 171.408 39.1747 170.365 41.26C169.323 43.3453 168.801 45.768 168.801 48.528C168.801 51.3493 169.323 53.8333 170.365 55.98C171.408 58.0653 172.819 59.6907 174.597 60.856C176.437 62.0213 178.553 62.604 180.945 62.604ZM223.759 73V12.004H236.823V73H223.759ZM214.651 36.016V24.332H246.759V36.016H214.651ZM256.378 73V24.332H269.442V73H256.378ZM262.818 14.304C260.304 14.304 258.341 13.6907 256.93 12.464C255.52 11.2373 254.814 9.48933 254.814 7.22C254.814 5.13466 255.52 3.448 256.93 2.16C258.402 0.810662 260.365 0.135995 262.818 0.135995C265.333 0.135995 267.296 0.779996 268.706 2.068C270.117 3.29466 270.822 5.012 270.822 7.22C270.822 9.36667 270.086 11.084 268.614 12.372C267.204 13.66 265.272 14.304 262.818 14.304ZM298.667 73L278.243 24.332H292.595L305.567 60.672L302.531 61.224L316.147 24.332H330.131L308.695 73H298.667ZM359.854 73.92C354.58 73.92 349.98 72.8467 346.054 70.7C342.129 68.5533 339.062 65.6093 336.854 61.868C334.646 58.1267 333.542 53.8333 333.542 48.988C333.542 45.2467 334.156 41.812 335.382 38.684C336.609 35.556 338.326 32.8573 340.534 30.588C342.742 28.2573 345.349 26.4787 348.354 25.252C351.421 23.964 354.733 23.32 358.29 23.32C361.602 23.32 364.669 23.9333 367.49 25.16C370.312 26.3253 372.734 28.012 374.758 30.22C376.844 32.3667 378.438 34.912 379.542 37.856C380.646 40.8 381.137 44.02 381.014 47.516L380.922 51.564H341.822L339.706 43.56H370.158L368.686 45.216V43.192C368.564 41.536 368.012 40.0333 367.03 38.684C366.11 37.3347 364.914 36.292 363.442 35.556C361.97 34.82 360.314 34.452 358.474 34.452C355.776 34.452 353.476 34.9733 351.574 36.016C349.734 37.0587 348.324 38.592 347.342 40.616C346.361 42.64 345.87 45.0933 345.87 47.976C345.87 50.92 346.484 53.4653 347.71 55.612C348.998 57.7587 350.777 59.4453 353.046 60.672C355.377 61.8373 358.106 62.42 361.234 62.42C363.381 62.42 365.344 62.0827 367.122 61.408C368.901 60.7333 370.802 59.568 372.826 57.912L379.082 66.652C377.304 68.2467 375.341 69.596 373.194 70.7C371.048 71.7427 368.84 72.54 366.57 73.092C364.301 73.644 362.062 73.92 359.854 73.92ZM395.545 74.012C393.153 74.012 391.313 73.3373 390.025 71.988C388.737 70.6387 388.093 68.7067 388.093 66.192C388.093 63.9227 388.767 62.0827 390.117 60.672C391.527 59.2 393.337 58.464 395.545 58.464C397.875 58.464 399.685 59.1387 400.973 60.488C402.261 61.8373 402.905 63.7387 402.905 66.192C402.905 68.5227 402.23 70.424 400.881 71.896C399.531 73.3067 397.753 74.012 395.545 74.012ZM18.804 157V105.02H0.036V92.6H51.924V105.02H32.604V157H18.804ZM75.4092 157.92C70.1345 157.92 65.5345 156.847 61.6092 154.7C57.6838 152.553 54.6172 149.609 52.4092 145.868C50.2012 142.127 49.0972 137.833 49.0972 132.988C49.0972 129.247 49.7105 125.812 50.9372 122.684C52.1638 119.556 53.8812 116.857 56.0892 114.588C58.2972 112.257 60.9038 110.479 63.9092 109.252C66.9758 107.964 70.2878 107.32 73.8452 107.32C77.1572 107.32 80.2238 107.933 83.0452 109.16C85.8665 110.325 88.2892 112.012 90.3132 114.22C92.3985 116.367 93.9932 118.912 95.0972 121.856C96.2012 124.8 96.6918 128.02 96.5692 131.516L96.4772 135.564H57.3772L55.2612 127.56H85.7132L84.2412 129.216V127.192C84.1185 125.536 83.5665 124.033 82.5852 122.684C81.6652 121.335 80.4692 120.292 78.9972 119.556C77.5252 118.82 75.8692 118.452 74.0292 118.452C71.3305 118.452 69.0305 118.973 67.1292 120.016C65.2892 121.059 63.8785 122.592 62.8972 124.616C61.9158 126.64 61.4252 129.093 61.4252 131.976C61.4252 134.92 62.0385 137.465 63.2652 139.612C64.5532 141.759 66.3318 143.445 68.6012 144.672C70.9318 145.837 73.6612 146.42 76.7892 146.42C78.9358 146.42 80.8985 146.083 82.6772 145.408C84.4558 144.733 86.3572 143.568 88.3812 141.912L94.6372 150.652C92.8585 152.247 90.8958 153.596 88.7492 154.7C86.6025 155.743 84.3945 156.54 82.1252 157.092C79.8558 157.644 77.6172 157.92 75.4092 157.92ZM127.383 157.92C122.722 157.92 118.551 156.816 114.871 154.608C111.191 152.4 108.278 149.395 106.131 145.592C104.046 141.789 103.003 137.465 103.003 132.62C103.003 127.836 104.046 123.543 106.131 119.74C108.278 115.876 111.191 112.84 114.871 110.632C118.551 108.424 122.722 107.32 127.383 107.32C131.738 107.32 135.725 108.117 139.343 109.712C142.962 111.307 145.783 113.515 147.807 116.336L140.631 124.984C139.773 123.819 138.699 122.776 137.411 121.856C136.123 120.875 134.713 120.108 133.179 119.556C131.707 119.004 130.174 118.728 128.579 118.728C126.065 118.728 123.826 119.341 121.863 120.568C119.962 121.733 118.459 123.359 117.355 125.444C116.251 127.529 115.699 129.921 115.699 132.62C115.699 135.257 116.251 137.619 117.355 139.704C118.521 141.728 120.085 143.384 122.047 144.672C124.01 145.899 126.218 146.512 128.671 146.512C130.266 146.512 131.769 146.297 133.179 145.868C134.59 145.377 135.909 144.672 137.135 143.752C138.423 142.832 139.589 141.728 140.631 140.44L147.715 149.088C145.63 151.725 142.747 153.872 139.067 155.528C135.387 157.123 131.493 157.92 127.383 157.92ZM156.087 157V88.92H168.967V118.268L166.391 119.372C167.065 117.164 168.261 115.171 169.979 113.392C171.757 111.552 173.873 110.08 176.327 108.976C178.78 107.872 181.356 107.32 184.055 107.32C187.735 107.32 190.801 108.056 193.255 109.528C195.769 111 197.64 113.239 198.867 116.244C200.155 119.188 200.799 122.837 200.799 127.192V157H187.735V128.204C187.735 125.996 187.428 124.156 186.815 122.684C186.201 121.212 185.251 120.139 183.963 119.464C182.736 118.728 181.203 118.421 179.363 118.544C177.891 118.544 176.511 118.789 175.223 119.28C173.996 119.709 172.923 120.353 172.003 121.212C171.144 122.071 170.439 123.052 169.887 124.156C169.396 125.26 169.151 126.456 169.151 127.744V157H162.711C161.3 157 160.043 157 158.939 157C157.835 157 156.884 157 156.087 157ZM213.317 157V108.332H225.829L226.197 118.268L223.621 119.372C224.296 117.164 225.492 115.171 227.209 113.392C228.988 111.552 231.104 110.08 233.557 108.976C236.01 107.872 238.586 107.32 241.285 107.32C244.965 107.32 248.032 108.056 250.485 109.528C253 111 254.87 113.239 256.097 116.244C257.385 119.188 258.029 122.837 258.029 127.192V157H244.965V128.204C244.965 125.996 244.658 124.156 244.045 122.684C243.432 121.212 242.481 120.139 241.193 119.464C239.966 118.728 238.433 118.421 236.593 118.544C235.121 118.544 233.741 118.789 232.453 119.28C231.226 119.709 230.153 120.353 229.233 121.212C228.374 122.071 227.669 123.052 227.117 124.156C226.626 125.26 226.381 126.456 226.381 127.744V157H219.941C218.53 157 217.273 157 216.169 157C215.065 157 214.114 157 213.317 157ZM271.652 157V108.332H284.716V157H271.652ZM278.092 98.304C275.577 98.304 273.614 97.6907 272.204 96.464C270.793 95.2373 270.088 93.4893 270.088 91.22C270.088 89.1347 270.793 87.448 272.204 86.16C273.676 84.8107 275.638 84.136 278.092 84.136C280.606 84.136 282.569 84.78 283.98 86.068C285.39 87.2947 286.096 89.012 286.096 91.22C286.096 93.3667 285.36 95.084 283.888 96.372C282.477 97.66 280.545 98.304 278.092 98.304ZM319.829 157.92C315.167 157.92 310.997 156.816 307.317 154.608C303.637 152.4 300.723 149.395 298.577 145.592C296.491 141.789 295.449 137.465 295.449 132.62C295.449 127.836 296.491 123.543 298.577 119.74C300.723 115.876 303.637 112.84 307.317 110.632C310.997 108.424 315.167 107.32 319.829 107.32C324.183 107.32 328.17 108.117 331.789 109.712C335.407 111.307 338.229 113.515 340.253 116.336L333.077 124.984C332.218 123.819 331.145 122.776 329.857 121.856C328.569 120.875 327.158 120.108 325.625 119.556C324.153 119.004 322.619 118.728 321.025 118.728C318.51 118.728 316.271 119.341 314.309 120.568C312.407 121.733 310.905 123.359 309.801 125.444C308.697 127.529 308.145 129.921 308.145 132.62C308.145 135.257 308.697 137.619 309.801 139.704C310.966 141.728 312.53 143.384 314.493 144.672C316.455 145.899 318.663 146.512 321.117 146.512C322.711 146.512 324.214 146.297 325.625 145.868C327.035 145.377 328.354 144.672 329.581 143.752C330.869 142.832 332.034 141.728 333.077 140.44L340.161 149.088C338.075 151.725 335.193 153.872 331.513 155.528C327.833 157.123 323.938 157.92 319.829 157.92ZM366.748 157.92C362.7 157.92 359.051 156.816 355.8 154.608C352.549 152.4 349.973 149.395 348.072 145.592C346.171 141.789 345.22 137.435 345.22 132.528C345.22 127.621 346.171 123.297 348.072 119.556C350.035 115.753 352.672 112.779 355.984 110.632C359.296 108.424 363.068 107.32 367.3 107.32C369.692 107.32 371.869 107.688 373.832 108.424C375.856 109.099 377.604 110.049 379.076 111.276C380.609 112.503 381.897 113.913 382.94 115.508C383.983 117.103 384.719 118.82 385.148 120.66L382.388 120.2V108.332H395.36V157H382.204V145.316L385.148 145.04C384.657 146.757 383.86 148.383 382.756 149.916C381.652 151.449 380.272 152.829 378.616 154.056C377.021 155.221 375.212 156.172 373.188 156.908C371.164 157.583 369.017 157.92 366.748 157.92ZM370.336 146.604C372.789 146.604 374.936 146.021 376.776 144.856C378.616 143.691 380.027 142.065 381.008 139.98C382.051 137.833 382.572 135.349 382.572 132.528C382.572 129.768 382.051 127.345 381.008 125.26C380.027 123.175 378.616 121.549 376.776 120.384C374.936 119.157 372.789 118.544 370.336 118.544C367.944 118.544 365.828 119.157 363.988 120.384C362.209 121.549 360.799 123.175 359.756 125.26C358.713 127.345 358.192 129.768 358.192 132.528C358.192 135.349 358.713 137.833 359.756 139.98C360.799 142.065 362.209 143.691 363.988 144.856C365.828 146.021 367.944 146.604 370.336 146.604ZM408.55 157V88.92H421.614V157H408.55ZM439.748 158.012C437.356 158.012 435.516 157.337 434.228 155.988C432.94 154.639 432.296 152.707 432.296 150.192C432.296 147.923 432.971 146.083 434.32 144.672C435.731 143.2 437.54 142.464 439.748 142.464C442.079 142.464 443.888 143.139 445.176 144.488C446.464 145.837 447.108 147.739 447.108 150.192C447.108 152.523 446.433 154.424 445.084 155.896C443.735 157.307 441.956 158.012 439.748 158.012ZM5.372 242V177.6H32.696C36.4987 177.6 39.9333 178.52 43 180.36C46.128 182.139 48.5813 184.592 50.36 187.72C52.2 190.848 53.12 194.375 53.12 198.3C53.12 202.287 52.2 205.875 50.36 209.064C48.5813 212.253 46.128 214.799 43 216.7C39.9333 218.54 36.4987 219.46 32.696 219.46H19.172V242H5.372ZM18.988 207.04H31.132C32.604 207.04 33.9227 206.672 35.088 205.936C36.2533 205.139 37.1733 204.096 37.848 202.808C38.584 201.52 38.952 200.048 38.952 198.392C38.952 196.736 38.584 195.295 37.848 194.068C37.1733 192.78 36.2533 191.799 35.088 191.124C33.9227 190.388 32.604 190.02 31.132 190.02H18.988V207.04ZM63.6375 242V193.332H76.2415L76.7015 208.972L74.4935 205.752C75.2295 203.237 76.4255 200.968 78.0815 198.944C79.7375 196.859 81.6695 195.233 83.8775 194.068C86.1468 192.903 88.5081 192.32 90.9615 192.32C92.0041 192.32 93.0161 192.412 93.9975 192.596C94.9788 192.78 95.8068 192.995 96.4815 193.24L92.9855 207.592C92.2495 207.224 91.3601 206.917 90.3175 206.672C89.2748 206.365 88.2015 206.212 87.0975 206.212C85.6255 206.212 84.2455 206.488 82.9575 207.04C81.7308 207.531 80.6575 208.267 79.7375 209.248C78.8175 210.168 78.0815 211.272 77.5295 212.56C77.0388 213.848 76.7935 215.259 76.7935 216.792V242H63.6375ZM124.543 242.92C119.575 242.92 115.128 241.847 111.203 239.7C107.339 237.492 104.272 234.487 102.003 230.684C99.7949 226.881 98.6909 222.527 98.6909 217.62C98.6909 212.713 99.7949 208.389 102.003 204.648C104.272 200.845 107.339 197.84 111.203 195.632C115.128 193.424 119.575 192.32 124.543 192.32C129.45 192.32 133.835 193.424 137.699 195.632C141.624 197.84 144.691 200.845 146.899 204.648C149.107 208.389 150.211 212.713 150.211 217.62C150.211 222.527 149.107 226.881 146.899 230.684C144.691 234.487 141.624 237.492 137.699 239.7C133.835 241.847 129.45 242.92 124.543 242.92ZM124.543 231.512C126.935 231.512 129.082 230.929 130.983 229.764C132.884 228.537 134.356 226.881 135.399 224.796C136.503 222.649 137.055 220.257 137.055 217.62C137.055 214.921 136.503 212.529 135.399 210.444C134.356 208.297 132.884 206.641 130.983 205.476C129.082 204.249 126.935 203.636 124.543 203.636C122.09 203.636 119.912 204.249 118.011 205.476C116.11 206.703 114.607 208.359 113.503 210.444C112.399 212.529 111.878 214.921 111.939 217.62C111.878 220.257 112.399 222.649 113.503 224.796C114.607 226.881 116.11 228.537 118.011 229.764C119.912 230.929 122.09 231.512 124.543 231.512ZM179.084 242.92C174.852 242.92 171.049 241.847 167.676 239.7C164.302 237.492 161.634 234.517 159.672 230.776C157.77 226.973 156.82 222.588 156.82 217.62C156.82 212.775 157.77 208.451 159.672 204.648C161.634 200.845 164.272 197.84 167.584 195.632C170.957 193.424 174.79 192.32 179.084 192.32C181.353 192.32 183.53 192.688 185.616 193.424C187.762 194.099 189.664 195.049 191.32 196.276C193.037 197.503 194.417 198.883 195.46 200.416C196.502 201.888 197.085 203.452 197.208 205.108L193.896 205.66V173.92H206.96V242H194.632L194.08 230.776L196.656 231.052C196.533 232.585 195.981 234.057 195 235.468C194.018 236.879 192.7 238.167 191.044 239.332C189.449 240.436 187.609 241.325 185.524 242C183.5 242.613 181.353 242.92 179.084 242.92ZM182.028 232.064C184.481 232.064 186.628 231.451 188.468 230.224C190.308 228.997 191.749 227.311 192.792 225.164C193.834 223.017 194.356 220.503 194.356 217.62C194.356 214.799 193.834 212.315 192.792 210.168C191.749 207.96 190.308 206.273 188.468 205.108C186.628 203.881 184.481 203.268 182.028 203.268C179.574 203.268 177.428 203.881 175.588 205.108C173.809 206.273 172.398 207.96 171.356 210.168C170.374 212.315 169.884 214.799 169.884 217.62C169.884 220.503 170.374 223.017 171.356 225.164C172.398 227.311 173.809 228.997 175.588 230.224C177.428 231.451 179.574 232.064 182.028 232.064ZM237.878 242.92C234.32 242.92 231.254 242.153 228.678 240.62C226.163 239.025 224.2 236.787 222.79 233.904C221.44 230.96 220.766 227.433 220.766 223.324V193.332H233.83V221.208C233.83 223.416 234.198 225.348 234.934 227.004C235.67 228.599 236.712 229.825 238.062 230.684C239.411 231.543 241.067 231.972 243.03 231.972C244.44 231.972 245.759 231.757 246.986 231.328C248.212 230.837 249.255 230.163 250.114 229.304C250.972 228.445 251.647 227.433 252.138 226.268C252.628 225.103 252.874 223.845 252.874 222.496V193.332H265.938V242H253.518L253.058 231.972L255.45 230.868C254.714 233.137 253.487 235.192 251.77 237.032C250.052 238.872 247.998 240.313 245.606 241.356C243.214 242.399 240.638 242.92 237.878 242.92ZM300.243 242.92C295.581 242.92 291.411 241.816 287.731 239.608C284.051 237.4 281.137 234.395 278.991 230.592C276.905 226.789 275.863 222.465 275.863 217.62C275.863 212.836 276.905 208.543 278.991 204.74C281.137 200.876 284.051 197.84 287.731 195.632C291.411 193.424 295.581 192.32 300.243 192.32C304.597 192.32 308.584 193.117 312.203 194.712C315.821 196.307 318.643 198.515 320.667 201.336L313.491 209.984C312.632 208.819 311.559 207.776 310.271 206.856C308.983 205.875 307.572 205.108 306.039 204.556C304.567 204.004 303.033 203.728 301.439 203.728C298.924 203.728 296.685 204.341 294.723 205.568C292.821 206.733 291.319 208.359 290.215 210.444C289.111 212.529 288.559 214.921 288.559 217.62C288.559 220.257 289.111 222.619 290.215 224.704C291.38 226.728 292.944 228.384 294.907 229.672C296.869 230.899 299.077 231.512 301.531 231.512C303.125 231.512 304.628 231.297 306.039 230.868C307.449 230.377 308.768 229.672 309.995 228.752C311.283 227.832 312.448 226.728 313.491 225.44L320.575 234.088C318.489 236.725 315.607 238.872 311.927 240.528C308.247 242.123 304.352 242.92 300.243 242.92ZM333.638 242V181.004H346.702V242H333.638ZM324.53 205.016V193.332H356.638V205.016H324.53ZM366.257 242V193.332H379.321V242H366.257ZM372.697 183.304C370.182 183.304 368.22 182.691 366.809 181.464C365.398 180.237 364.693 178.489 364.693 176.22C364.693 174.135 365.398 172.448 366.809 171.16C368.281 169.811 370.244 169.136 372.697 169.136C375.212 169.136 377.174 169.78 378.585 171.068C379.996 172.295 380.701 174.012 380.701 176.22C380.701 178.367 379.965 180.084 378.493 181.372C377.082 182.66 375.15 183.304 372.697 183.304ZM415.906 242.92C410.938 242.92 406.492 241.847 402.566 239.7C398.702 237.492 395.636 234.487 393.366 230.684C391.158 226.881 390.054 222.527 390.054 217.62C390.054 212.713 391.158 208.389 393.366 204.648C395.636 200.845 398.702 197.84 402.566 195.632C406.492 193.424 410.938 192.32 415.906 192.32C420.813 192.32 425.198 193.424 429.062 195.632C432.988 197.84 436.054 200.845 438.262 204.648C440.47 208.389 441.574 212.713 441.574 217.62C441.574 222.527 440.47 226.881 438.262 230.684C436.054 234.487 432.988 237.492 429.062 239.7C425.198 241.847 420.813 242.92 415.906 242.92ZM415.906 231.512C418.298 231.512 420.445 230.929 422.346 229.764C424.248 228.537 425.72 226.881 426.762 224.796C427.866 222.649 428.418 220.257 428.418 217.62C428.418 214.921 427.866 212.529 426.762 210.444C425.72 208.297 424.248 206.641 422.346 205.476C420.445 204.249 418.298 203.636 415.906 203.636C413.453 203.636 411.276 204.249 409.374 205.476C407.473 206.703 405.97 208.359 404.866 210.444C403.762 212.529 403.241 214.921 403.302 217.62C403.241 220.257 403.762 222.649 404.866 224.796C405.97 226.881 407.473 228.537 409.374 229.764C411.276 230.929 413.453 231.512 415.906 231.512ZM451.403 242V193.332H463.915L464.283 203.268L461.707 204.372C462.382 202.164 463.578 200.171 465.295 198.392C467.074 196.552 469.19 195.08 471.643 193.976C474.096 192.872 476.672 192.32 479.371 192.32C483.051 192.32 486.118 193.056 488.571 194.528C491.086 196 492.956 198.239 494.183 201.244C495.471 204.188 496.115 207.837 496.115 212.192V242H483.051V213.204C483.051 210.996 482.744 209.156 482.131 207.684C481.518 206.212 480.567 205.139 479.279 204.464C478.052 203.728 476.519 203.421 474.679 203.544C473.207 203.544 471.827 203.789 470.539 204.28C469.312 204.709 468.239 205.353 467.319 206.212C466.46 207.071 465.755 208.052 465.203 209.156C464.712 210.26 464.467 211.456 464.467 212.744V242H458.027C456.616 242 455.359 242 454.255 242C453.151 242 452.2 242 451.403 242ZM513.51 243.012C511.118 243.012 509.278 242.337 507.99 240.988C506.702 239.639 506.058 237.707 506.058 235.192C506.058 232.923 506.732 231.083 508.082 229.672C509.492 228.2 511.302 227.464 513.51 227.464C515.84 227.464 517.65 228.139 518.938 229.488C520.226 230.837 520.87 232.739 520.87 235.192C520.87 237.523 520.195 239.424 518.846 240.896C517.496 242.307 515.718 243.012 513.51 243.012Z" fill="white"/>
</svg>
