<svg width="701" height="152" viewBox="0 0 701 152" fill="none" xmlns="http://www.w3.org/2000/svg">
<path d="M79.8027 82.1787V16.2905H91.4601V82.1787H79.8027Z" fill="white"/>
<path d="M185.608 82.1787L158.244 34.862V82.1787H147.376V16.2905H159.231L186.689 63.2126V16.2905H197.557V82.1787H185.608V82.1787Z" fill="white"/>
<path d="M294.968 34.7199C294.968 26.9141 289.538 26.0301 279.561 26.0301C266.42 26.0301 265.142 28.5005 265.142 35.4145C265.142 41.5392 267.904 42.3285 272.553 42.7231C287.075 43.907 307.225 39.6608 307.122 61.5867C307.028 76.4013 297.841 82.9206 279.956 82.9206C264.053 82.9206 253.484 78.9664 253.484 63.7572H265.142C265.142 70.3791 268.299 72.447 280.153 72.447C292.892 72.447 295.465 69.2899 295.465 62.076C295.465 55.6514 292.505 54.7674 287.564 54.3728C273.042 53.2836 253.484 57.3325 253.484 35.6039C253.484 20.2921 262.371 15.5486 279.759 15.5486C295.662 15.5486 306.428 19.5975 306.428 34.712H294.968V34.7199Z" fill="white"/>
<path d="M363.04 82.1787V16.2905H408.383V26.6615H374.5V43.3546H407.396V53.6309H374.5V71.7051H408.383V82.1787H363.04V82.1787Z" fill="white"/>
<path d="M504.414 82.1788L493.348 65.3831C486.924 55.6988 486.924 55.6988 479.221 55.6988H475.961V82.1709H464.304V16.2827H487.421C502.338 16.2827 514.587 16.9772 514.587 35.5408C514.587 43.4414 512.022 53.4178 499.67 54.799L518.241 82.163H504.414V82.1788ZM490.578 45.2409C499.465 45.2409 503.119 45.2409 503.119 36.0538C503.119 26.6694 499.165 26.6694 489.292 26.6694H475.953V45.2409H490.578Z" fill="white"/>
<path d="M605.872 26.6694V82.1866H594.215V26.6694H574.16V16.2984H625.92V26.6694H605.872Z" fill="white"/>
<path d="M0 98.4772V0H25.3825V9.88165H10.8602V88.6113H25.3825V98.4929H0V98.4772Z" fill="white"/>
<path d="M674.618 98.4772V88.5955H689.141V9.86587H674.618V0H700.001V98.485H674.618V98.4772Z" fill="white"/>
<path d="M9.2343 125.06C15.1143 125.06 20.0866 125.297 20.0866 132.913C20.0866 140.49 15.1932 140.885 9.2343 140.885H4.65662V151.382H0V125.06H9.2343V125.06ZM9.15538 136.701C9.51054 136.701 9.90517 136.701 10.3787 136.701C11.6021 136.701 13.0227 136.662 13.7725 136.346C14.4829 136.031 15.43 135.281 15.43 132.992C15.43 130.703 14.4829 129.874 13.7725 129.559C12.9833 129.243 11.7599 129.203 10.655 129.203C10.1025 129.203 9.58947 129.203 9.15538 129.203H4.65662V136.701H9.15538V136.701Z" fill="white"/>
<path d="M84.7133 151.39L80.2935 144.681C77.7284 140.814 77.7284 140.814 74.6503 140.814H73.348V151.39H68.6914V125.068H77.9257C83.8846 125.068 88.778 125.344 88.778 132.763C88.778 135.92 87.752 139.906 82.8191 140.458L90.2381 151.39H84.7133V151.39ZM79.1885 136.623C82.7402 136.623 84.2003 136.623 84.2003 132.952C84.2003 129.203 82.6218 129.203 78.6755 129.203H73.348V136.623H79.1885Z" fill="white"/>
<path d="M149.698 151.705C138.964 151.705 138.846 145.904 138.846 138.209C138.846 130.514 138.925 124.791 149.659 124.791C160.392 124.791 160.511 130.435 160.511 138.17C160.511 146.496 159.998 151.705 149.698 151.705ZM149.659 129.006C144.292 129.006 143.502 130.664 143.502 138.241C143.502 145.818 144.292 147.436 149.659 147.436C155.025 147.436 155.854 145.778 155.854 138.201C155.854 130.624 155.025 129.006 149.659 129.006Z" fill="white"/>
<path d="M218.869 125.06C223.763 125.06 226.604 125.849 228.498 128.651C229.88 130.703 230.235 133.071 230.235 138.241C230.235 143.41 229.919 145.778 228.538 147.83C226.644 150.632 223.802 151.382 218.909 151.382H209.122V125.06H218.869V125.06ZM218.672 147.207C223.96 147.207 225.578 146.93 225.578 138.248C225.578 129.566 223.921 129.211 218.633 129.211H213.7V147.207H218.672Z" fill="white"/>
<path d="M298.884 138.162C298.884 140.806 298.884 142.463 298.805 143.686C298.489 149.369 294.898 151.698 288.86 151.698C282.823 151.698 279.232 149.369 278.916 143.686C278.837 142.463 278.837 140.806 278.837 138.162V125.06H283.494V138.162C283.494 138.911 283.494 139.622 283.494 140.253C283.494 145.502 283.77 147.436 288.86 147.436C293.872 147.436 294.227 145.66 294.227 140.924C294.227 140.095 294.227 139.188 294.227 138.162V125.06H298.884V138.162V138.162Z" fill="white"/>
<path d="M363.913 132.439C363.913 129.795 362.808 129.006 358.269 129.006C352.981 129.006 352.153 130.703 352.153 138.241C352.153 145.778 352.942 147.436 358.23 147.436C362.768 147.436 363.873 146.686 363.873 144.042H368.451C368.451 150.001 364.583 151.698 358.585 151.698C347.575 151.698 347.496 145.739 347.496 138.201C347.496 130.664 347.614 124.784 358.625 124.784C364.623 124.784 368.49 126.48 368.49 132.439H363.913V132.439Z" fill="white"/>
<path d="M429.756 129.203V151.382H425.1V129.203H417.089V125.06H437.767V129.203H429.756V129.203Z" fill="white"/>
<path d="M486.379 151.39V125.068H491.036V151.39H486.379Z" fill="white"/>
<path d="M550.501 151.705C539.767 151.705 539.648 145.904 539.648 138.209C539.648 130.514 539.727 124.791 550.461 124.791C561.195 124.791 561.314 130.435 561.314 138.17C561.314 146.496 560.801 151.705 550.501 151.705ZM550.461 129.006C545.094 129.006 544.305 130.664 544.305 138.241C544.305 145.818 545.094 147.436 550.461 147.436C555.828 147.436 556.657 145.778 556.657 138.201C556.657 130.624 555.828 129.006 550.461 129.006Z" fill="white"/>
<path d="M625.186 151.39L614.255 132.487V151.39H609.914V125.068H614.65L625.62 143.813V125.068H629.961V151.39H625.186V151.39Z" fill="white"/>
<path d="M695.148 132.439C695.148 129.322 692.977 128.967 688.991 128.967C683.743 128.967 683.23 129.953 683.23 132.716C683.23 135.162 684.335 135.478 686.19 135.636C691.991 136.11 700.041 134.413 700.002 143.173C699.962 149.093 696.292 151.698 689.149 151.698C682.796 151.698 678.573 150.119 678.573 144.042H683.23C683.23 146.686 684.493 147.514 689.228 147.514C694.319 147.514 695.345 146.252 695.345 143.371C695.345 140.806 694.161 140.45 692.188 140.293C686.387 139.859 678.573 141.477 678.573 132.795C678.573 126.678 682.125 124.784 689.07 124.784C695.424 124.784 699.725 126.402 699.725 132.439H695.148Z" fill="white"/>
</svg>
