<svg width="110" height="74" viewBox="0 0 110 74" fill="none" xmlns="http://www.w3.org/2000/svg">
<path d="M71.9961 48.6129L49.3779 9.7819L65.6271 0.561523L93.753 48.6129H71.9972" fill="white"/>
<path d="M11.751 43.1729L28.0002 33.8906L36.5978 48.6139H14.9047L11.7521 43.1729" fill="white"/>
<path d="M43.6387 73.3862H48.2631V54.9053H43.6387V73.3862Z" fill="white"/>
<path d="M101.593 73.8225C96.4217 73.8225 93.3109 71.1851 93.1426 67.4676H98.0189C98.0189 68.6304 98.7548 70.3332 101.907 70.3951C104.009 70.3951 104.997 69.1705 104.997 68.2566C104.871 66.8026 103.022 66.6787 101.045 66.3668C99.0694 66.055 97.3875 65.7018 96.1687 65.0791C94.6133 64.2902 93.5617 62.5874 93.5617 60.6358C93.5617 57.3345 96.4624 54.7178 101.297 54.7178C106.131 54.7178 108.948 57.1476 109.264 60.7607H104.555C104.513 59.7849 104.324 58.2484 101.549 58.2484C99.6777 58.2484 98.438 58.6222 98.3324 59.9099C98.3324 61.7996 102.221 61.6746 105.248 62.4635C108.149 63.1905 109.999 64.9759 109.999 67.4676C109.999 72.0566 106.236 73.8225 101.591 73.8225" fill="white"/>
<path d="M30.7949 26.6845L47.0441 17.4229L65.2689 48.6124H48.2629V53.1807H43.6385V48.5917L30.7949 26.6845" fill="white"/>
<path fill-rule="evenodd" clip-rule="evenodd" d="M31.2166 73.8219C25.8354 73.8219 21.4629 69.4818 21.4629 64.2277C21.4629 58.9737 25.8354 54.7172 31.2166 54.7172C33.256 54.7172 35.1051 55.2573 36.7243 56.3581V48.6123H41.3487V73.3861H36.7243V72.1615C35.1062 73.1992 33.256 73.823 31.2166 73.823V73.8219ZM25.8981 64.2277C25.8981 67.0933 28.3786 69.4817 31.342 69.4817C34.3054 69.4817 36.7232 67.0933 36.7232 64.2277C36.7232 61.3622 34.2427 58.9117 31.342 58.9117C28.4413 58.9117 25.8981 61.3622 25.8981 64.2277" fill="white"/>
<path fill-rule="evenodd" clip-rule="evenodd" d="M65.396 48.6123H69.9577V73.3861H65.396V72.1615C63.8406 73.1992 61.9277 73.823 59.8256 73.823C54.5071 73.823 50.1357 69.4828 50.1357 64.2288C50.1357 58.9748 54.5082 54.7183 59.8256 54.7183C61.9277 54.7183 63.7779 55.2584 65.396 56.3592V48.6134V48.6123ZM54.6336 64.2277C54.6336 67.0933 57.1141 69.4817 59.9521 69.4817C62.7901 69.4817 65.396 67.0933 65.396 64.2277C65.396 61.3622 62.9155 58.9117 59.9521 58.9117C56.9887 58.9117 54.6336 61.3622 54.6336 64.2277Z" fill="white"/>
<path fill-rule="evenodd" clip-rule="evenodd" d="M81.2026 73.8225C75.905 73.8225 71.5127 69.4823 71.5127 64.2283C71.5127 58.9743 75.9061 54.7178 81.2026 54.7178C83.242 54.7178 85.1549 55.2578 86.7103 56.3586V54.884H91.3347V73.3867H86.7103V72.162C85.1549 73.1998 83.3047 73.8236 81.2026 73.8236V73.8225ZM76.0106 64.2283C76.0106 67.0938 78.4911 69.4823 81.3918 69.4823C84.2925 69.4823 86.7103 67.0938 86.7103 64.2283C86.7103 61.3627 84.2925 58.9123 81.3918 58.9123C78.4911 58.9123 76.0106 61.3627 76.0106 64.2283Z" fill="white"/>
<path fill-rule="evenodd" clip-rule="evenodd" d="M4.4572 64.2293C4.4572 67.0948 6.9377 69.4833 9.8384 69.4833C12.7391 69.4833 15.2823 67.0948 15.2823 64.2293C15.2823 61.3637 12.8018 58.9133 9.8384 58.9133C6.875 58.9133 4.4572 61.3637 4.4572 64.2293V64.2293ZM9.7119 73.8234C4.3934 73.8234 0 69.4833 0 64.2293C0 58.9752 4.3934 54.7188 9.7119 54.7188C11.7513 54.7188 13.6642 55.2588 15.2823 56.3596V54.885H19.844V73.3877H15.2823V72.163C13.7269 73.2008 11.814 73.8245 9.7119 73.8245" fill="white"/>
</svg>
