<svg width="95" height="93" viewBox="0 0 95 93" fill="none" xmlns="http://www.w3.org/2000/svg">
<path d="M47.0006 0.229492C39.02 9.33154 34.618 20.9916 34.6049 33.0626C34.634 35.2928 34.8117 37.5175 35.1397 39.7234H58.8493C59.1802 37.5175 59.3635 35.2928 59.3955 33.0626C59.3814 20.9916 54.9812 9.33154 46.9997 0.229492H47.0006ZM0.000643219 18.5849C-0.0378968 25.919 1.65598 33.1588 4.94504 39.7234H32.8461C31.6768 37.8649 30.3777 36.0904 28.9583 34.4122C21.5417 25.8406 11.2581 20.2193 0.000643219 18.5849ZM93.9997 18.5849C82.7432 20.2202 72.4596 25.8406 65.0439 34.4122C63.6283 36.0904 62.332 37.8649 61.1655 39.7234H89.0478C92.3406 33.1588 94.0364 25.919 94.0006 18.5849H93.9997ZM6.9181 43.2695C7.66352 44.4874 8.4644 45.6706 9.31792 46.8156H84.6956C85.5463 45.6716 86.3443 44.4874 87.0869 43.2695H6.9181ZM12.2319 50.3618C13.375 51.6085 14.5838 52.7918 15.8547 53.9079H78.172C79.4447 52.7918 80.6564 51.6076 81.8013 50.3618H12.2319ZM20.4231 57.4549C26.3592 61.5306 33.1573 64.1998 40.2937 65.2551C40.2853 62.641 40.0578 60.0316 39.6113 57.4549H20.424H20.4231ZM41.0692 57.4549C42.749 60.464 44.7362 63.2929 47.0006 65.8958C49.2632 63.292 51.2504 60.4631 52.9292 57.4549H41.0692V57.4549ZM54.3693 57.4549C53.9294 60.0326 53.7085 62.641 53.7066 65.2551C60.8431 64.1988 67.6402 61.5297 73.5763 57.4549H54.3702H54.3693Z" fill="white"/>
<path d="M31.4271 70.7616V77.4159C30.0876 76.4866 28.4689 75.9617 26.7252 75.9617C22.1775 75.9617 18.5021 79.6115 18.5021 84.1299C18.5021 88.6482 22.1775 92.2999 26.7252 92.2999C28.4689 92.2999 30.0876 91.7741 31.4271 90.8457V91.9571H35.3835V70.7598H31.4271V70.7616ZM37.3152 70.7616V74.6925H41.2698V70.7616H37.3152ZM55.8163 70.7616V77.4159C54.4768 76.4866 52.8562 75.9617 51.1125 75.9617C46.5648 75.9617 42.8913 79.6115 42.8913 84.1299C42.8913 88.6482 46.5648 92.2999 51.1125 92.2999C52.8562 92.2999 54.4768 91.7741 55.8163 90.8457V91.9571H59.7709V70.7598H55.8163V70.7616ZM8.22504 75.9627C3.67638 75.9617 0.000976562 79.6125 0.000976562 84.1299C0.000976562 88.6473 3.67638 92.2999 8.2241 92.2999C9.9678 92.2999 11.5865 91.7741 12.926 90.8457V91.9571H16.8824V76.1439H12.926V77.414C11.5865 76.4847 9.9678 75.9599 8.2241 75.9599L8.22504 75.9627ZM69.6136 75.9627C65.0659 75.9627 61.3924 79.6125 61.3924 84.1308C61.3924 88.6491 65.0659 92.3008 69.6136 92.3008C71.3573 92.3008 72.9779 91.775 74.3174 90.8467V91.958H78.272V76.1448H74.3174V77.4149C72.9779 76.4857 71.3573 75.9608 69.6136 75.9608V75.9627ZM86.6821 75.9627C82.5396 75.9627 80.0786 78.2209 80.0786 81.1618C80.0786 84.7519 83.0086 85.3384 85.5316 85.8025L87.6174 86.1752C89.112 86.4535 89.7672 86.8859 89.7672 87.7526C89.7672 88.5259 89.019 89.3001 87.2433 89.3001C84.6583 89.3001 83.817 87.9711 83.786 86.8242H79.7374C79.8559 90.0117 82.6035 92.2709 87.1822 92.2709C90.9197 92.2709 94.0029 90.6617 94.0029 87.1035C94.0029 84.6276 92.6013 83.1735 89.3611 82.5543L86.8382 82.0603C85.2186 81.7512 84.0971 81.4402 84.0971 80.4801C84.0971 79.4285 85.1875 78.9643 86.5571 78.9643C88.5509 78.9643 89.3611 79.9561 89.4232 81.131H93.4107C93.1926 78.036 90.6997 75.9636 86.6821 75.9636V75.9627ZM37.3152 76.1457V91.959H41.2698V76.1457H37.3152ZM8.41022 79.6115C10.9341 79.6115 12.9579 81.6232 12.9579 84.1289C12.9579 86.6347 10.9341 88.6473 8.41022 88.6473C5.88632 88.6473 3.86438 86.6356 3.86438 84.1289C3.86438 81.6223 5.88726 79.6115 8.41022 79.6115ZM26.9132 79.6115C29.4352 79.6115 31.459 81.6232 31.459 84.1289C31.459 86.6347 29.4352 88.6473 26.9132 88.6473C24.3912 88.6473 22.3655 86.6356 22.3655 84.1289C22.3655 81.6223 24.3893 79.6115 26.9132 79.6115ZM51.2996 79.6115C53.8226 79.6115 55.8473 81.6232 55.8473 84.1289C55.8473 86.6347 53.8226 88.6473 51.2996 88.6473C48.7766 88.6473 46.7519 86.6356 46.7519 84.1289C46.7519 81.6223 48.7766 79.6115 51.2996 79.6115ZM69.8007 79.6115C72.3227 79.6115 74.3484 81.6232 74.3484 84.1289C74.3484 86.6347 72.3227 88.6473 69.8007 88.6473C67.2787 88.6473 65.253 86.6356 65.253 84.1289C65.253 81.6223 67.2777 79.6115 69.8007 79.6115Z" fill="white"/>
</svg>
