<svg width="147" height="32" viewBox="0 0 147 32" fill="none" xmlns="http://www.w3.org/2000/svg">
<g clip-path="url(#clip0_139_1799)">
<path d="M16.0051 30.1923C8.16261 30.1923 1.80549 23.84 1.80268 16C1.80268 8.16 8.15699 1.80491 15.9995 1.80211C23.842 1.80211 30.1991 8.15439 30.2019 15.9944V16C30.2019 23.8372 23.8448 30.1923 16.0051 30.1923ZM16.0051 0C7.1658 0 0 7.16351 0 16C0 24.8365 7.1658 32 16.0051 32C24.8444 32 32.0102 24.8365 32.0102 16C32.0102 7.16351 24.8444 0 16.0051 0Z" fill="white"/>
<path d="M21.3124 19.0628C21.0962 19.4501 20.6048 19.5877 20.2202 19.3687L18.2546 18.2459V17.3056L19.0689 16.8424L21.0204 17.9652C21.4023 18.1842 21.5343 18.6754 21.3152 19.0572M16.9265 16.5308L16.0083 17.0586L15.0873 16.528V15.467L16.0083 14.9365L16.9265 15.467V16.5308ZM15.208 10.667C15.1828 10.2263 15.5169 9.84733 15.9605 9.82207C16.4014 9.7968 16.7805 10.1308 16.8057 10.5743C16.8057 10.6052 16.8057 10.6389 16.8057 10.6698V12.9154L16.0083 13.3898L15.208 12.9154V10.6698V10.667ZM13.7423 18.2263L11.7768 19.3491C11.4117 19.5933 10.9147 19.495 10.6704 19.1273C10.4261 18.7624 10.5244 18.2656 10.8923 18.0214C10.926 17.9989 10.9596 17.9793 10.9933 17.9624L12.9589 16.8396L13.7563 17.3028L13.7423 18.2235V18.2263ZM27.6387 22.4565L25.3137 19.7421C25.2828 19.7084 25.2491 19.6803 25.2126 19.6579C25.0947 19.5961 24.9571 19.5961 24.8392 19.6579C24.4713 19.8291 24.0417 19.8122 23.6879 19.6101C23.3734 19.4305 23.1544 19.1217 23.0898 18.768C22.9214 17.867 22.3654 17.081 21.5708 16.6235L20.5318 16.0003L26.4481 12.5842L25.7181 11.3154L19.0689 15.1582L18.2687 14.6979V13.7687L24.9178 9.93435L24.1849 8.66558L18.2687 12.0705V10.8775C18.2687 9.95961 17.8699 9.08943 17.1708 8.49435C16.6513 8.04803 16.5895 7.26487 17.036 6.74557C17.1062 6.66417 17.1876 6.59119 17.2747 6.52943C17.3842 6.45645 17.4487 6.33014 17.4487 6.19821C17.4487 6.15329 17.4403 6.11119 17.4291 6.06908L16.2413 2.70066C16.1992 2.57154 16.0588 2.50136 15.9297 2.54347C15.8567 2.56873 15.7977 2.62487 15.7724 2.70066L14.5847 6.06908C14.5706 6.11119 14.565 6.15329 14.565 6.19821C14.565 6.33014 14.6296 6.45645 14.7391 6.52943C15.3035 6.91961 15.4439 7.69154 15.0564 8.25575C14.9946 8.34557 14.9216 8.42417 14.8402 8.49435C14.1438 9.08943 13.7423 9.95961 13.7423 10.8775V12.0705L7.82882 8.66558L7.09596 9.93435L13.7423 13.7687V14.6922L12.9448 15.1582L6.2957 11.3154L5.56564 12.5842L11.4791 16.0003L10.4402 16.601C9.64274 17.0586 9.08958 17.8417 8.9211 18.7456C8.85652 19.0993 8.6375 19.408 8.32582 19.5877C7.97203 19.7898 7.54241 19.8066 7.17458 19.6354C7.05665 19.5736 6.91906 19.5736 6.80113 19.6354C6.76462 19.6579 6.73093 19.6859 6.70004 19.7196L4.37509 22.4312C4.28243 22.5322 4.29085 22.6894 4.39193 22.7793C4.4509 22.8326 4.53233 22.855 4.61095 22.8382L8.12085 22.1814C8.29774 22.1477 8.43252 21.9989 8.44376 21.8193C8.47745 21.415 8.7077 21.0501 9.05869 20.848C9.37318 20.6712 9.74944 20.6459 10.0864 20.7722C10.9512 21.0754 11.9087 20.9884 12.7034 20.528L13.7423 19.9301V26.7456H15.208V19.0712L16.0083 18.6108L16.8057 19.0712V26.7456H18.2687V19.9301L19.3104 20.528C20.105 20.9884 21.0625 21.0754 21.9274 20.7722C22.2671 20.6515 22.6434 20.6852 22.9551 20.8677C23.3061 21.0698 23.5363 21.4347 23.57 21.8389C23.5812 21.9708 23.6542 22.0887 23.7694 22.1561C23.8087 22.1786 23.8508 22.1926 23.8929 22.201L27.4028 22.8579C27.5067 22.8775 27.6134 22.8298 27.6667 22.74C27.7173 22.6501 27.7061 22.5379 27.6387 22.4593" fill="white"/>
<path d="M122.554 12.7493H117.213V2.07422H112.336V29.9226H117.213V17.6925H122.554V29.9226H127.541V2.07422H122.554V12.7493Z" fill="white"/>
<path d="M47.4561 2.07422L43.7693 12.9233L40.4335 2.07422H35.5674L40.9839 19.1493V29.9226H46.4031V18.5963L52.0162 2.07422H47.4561Z" fill="white"/>
<path d="M80.2865 15.3205L77.5769 2.07422H69.959V29.9226H74.3281V8.92896L78.0542 27.1802H82.1341L85.439 8.63422V29.9226H90.5607V2.07422H82.6227L80.2865 15.3205Z" fill="white"/>
<path d="M136.139 18.8069L138.214 6.35211L140.23 18.8069H136.139ZM142.406 2.07422H134.861L129.771 29.9226H134.286L135.364 23.4412H140.98L142.024 29.9226H147L142.406 2.07422Z" fill="white"/>
<path d="M99.1612 18.8069L101.236 6.35211L103.252 18.8069H99.1612ZM97.8836 2.07422L92.79 29.9226H97.3052L98.3862 23.4412H104.002L105.049 29.9226H110.022L105.426 2.07422H97.8836Z" fill="white"/>
<path d="M56.7842 18.8069L58.8621 6.35211L60.8754 18.8069H56.7842ZM55.5066 2.07422L50.4131 29.9226H54.931L56.0121 23.4412H61.6279L62.6781 29.9226H67.6509L63.0515 2.07422H55.5066Z" fill="white"/>
</g>
<defs>
<clipPath id="clip0_139_1799">
<rect width="147" height="32" fill="white"/>
</clipPath>
</defs>
</svg>
