<svg width="132" height="39" viewBox="0 0 132 39" fill="none" xmlns="http://www.w3.org/2000/svg">
<g clip-path="url(#clip0_139_1772)">
<path d="M12.3275 27.7542L12.4552 28.1153C12.435 28.074 12.3882 27.9476 12.3275 27.7542ZM6.39373 25.1857C6.61812 23.2459 7.38009 22.1594 8.816 21.0455C10.8705 19.5371 13.4369 20.3904 13.4369 20.3904V15.3275C14.061 15.3111 14.6851 15.3501 15.3021 15.4437V21.9573C15.3021 21.9573 12.7365 21.104 10.682 22.6125C9.24685 23.7264 8.48332 24.8137 8.25971 26.7535C8.2527 27.808 8.44203 29.1855 9.31386 30.3765C9.09804 30.2611 8.87833 30.1292 8.65473 29.9818C6.73421 28.6348 6.38439 26.6146 6.39373 25.1857V25.1857ZM25.8989 5.96767C24.4856 4.34998 23.9511 2.71669 23.7579 1.56934H25.5358C25.5358 1.56934 25.1813 4.57774 27.7649 7.53622L27.8007 7.576C27.1042 7.11814 26.4661 6.5784 25.8989 5.96767V5.96767Z" fill="#EE1D52"/>
<path d="M34.4641 10.5546V16.9372C34.4641 16.9372 32.1953 16.8452 30.5163 16.3982C28.172 15.7742 26.6652 14.818 26.6652 14.818C26.6652 14.818 25.6243 14.1347 25.5401 14.0879V27.2735C25.5401 28.0067 25.3477 29.8397 24.761 31.3692C23.9951 33.3691 22.8132 34.6818 22.5958 34.9494C22.5958 34.9494 21.1584 36.7246 18.6224 37.9196C16.3364 38.9975 14.3294 38.9702 13.7295 38.9975C13.7295 38.9975 10.2601 39.141 7.1382 37.021C6.46271 36.5546 5.8324 36.0258 5.25586 35.4415L5.27144 35.4525C8.39414 37.5725 11.8628 37.4289 11.8628 37.4289C12.4635 37.4016 14.4705 37.4289 16.7556 36.351C19.2901 35.1561 20.7291 33.3808 20.7291 33.3808C20.9441 33.1133 22.1315 31.8006 22.8942 29.7999C23.4794 28.2711 23.6734 26.4382 23.6734 25.7042V12.5194C23.7575 12.5669 24.7984 13.2502 24.7984 13.2502C24.7984 13.2502 26.3052 14.208 28.6496 14.8305C30.3293 15.2766 32.5973 15.3694 32.5973 15.3694V10.3682C33.3733 10.5499 34.0348 10.5998 34.4641 10.5546V10.5546Z" fill="#EE1D52"/>
<path d="M32.5984 10.3685V15.369C32.5984 15.369 30.3304 15.2762 28.6506 14.83C26.3062 14.2061 24.7994 13.2498 24.7994 13.2498C24.7994 13.2498 23.7585 12.5665 23.6744 12.519V25.7015C23.6744 26.4354 23.4819 28.2684 22.8953 29.7972C22.1294 31.7978 20.9475 33.1105 20.7301 33.3781C20.7301 33.3781 19.2926 35.1533 16.7566 36.3483C14.4715 37.4262 12.4645 37.3989 11.8638 37.4262C11.8638 37.4262 8.39516 37.5697 5.27247 35.4497L5.25688 35.4388C4.92732 35.105 4.61723 34.7532 4.3274 34.3843C3.33091 33.1144 2.72009 31.6145 2.5666 31.1863C2.5666 31.1848 2.5666 31.1824 2.5666 31.1809C2.31884 30.436 1.79995 28.6498 1.87085 26.919C1.99629 23.8646 3.02472 21.9911 3.29663 21.5208C4.01731 20.2408 4.95381 19.095 6.06561 18.1356C7.04573 17.3065 8.15753 16.6474 9.35503 16.1857C10.1014 15.8752 10.8798 15.6459 11.6752 15.5032C12.2572 15.3987 12.8462 15.3402 13.4376 15.3277V20.3874C13.4376 20.3874 10.8712 19.5341 8.81666 21.0426C7.38075 22.1564 6.61878 23.243 6.39439 25.1828C6.38504 26.6117 6.73487 28.6319 8.65383 29.9805C8.87743 30.1287 9.09714 30.2605 9.31296 30.3751C9.64875 30.8291 10.0562 31.2238 10.5198 31.5451C12.3944 32.7845 13.9651 32.8711 15.9736 32.0661C17.3145 31.535 18.3187 30.3221 18.7948 28.9774C19.0885 28.1381 19.0846 27.2926 19.0846 26.4198V1.57031H23.7593C23.9525 2.71767 24.487 4.35096 25.9003 5.96864C26.4675 6.57937 27.1056 7.11912 27.8021 7.57697C28.0078 7.79927 29.0596 8.89749 30.4098 9.57295C31.1064 9.92161 31.8411 10.1884 32.5984 10.3685V10.3685Z" fill="white"/>
<path d="M0.706055 29.6318V29.6365L0.821364 29.9649C0.808898 29.9267 0.765267 29.8105 0.706055 29.6318Z" fill="#69C9D0"/>
<path d="M9.35468 16.1858C8.15718 16.6476 7.04538 17.3066 6.06525 18.1358C4.95345 19.0975 4.01696 20.2456 3.29784 21.5279C3.02592 21.9959 1.99749 23.8718 1.87205 26.9262C1.80116 28.657 2.32005 30.4431 2.5678 31.188C2.5678 31.1896 2.5678 31.1919 2.5678 31.1935C2.72363 31.6178 3.33212 33.1177 4.3286 34.3914C4.61844 34.7604 4.92852 35.1121 5.25809 35.446C4.20161 34.7143 3.25966 33.8306 2.46262 32.8221C1.47471 31.564 0.865438 30.0789 0.706498 29.6405L0.702603 29.6312V29.6249C0.454844 28.8824 -0.0656045 27.0947 0.00685317 25.3615C0.132291 22.3071 1.16072 20.4336 1.43263 19.9633C2.15176 18.6802 3.08825 17.5328 4.20005 16.5711C5.18018 15.742 6.29197 15.0829 7.48947 14.6212C8.23587 14.3107 9.0142 14.0814 9.80968 13.9387C11.0087 13.7289 12.2335 13.7109 13.438 13.8849V15.3278C12.8467 15.3387 12.2577 15.3957 11.6757 15.4979C10.8794 15.6429 10.1011 15.873 9.35468 16.1858Z" fill="#69C9D0"/>
<path d="M23.7585 1.57011H19.0838V26.4212C19.0838 27.294 19.0877 28.1372 18.794 28.9788C18.3218 30.3219 17.3175 31.5348 15.979 32.073C13.9697 32.881 12.399 32.7913 10.5252 31.5519C10.0616 31.2306 9.65416 30.8359 9.31836 30.382C10.9148 31.2345 12.3437 31.2197 14.1138 30.5083C15.4445 29.9662 16.4574 28.7533 16.9249 27.4094C17.2194 26.5702 17.2155 25.7247 17.2155 24.8526V0H23.6704C23.6704 0 23.5972 0.618528 23.7585 1.57011ZM32.5983 8.9862V10.3683C31.8402 10.1882 31.1055 9.9214 30.409 9.57275C29.0588 8.89728 28.007 7.79906 27.8013 7.57677C28.0397 7.73354 28.2875 7.87628 28.543 8.00342C30.1846 8.82396 31.7974 9.06966 32.5983 8.9862V8.9862Z" fill="#69C9D0"/>
<path d="M101.67 21.9456C101.67 22.3013 101.723 22.6546 101.826 22.9947C101.832 23.0189 101.84 23.0423 101.848 23.0657C102.36 24.7169 103.886 25.8424 105.613 25.8417V29.8352C103.672 29.8352 102.281 29.903 100.166 28.6504C97.7508 27.2214 96.3936 24.6085 96.3936 21.8949C96.3936 19.1814 97.9113 16.2939 100.485 14.9437C102.35 13.9641 103.769 13.957 105.613 13.957V17.9482C103.436 17.9482 101.671 19.7157 101.67 21.8949V21.9456V21.9456Z" fill="#69C9D0"/>
<path d="M109.586 21.9456C109.586 22.3013 109.534 22.6546 109.43 22.9947C109.425 23.0189 109.418 23.0423 109.408 23.0657C108.897 24.7169 107.371 25.8424 105.644 25.8417V29.8352C107.585 29.8352 108.975 29.903 111.09 28.6504C113.506 27.2214 114.864 24.6085 114.864 21.8949C114.864 19.1814 113.345 16.2939 110.772 14.9437C108.907 13.9641 107.487 13.957 105.644 13.957V17.9482C107.821 17.9482 109.586 19.7149 109.587 21.8949V21.9456H109.586Z" fill="#EE1D52"/>
<path d="M44.5879 10.3359H59.1893L57.8399 14.3583H54.0222V29.7505H49.3187V14.3583H44.5879V10.3359V10.3359ZM83.2865 10.3359V14.3583H88.0173V29.7505H92.7177V14.3583H96.5354L97.8879 10.3359H83.2865V10.3359ZM62.3657 14.9199C63.6217 14.9199 64.64 13.9005 64.64 12.6431C64.64 11.3858 63.6217 10.3664 62.3657 10.3664C61.1098 10.3664 60.0915 11.3858 60.0915 12.6431C60.0915 13.9005 61.1098 14.9199 62.3657 14.9199ZM60.0876 29.7505H64.6976V16.529H60.0876V29.7505ZM81.2795 14.806H75.8896L71.2438 19.4618V10.3508H66.6649L66.6493 29.7505H71.2741V24.6954L72.7147 23.3905L77.2024 29.7505H82.1459L75.645 20.4492L81.2795 14.806V14.806ZM125.497 20.4492L131.134 14.806H125.744L121.099 19.4618V10.3508H116.519L116.504 29.7505H121.129V24.6954L122.573 23.3905L127.061 29.7505H132L125.497 20.4492V20.4492ZM113.647 21.8953C113.647 26.2796 110.049 29.834 105.611 29.834C101.172 29.834 97.5747 26.2796 97.5747 21.8953C97.5747 17.511 101.173 13.9566 105.611 13.9566C110.048 13.9566 113.649 17.5118 113.649 21.8953H113.647V21.8953ZM109.553 21.8953C109.553 19.7152 107.788 17.9486 105.611 17.9486C103.433 17.9486 101.668 19.7152 101.668 21.8953C101.668 24.0754 103.433 25.842 105.611 25.842C107.787 25.8436 109.553 24.0777 109.554 21.8984V21.8953H109.553Z" fill="white"/>
</g>
<defs>
<clipPath id="clip0_139_1772">
<rect width="132" height="39" fill="white"/>
</clipPath>
</defs>
</svg>
