<svg width="526" height="282" viewBox="0 0 526 282" fill="none" xmlns="http://www.w3.org/2000/svg">
<path d="M91.5461 81C86.4128 81 81.6794 80.1333 77.3461 78.4C73.0794 76.6 69.3461 74.1 66.1461 70.9C63.0128 67.6333 60.5794 63.8 58.8461 59.4C57.1128 54.9333 56.2461 50.0667 56.2461 44.8C56.2461 39.6667 57.1461 34.9333 58.9461 30.6C60.7461 26.2 63.2794 22.4 66.5461 19.2C69.8128 15.9333 73.6461 13.4 78.0461 11.6C82.4461 9.8 87.2128 8.9 92.3461 8.9C95.6794 8.9 98.9461 9.36666 102.146 10.3C105.413 11.1667 108.379 12.4667 111.046 14.2C113.779 15.9333 116.113 18 118.046 20.4L108.646 30.8C107.046 29.2 105.379 27.8333 103.646 26.7C101.979 25.5 100.179 24.6 98.2461 24C96.3794 23.3333 94.3794 23 92.2461 23C89.3794 23 86.6794 23.5333 84.1461 24.6C81.6794 25.6667 79.5128 27.1667 77.6461 29.1C75.7794 30.9667 74.2794 33.2667 73.1461 36C72.0794 38.6667 71.5461 41.6333 71.5461 44.9C71.5461 48.2333 72.0794 51.2667 73.1461 54C74.2128 56.6667 75.7128 58.9667 77.6461 60.9C79.5794 62.7667 81.8794 64.2333 84.5461 65.3C87.2794 66.3 90.2794 66.8 93.5461 66.8C95.6794 66.8 97.7461 66.5 99.7461 65.9C101.746 65.3 103.579 64.4667 105.246 63.4C106.979 62.3333 108.513 61.1 109.846 59.7L117.146 71.4C115.546 73.2 113.379 74.8333 110.646 76.3C107.979 77.7667 104.979 78.9333 101.646 79.8C98.3128 80.6 94.9461 81 91.5461 81ZM124.291 80V27.1H137.991L138.491 44.1L136.091 40.6C136.891 37.8667 138.191 35.4 139.991 33.2C141.791 30.9333 143.891 29.1667 146.291 27.9C148.758 26.6333 151.325 26 153.991 26C155.125 26 156.225 26.1 157.291 26.3C158.358 26.5 159.258 26.7333 159.991 27L156.191 42.6C155.391 42.2 154.425 41.8667 153.291 41.6C152.158 41.2667 150.991 41.1 149.791 41.1C148.191 41.1 146.691 41.4 145.291 42C143.958 42.5333 142.791 43.3333 141.791 44.4C140.791 45.4 139.991 46.6 139.391 48C138.858 49.4 138.591 50.9333 138.591 52.6V80H124.291ZM187.493 81C181.76 81 176.76 79.8333 172.493 77.5C168.226 75.1667 164.893 71.9667 162.493 67.9C160.093 63.8333 158.893 59.1667 158.893 53.9C158.893 49.8333 159.56 46.1 160.893 42.7C162.226 39.3 164.093 36.3667 166.493 33.9C168.893 31.3667 171.726 29.4333 174.993 28.1C178.326 26.7 181.926 26 185.793 26C189.393 26 192.726 26.6667 195.793 28C198.86 29.2667 201.493 31.1 203.693 33.5C205.96 35.8333 207.693 38.6 208.893 41.8C210.093 45 210.626 48.5 210.493 52.3L210.393 56.7H167.893L165.593 48H198.693L197.093 49.8V47.6C196.96 45.8 196.36 44.1667 195.293 42.7C194.293 41.2333 192.993 40.1 191.393 39.3C189.793 38.5 187.993 38.1 185.993 38.1C183.06 38.1 180.56 38.6667 178.493 39.8C176.493 40.9333 174.96 42.6 173.893 44.8C172.826 47 172.293 49.6667 172.293 52.8C172.293 56 172.96 58.7667 174.293 61.1C175.693 63.4333 177.626 65.2667 180.093 66.6C182.626 67.8667 185.593 68.5 188.993 68.5C191.326 68.5 193.46 68.1333 195.393 67.4C197.326 66.6667 199.393 65.4 201.593 63.6L208.393 73.1C206.46 74.8333 204.326 76.3 201.993 77.5C199.66 78.6333 197.26 79.5 194.793 80.1C192.326 80.7 189.893 81 187.493 81ZM237.287 81C232.887 81 228.92 79.8 225.387 77.4C221.853 75 219.053 71.7333 216.987 67.6C214.92 63.4667 213.887 58.7333 213.887 53.4C213.887 48.0667 214.92 43.3667 216.987 39.3C219.12 35.1667 221.987 31.9333 225.587 29.6C229.187 27.2 233.287 26 237.887 26C240.487 26 242.853 26.4 244.987 27.2C247.187 27.9333 249.087 28.9667 250.687 30.3C252.353 31.6333 253.753 33.1667 254.887 34.9C256.02 36.6333 256.82 38.5 257.287 40.5L254.287 40V27.1H268.387V80H254.087V67.3L257.287 67C256.753 68.8667 255.887 70.6333 254.687 72.3C253.487 73.9667 251.987 75.4667 250.187 76.8C248.453 78.0667 246.487 79.1 244.287 79.9C242.087 80.6333 239.753 81 237.287 81ZM241.187 68.7C243.853 68.7 246.187 68.0667 248.187 66.8C250.187 65.5333 251.72 63.7667 252.787 61.5C253.92 59.1667 254.487 56.4667 254.487 53.4C254.487 50.4 253.92 47.7667 252.787 45.5C251.72 43.2333 250.187 41.4667 248.187 40.2C246.187 38.8667 243.853 38.2 241.187 38.2C238.587 38.2 236.287 38.8667 234.287 40.2C232.353 41.4667 230.82 43.2333 229.687 45.5C228.553 47.7667 227.987 50.4 227.987 53.4C227.987 56.4667 228.553 59.1667 229.687 61.5C230.82 63.7667 232.353 65.5333 234.287 66.8C236.287 68.0667 238.587 68.7 241.187 68.7ZM284.223 80V13.7H298.423V80H284.223ZM274.323 39.8V27.1H309.223V39.8H274.323ZM316.179 80V27.1H330.379V80H316.179ZM323.179 16.2C320.446 16.2 318.312 15.5333 316.779 14.2C315.246 12.8667 314.479 10.9667 314.479 8.5C314.479 6.23333 315.246 4.4 316.779 3C318.379 1.53333 320.512 0.799994 323.179 0.799994C325.912 0.799994 328.046 1.5 329.579 2.9C331.112 4.23333 331.879 6.1 331.879 8.5C331.879 10.8333 331.079 12.7 329.479 14.1C327.946 15.5 325.846 16.2 323.179 16.2ZM358.645 80L336.445 27.1H352.045L366.145 66.6L362.845 67.2L377.645 27.1H392.845L369.545 80H358.645ZM421.653 81C415.92 81 410.92 79.8333 406.653 77.5C402.386 75.1667 399.053 71.9667 396.653 67.9C394.253 63.8333 393.053 59.1667 393.053 53.9C393.053 49.8333 393.72 46.1 395.053 42.7C396.386 39.3 398.253 36.3667 400.653 33.9C403.053 31.3667 405.886 29.4333 409.153 28.1C412.486 26.7 416.086 26 419.953 26C423.553 26 426.886 26.6667 429.953 28C433.02 29.2667 435.653 31.1 437.853 33.5C440.12 35.8333 441.853 38.6 443.053 41.8C444.253 45 444.786 48.5 444.653 52.3L444.553 56.7H402.053L399.753 48H432.853L431.253 49.8V47.6C431.12 45.8 430.52 44.1667 429.453 42.7C428.453 41.2333 427.153 40.1 425.553 39.3C423.953 38.5 422.153 38.1 420.153 38.1C417.22 38.1 414.72 38.6667 412.653 39.8C410.653 40.9333 409.12 42.6 408.053 44.8C406.986 47 406.453 49.6667 406.453 52.8C406.453 56 407.12 58.7667 408.453 61.1C409.853 63.4333 411.786 65.2667 414.253 66.6C416.786 67.8667 419.753 68.5 423.153 68.5C425.486 68.5 427.62 68.1333 429.553 67.4C431.486 66.6667 433.553 65.4 435.753 63.6L442.553 73.1C440.62 74.8333 438.486 76.3 436.153 77.5C433.82 78.6333 431.42 79.5 428.953 80.1C426.486 80.7 424.053 81 421.653 81ZM456.947 81.1C454.347 81.1 452.347 80.3667 450.947 78.9C449.547 77.4333 448.847 75.3333 448.847 72.6C448.847 70.1333 449.58 68.1333 451.047 66.6C452.58 65 454.547 64.2 456.947 64.2C459.48 64.2 461.447 64.9333 462.847 66.4C464.247 67.8667 464.947 69.9333 464.947 72.6C464.947 75.1333 464.214 77.2 462.747 78.8C461.28 80.3333 459.347 81.1 456.947 81.1ZM53.1727 180V123.5H32.7727V110H89.1727V123.5H68.1727V180H53.1727ZM111.2 181C105.467 181 100.467 179.833 96.2 177.5C91.9333 175.167 88.6 171.967 86.2 167.9C83.8 163.833 82.6 159.167 82.6 153.9C82.6 149.833 83.2667 146.1 84.6 142.7C85.9333 139.3 87.8 136.367 90.2 133.9C92.6 131.367 95.4333 129.433 98.7 128.1C102.033 126.7 105.633 126 109.5 126C113.1 126 116.433 126.667 119.5 128C122.567 129.267 125.2 131.1 127.4 133.5C129.667 135.833 131.4 138.6 132.6 141.8C133.8 145 134.333 148.5 134.2 152.3L134.1 156.7H91.6L89.3 148H122.4L120.8 149.8V147.6C120.667 145.8 120.067 144.167 119 142.7C118 141.233 116.7 140.1 115.1 139.3C113.5 138.5 111.7 138.1 109.7 138.1C106.767 138.1 104.267 138.667 102.2 139.8C100.2 140.933 98.6667 142.6 97.6 144.8C96.5333 147 96 149.667 96 152.8C96 156 96.6667 158.767 98 161.1C99.4 163.433 101.333 165.267 103.8 166.6C106.333 167.867 109.3 168.5 112.7 168.5C115.033 168.5 117.167 168.133 119.1 167.4C121.033 166.667 123.1 165.4 125.3 163.6L132.1 173.1C130.167 174.833 128.033 176.3 125.7 177.5C123.367 178.633 120.967 179.5 118.5 180.1C116.033 180.7 113.6 181 111.2 181ZM164.194 181C159.127 181 154.594 179.8 150.594 177.4C146.594 175 143.427 171.733 141.094 167.6C138.827 163.467 137.694 158.767 137.694 153.5C137.694 148.3 138.827 143.633 141.094 139.5C143.427 135.3 146.594 132 150.594 129.6C154.594 127.2 159.127 126 164.194 126C168.927 126 173.26 126.867 177.194 128.6C181.127 130.333 184.194 132.733 186.394 135.8L178.594 145.2C177.66 143.933 176.494 142.8 175.094 141.8C173.694 140.733 172.16 139.9 170.494 139.3C168.894 138.7 167.227 138.4 165.494 138.4C162.76 138.4 160.327 139.067 158.194 140.4C156.127 141.667 154.494 143.433 153.294 145.7C152.094 147.967 151.494 150.567 151.494 153.5C151.494 156.367 152.094 158.933 153.294 161.2C154.56 163.4 156.26 165.2 158.394 166.6C160.527 167.933 162.927 168.6 165.594 168.6C167.327 168.6 168.96 168.367 170.494 167.9C172.027 167.367 173.46 166.6 174.794 165.6C176.194 164.6 177.46 163.4 178.594 162L186.294 171.4C184.027 174.267 180.894 176.6 176.894 178.4C172.894 180.133 168.66 181 164.194 181ZM191.893 180V106H205.893V137.9L203.093 139.1C203.826 136.7 205.126 134.533 206.993 132.6C208.926 130.6 211.226 129 213.893 127.8C216.56 126.6 219.36 126 222.293 126C226.293 126 229.626 126.8 232.293 128.4C235.026 130 237.06 132.433 238.393 135.7C239.793 138.9 240.493 142.867 240.493 147.6V180H226.293V148.7C226.293 146.3 225.96 144.3 225.293 142.7C224.626 141.1 223.593 139.933 222.193 139.2C220.86 138.4 219.193 138.067 217.193 138.2C215.593 138.2 214.093 138.467 212.693 139C211.36 139.467 210.193 140.167 209.193 141.1C208.26 142.033 207.493 143.1 206.893 144.3C206.36 145.5 206.093 146.8 206.093 148.2V180H199.093C197.56 180 196.193 180 194.993 180C193.793 180 192.76 180 191.893 180ZM250.6 180V127.1H264.2L264.6 137.9L261.8 139.1C262.533 136.7 263.833 134.533 265.7 132.6C267.633 130.6 269.933 129 272.6 127.8C275.267 126.6 278.067 126 281 126C285 126 288.333 126.8 291 128.4C293.733 130 295.767 132.433 297.1 135.7C298.5 138.9 299.2 142.867 299.2 147.6V180H285V148.7C285 146.3 284.667 144.3 284 142.7C283.333 141.1 282.3 139.933 280.9 139.2C279.567 138.4 277.9 138.067 275.9 138.2C274.3 138.2 272.8 138.467 271.4 139C270.067 139.467 268.9 140.167 267.9 141.1C266.967 142.033 266.2 143.1 265.6 144.3C265.067 145.5 264.8 146.8 264.8 148.2V180H257.8C256.267 180 254.9 180 253.7 180C252.5 180 251.467 180 250.6 180ZM310.507 180V127.1H324.707V180H310.507ZM317.507 116.2C314.774 116.2 312.64 115.533 311.107 114.2C309.574 112.867 308.807 110.967 308.807 108.5C308.807 106.233 309.574 104.4 311.107 103C312.707 101.533 314.84 100.8 317.507 100.8C320.24 100.8 322.374 101.5 323.907 102.9C325.44 104.233 326.207 106.1 326.207 108.5C326.207 110.833 325.407 112.7 323.807 114.1C322.274 115.5 320.174 116.2 317.507 116.2ZM359.373 181C354.307 181 349.773 179.8 345.773 177.4C341.773 175 338.607 171.733 336.273 167.6C334.007 163.467 332.873 158.767 332.873 153.5C332.873 148.3 334.007 143.633 336.273 139.5C338.607 135.3 341.773 132 345.773 129.6C349.773 127.2 354.307 126 359.373 126C364.107 126 368.44 126.867 372.373 128.6C376.307 130.333 379.373 132.733 381.573 135.8L373.773 145.2C372.84 143.933 371.673 142.8 370.273 141.8C368.873 140.733 367.34 139.9 365.673 139.3C364.073 138.7 362.407 138.4 360.673 138.4C357.94 138.4 355.507 139.067 353.373 140.4C351.307 141.667 349.673 143.433 348.473 145.7C347.273 147.967 346.673 150.567 346.673 153.5C346.673 156.367 347.273 158.933 348.473 161.2C349.74 163.4 351.44 165.2 353.573 166.6C355.707 167.933 358.107 168.6 360.773 168.6C362.507 168.6 364.14 168.367 365.673 167.9C367.207 167.367 368.64 166.6 369.973 165.6C371.373 164.6 372.64 163.4 373.773 162L381.473 171.4C379.207 174.267 376.073 176.6 372.073 178.4C368.073 180.133 363.84 181 359.373 181ZM406.873 181C402.473 181 398.506 179.8 394.973 177.4C391.439 175 388.639 171.733 386.573 167.6C384.506 163.467 383.473 158.733 383.473 153.4C383.473 148.067 384.506 143.367 386.573 139.3C388.706 135.167 391.573 131.933 395.173 129.6C398.773 127.2 402.873 126 407.473 126C410.073 126 412.439 126.4 414.573 127.2C416.773 127.933 418.673 128.967 420.273 130.3C421.939 131.633 423.339 133.167 424.473 134.9C425.606 136.633 426.406 138.5 426.873 140.5L423.873 140V127.1H437.973V180H423.673V167.3L426.873 167C426.339 168.867 425.473 170.633 424.273 172.3C423.073 173.967 421.573 175.467 419.773 176.8C418.039 178.067 416.073 179.1 413.873 179.9C411.673 180.633 409.339 181 406.873 181ZM410.773 168.7C413.439 168.7 415.773 168.067 417.773 166.8C419.773 165.533 421.306 163.767 422.373 161.5C423.506 159.167 424.073 156.467 424.073 153.4C424.073 150.4 423.506 147.767 422.373 145.5C421.306 143.233 419.773 141.467 417.773 140.2C415.773 138.867 413.439 138.2 410.773 138.2C408.173 138.2 405.873 138.867 403.873 140.2C401.939 141.467 400.406 143.233 399.273 145.5C398.139 147.767 397.573 150.4 397.573 153.4C397.573 156.467 398.139 159.167 399.273 161.5C400.406 163.767 401.939 165.533 403.873 166.8C405.873 168.067 408.173 168.7 410.773 168.7ZM448.809 180V106H463.009V180H448.809ZM479.22 181.1C476.62 181.1 474.62 180.367 473.22 178.9C471.82 177.433 471.12 175.333 471.12 172.6C471.12 170.133 471.854 168.133 473.32 166.6C474.854 165 476.82 164.2 479.22 164.2C481.754 164.2 483.72 164.933 485.12 166.4C486.52 167.867 487.22 169.933 487.22 172.6C487.22 175.133 486.487 177.2 485.02 178.8C483.554 180.333 481.62 181.1 479.22 181.1ZM0.234766 280V210H29.9348C34.0681 210 37.8014 211 41.1348 213C44.5348 214.933 47.2014 217.6 49.1348 221C51.1348 224.4 52.1348 228.233 52.1348 232.5C52.1348 236.833 51.1348 240.733 49.1348 244.2C47.2014 247.667 44.5348 250.433 41.1348 252.5C37.8014 254.5 34.0681 255.5 29.9348 255.5H15.2348V280H0.234766ZM15.0348 242H28.2348C29.8348 242 31.2681 241.6 32.5348 240.8C33.8014 239.933 34.8014 238.8 35.5348 237.4C36.3348 236 36.7348 234.4 36.7348 232.6C36.7348 230.8 36.3348 229.233 35.5348 227.9C34.8014 226.5 33.8014 225.433 32.5348 224.7C31.2681 223.9 29.8348 223.5 28.2348 223.5H15.0348V242ZM60.0668 280V227.1H73.7668L74.2668 244.1L71.8668 240.6C72.6668 237.867 73.9668 235.4 75.7668 233.2C77.5668 230.933 79.6668 229.167 82.0668 227.9C84.5335 226.633 87.1001 226 89.7668 226C90.9001 226 92.0001 226.1 93.0668 226.3C94.1335 226.5 95.0335 226.733 95.7668 227L91.9668 242.6C91.1668 242.2 90.2001 241.867 89.0668 241.6C87.9335 241.267 86.7668 241.1 85.5668 241.1C83.9668 241.1 82.4668 241.4 81.0668 242C79.7335 242.533 78.5668 243.333 77.5668 244.4C76.5668 245.4 75.7668 246.6 75.1668 248C74.6335 249.4 74.3668 250.933 74.3668 252.6V280H60.0668ZM122.768 281C117.368 281 112.535 279.833 108.268 277.5C104.068 275.1 100.735 271.833 98.2684 267.7C95.8684 263.567 94.6684 258.833 94.6684 253.5C94.6684 248.167 95.8684 243.467 98.2684 239.4C100.735 235.267 104.068 232 108.268 229.6C112.535 227.2 117.368 226 122.768 226C128.102 226 132.868 227.2 137.068 229.6C141.335 232 144.668 235.267 147.068 239.4C149.468 243.467 150.668 248.167 150.668 253.5C150.668 258.833 149.468 263.567 147.068 267.7C144.668 271.833 141.335 275.1 137.068 277.5C132.868 279.833 128.102 281 122.768 281ZM122.768 268.6C125.368 268.6 127.702 267.967 129.768 266.7C131.835 265.367 133.435 263.567 134.568 261.3C135.768 258.967 136.368 256.367 136.368 253.5C136.368 250.567 135.768 247.967 134.568 245.7C133.435 243.367 131.835 241.567 129.768 240.3C127.702 238.967 125.368 238.3 122.768 238.3C120.102 238.3 117.735 238.967 115.668 240.3C113.602 241.633 111.968 243.433 110.768 245.7C109.568 247.967 109.002 250.567 109.068 253.5C109.002 256.367 109.568 258.967 110.768 261.3C111.968 263.567 113.602 265.367 115.668 266.7C117.735 267.967 120.102 268.6 122.768 268.6ZM178.552 281C173.952 281 169.819 279.833 166.152 277.5C162.485 275.1 159.585 271.867 157.452 267.8C155.385 263.667 154.352 258.9 154.352 253.5C154.352 248.233 155.385 243.533 157.452 239.4C159.585 235.267 162.452 232 166.052 229.6C169.719 227.2 173.885 226 178.552 226C181.019 226 183.385 226.4 185.652 227.2C187.985 227.933 190.052 228.967 191.852 230.3C193.719 231.633 195.219 233.133 196.352 234.8C197.485 236.4 198.119 238.1 198.252 239.9L194.652 240.5V206H208.852V280H195.452L194.852 267.8L197.652 268.1C197.519 269.767 196.919 271.367 195.852 272.9C194.785 274.433 193.352 275.833 191.552 277.1C189.819 278.3 187.819 279.267 185.552 280C183.352 280.667 181.019 281 178.552 281ZM181.752 269.2C184.419 269.2 186.752 268.533 188.752 267.2C190.752 265.867 192.319 264.033 193.452 261.7C194.585 259.367 195.152 256.633 195.152 253.5C195.152 250.433 194.585 247.733 193.452 245.4C192.319 243 190.752 241.167 188.752 239.9C186.752 238.567 184.419 237.9 181.752 237.9C179.085 237.9 176.752 238.567 174.752 239.9C172.819 241.167 171.285 243 170.152 245.4C169.085 247.733 168.552 250.433 168.552 253.5C168.552 256.633 169.085 259.367 170.152 261.7C171.285 264.033 172.819 265.867 174.752 267.2C176.752 268.533 179.085 269.2 181.752 269.2ZM238.958 281C235.092 281 231.758 280.167 228.958 278.5C226.225 276.767 224.092 274.333 222.558 271.2C221.092 268 220.358 264.167 220.358 259.7V227.1H234.558V257.4C234.558 259.8 234.958 261.9 235.758 263.7C236.558 265.433 237.692 266.767 239.158 267.7C240.625 268.633 242.425 269.1 244.558 269.1C246.092 269.1 247.525 268.867 248.858 268.4C250.192 267.867 251.325 267.133 252.258 266.2C253.192 265.267 253.925 264.167 254.458 262.9C254.992 261.633 255.258 260.267 255.258 258.8V227.1H269.458V280H255.958L255.458 269.1L258.058 267.9C257.258 270.367 255.925 272.6 254.058 274.6C252.192 276.6 249.958 278.167 247.358 279.3C244.758 280.433 241.958 281 238.958 281ZM303.246 281C298.18 281 293.646 279.8 289.646 277.4C285.646 275 282.48 271.733 280.146 267.6C277.88 263.467 276.746 258.767 276.746 253.5C276.746 248.3 277.88 243.633 280.146 239.5C282.48 235.3 285.646 232 289.646 229.6C293.646 227.2 298.18 226 303.246 226C307.98 226 312.313 226.867 316.246 228.6C320.18 230.333 323.246 232.733 325.446 235.8L317.646 245.2C316.713 243.933 315.546 242.8 314.146 241.8C312.746 240.733 311.213 239.9 309.546 239.3C307.946 238.7 306.28 238.4 304.546 238.4C301.813 238.4 299.38 239.067 297.246 240.4C295.18 241.667 293.546 243.433 292.346 245.7C291.146 247.967 290.546 250.567 290.546 253.5C290.546 256.367 291.146 258.933 292.346 261.2C293.613 263.4 295.313 265.2 297.446 266.6C299.58 267.933 301.98 268.6 304.646 268.6C306.38 268.6 308.013 268.367 309.546 267.9C311.08 267.367 312.513 266.6 313.846 265.6C315.246 264.6 316.513 263.4 317.646 262L325.346 271.4C323.08 274.267 319.946 276.6 315.946 278.4C311.946 280.133 307.713 281 303.246 281ZM336.046 280V213.7H350.246V280H336.046ZM326.146 239.8V227.1H361.046V239.8H326.146ZM368.001 280V227.1H382.201V280H368.001ZM375.001 216.2C372.268 216.2 370.135 215.533 368.601 214.2C367.068 212.867 366.301 210.967 366.301 208.5C366.301 206.233 367.068 204.4 368.601 203C370.201 201.533 372.335 200.8 375.001 200.8C377.735 200.8 379.868 201.5 381.401 202.9C382.935 204.233 383.701 206.1 383.701 208.5C383.701 210.833 382.901 212.7 381.301 214.1C379.768 215.5 377.668 216.2 375.001 216.2ZM418.468 281C413.068 281 408.234 279.833 403.968 277.5C399.768 275.1 396.434 271.833 393.968 267.7C391.568 263.567 390.368 258.833 390.368 253.5C390.368 248.167 391.568 243.467 393.968 239.4C396.434 235.267 399.768 232 403.968 229.6C408.234 227.2 413.068 226 418.468 226C423.801 226 428.568 227.2 432.768 229.6C437.034 232 440.368 235.267 442.768 239.4C445.168 243.467 446.368 248.167 446.368 253.5C446.368 258.833 445.168 263.567 442.768 267.7C440.368 271.833 437.034 275.1 432.768 277.5C428.568 279.833 423.801 281 418.468 281ZM418.468 268.6C421.068 268.6 423.401 267.967 425.468 266.7C427.534 265.367 429.134 263.567 430.268 261.3C431.468 258.967 432.068 256.367 432.068 253.5C432.068 250.567 431.468 247.967 430.268 245.7C429.134 243.367 427.534 241.567 425.468 240.3C423.401 238.967 421.068 238.3 418.468 238.3C415.801 238.3 413.434 238.967 411.368 240.3C409.301 241.633 407.668 243.433 406.468 245.7C405.268 247.967 404.701 250.567 404.768 253.5C404.701 256.367 405.268 258.967 406.468 261.3C407.668 263.567 409.301 265.367 411.368 266.7C413.434 267.967 415.801 268.6 418.468 268.6ZM453.551 280V227.1H467.151L467.551 237.9L464.751 239.1C465.485 236.7 466.785 234.533 468.651 232.6C470.585 230.6 472.885 229 475.551 227.8C478.218 226.6 481.018 226 483.951 226C487.951 226 491.285 226.8 493.951 228.4C496.685 230 498.718 232.433 500.051 235.7C501.451 238.9 502.151 242.867 502.151 247.6V280H487.951V248.7C487.951 246.3 487.618 244.3 486.951 242.7C486.285 241.1 485.251 239.933 483.851 239.2C482.518 238.4 480.851 238.067 478.851 238.2C477.251 238.2 475.751 238.467 474.351 239C473.018 239.467 471.851 240.167 470.851 241.1C469.918 242.033 469.151 243.1 468.551 244.3C468.018 245.5 467.751 246.8 467.751 248.2V280H460.751C459.218 280 457.851 280 456.651 280C455.451 280 454.418 280 453.551 280ZM517.558 281.1C514.958 281.1 512.958 280.367 511.558 278.9C510.158 277.433 509.458 275.333 509.458 272.6C509.458 270.133 510.192 268.133 511.658 266.6C513.192 265 515.158 264.2 517.558 264.2C520.092 264.2 522.058 264.933 523.458 266.4C524.858 267.867 525.558 269.933 525.558 272.6C525.558 275.133 524.825 277.2 523.358 278.8C521.892 280.333 519.958 281.1 517.558 281.1Z" fill="white"/>
</svg>
