<svg width="545" height="140" viewBox="0 0 545 140" fill="none" xmlns="http://www.w3.org/2000/svg">
<path d="M0.647 50V5.2H18.887C21.319 5.2 23.5163 5.81866 25.479 7.056C27.4843 8.25067 29.0843 9.89333 30.279 11.984C31.4737 14.0747 32.071 16.4 32.071 18.96C32.071 21.52 31.4737 23.8453 30.279 25.936C29.0843 28.0267 27.4843 29.712 25.479 30.992C23.5163 32.2293 21.319 32.848 18.887 32.848H7.559V50H0.647ZM7.559 26.192H18.759C19.911 26.192 20.9563 25.872 21.895 25.232C22.8337 24.5493 23.5803 23.6747 24.135 22.608C24.7323 21.4987 25.031 20.2827 25.031 18.96C25.031 17.6373 24.7323 16.4427 24.135 15.376C23.5803 14.3093 22.8337 13.456 21.895 12.816C20.9563 12.176 19.911 11.856 18.759 11.856H7.559V26.192ZM39.5455 50V16.4H46.2015V26.96L45.5615 24.4C46.0308 22.7787 46.8202 21.3067 47.9295 19.984C49.0815 18.6613 50.3828 17.616 51.8335 16.848C53.3268 16.08 54.8628 15.696 56.4415 15.696C57.1668 15.696 57.8495 15.76 58.4895 15.888C59.1722 16.016 59.7055 16.1653 60.0895 16.336L58.3615 23.504C57.8495 23.2907 57.2735 23.12 56.6335 22.992C56.0362 22.8213 55.4388 22.736 54.8415 22.736C53.6895 22.736 52.5802 22.9707 51.5135 23.44C50.4895 23.8667 49.5722 24.4853 48.7615 25.296C47.9935 26.064 47.3748 26.9813 46.9055 28.048C46.4362 29.072 46.2015 30.2027 46.2015 31.44V50H39.5455ZM76.8485 50.64C74.0752 50.64 71.5365 49.872 69.2325 48.336C66.9712 46.8 65.1578 44.7093 63.7925 42.064C62.4272 39.4187 61.7445 36.432 61.7445 33.104C61.7445 29.7333 62.4272 26.7467 63.7925 24.144C65.2005 21.4987 67.0778 19.4293 69.4245 17.936C71.8138 16.4427 74.4805 15.696 77.4245 15.696C79.1738 15.696 80.7738 15.952 82.2245 16.464C83.6752 16.976 84.9338 17.7013 86.0005 18.64C87.1098 19.536 88.0058 20.5813 88.6885 21.776C89.4138 22.9707 89.8618 24.2507 90.0325 25.616L88.5605 25.104V16.4H95.2165V50H88.5605V42L90.0965 41.552C89.8405 42.704 89.3072 43.8347 88.4965 44.944C87.7285 46.0107 86.7258 46.9707 85.4885 47.824C84.2938 48.6773 82.9498 49.36 81.4565 49.872C80.0058 50.384 78.4698 50.64 76.8485 50.64ZM78.5765 44.56C80.5818 44.56 82.3525 44.0693 83.8885 43.088C85.4245 42.1067 86.6192 40.7627 87.4725 39.056C88.3685 37.3067 88.8165 35.3227 88.8165 33.104C88.8165 30.928 88.3685 28.9867 87.4725 27.28C86.6192 25.5733 85.4245 24.2293 83.8885 23.248C82.3525 22.2667 80.5818 21.776 78.5765 21.776C76.6138 21.776 74.8645 22.2667 73.3285 23.248C71.8352 24.2293 70.6405 25.5733 69.7445 27.28C68.8912 28.9867 68.4645 30.928 68.4645 33.104C68.4645 35.3227 68.8912 37.3067 69.7445 39.056C70.6405 40.7627 71.8352 42.1067 73.3285 43.088C74.8645 44.0693 76.6138 44.56 78.5765 44.56ZM120.101 50.64C116.645 50.64 113.573 49.9147 110.885 48.464C108.239 46.9707 106.149 44.944 104.613 42.384C103.119 39.824 102.373 36.88 102.373 33.552C102.373 30.9067 102.799 28.496 103.653 26.32C104.506 24.144 105.679 22.2667 107.173 20.688C108.709 19.0667 110.522 17.8293 112.613 16.976C114.746 16.08 117.05 15.632 119.525 15.632C121.701 15.632 123.727 16.0587 125.605 16.912C127.482 17.7227 129.103 18.8533 130.469 20.304C131.877 21.7547 132.943 23.4827 133.669 25.488C134.437 27.4507 134.799 29.6053 134.757 31.952L134.693 34.768H107.237L105.765 29.52H128.997L128.037 30.608V29.072C127.909 27.664 127.439 26.4053 126.629 25.296C125.818 24.1867 124.794 23.312 123.557 22.672C122.319 22.032 120.975 21.712 119.525 21.712C117.221 21.712 115.279 22.16 113.701 23.056C112.122 23.9093 110.927 25.1893 110.117 26.896C109.306 28.56 108.901 30.6293 108.901 33.104C108.901 35.4507 109.391 37.4987 110.373 39.248C111.354 40.9547 112.741 42.2773 114.533 43.216C116.325 44.1547 118.394 44.624 120.741 44.624C122.405 44.624 123.941 44.3467 125.349 43.792C126.799 43.2373 128.357 42.2347 130.021 40.784L133.349 45.456C132.325 46.48 131.066 47.376 129.573 48.144C128.122 48.912 126.565 49.5307 124.901 50C123.279 50.4267 121.679 50.64 120.101 50.64ZM153.121 50.64C150.305 50.64 147.766 50.1493 145.505 49.168C143.243 48.1867 141.366 46.736 139.873 44.816L144.353 40.976C145.633 42.4693 147.019 43.5573 148.513 44.24C150.049 44.88 151.777 45.2 153.697 45.2C154.465 45.2 155.169 45.1147 155.809 44.944C156.491 44.7307 157.067 44.432 157.537 44.048C158.049 43.664 158.433 43.216 158.689 42.704C158.945 42.1493 159.073 41.552 159.073 40.912C159.073 39.8027 158.667 38.9067 157.857 38.224C157.43 37.9253 156.747 37.6053 155.809 37.264C154.913 36.88 153.739 36.496 152.289 36.112C149.814 35.472 147.787 34.7467 146.209 33.936C144.63 33.1253 143.414 32.208 142.561 31.184C141.921 30.3733 141.451 29.4987 141.153 28.56C140.854 27.5787 140.705 26.512 140.705 25.36C140.705 23.952 141.003 22.672 141.601 21.52C142.241 20.3253 143.094 19.3013 144.161 18.448C145.27 17.552 146.55 16.8693 148.001 16.4C149.494 15.9307 151.073 15.696 152.737 15.696C154.315 15.696 155.873 15.9093 157.409 16.336C158.987 16.7627 160.438 17.3813 161.761 18.192C163.083 19.0027 164.193 19.9627 165.089 21.072L161.313 25.232C160.502 24.4213 159.606 23.7173 158.625 23.12C157.686 22.48 156.726 21.9893 155.745 21.648C154.763 21.3067 153.867 21.136 153.057 21.136C152.161 21.136 151.35 21.2213 150.625 21.392C149.899 21.5627 149.281 21.8187 148.769 22.16C148.299 22.5013 147.937 22.928 147.681 23.44C147.425 23.952 147.297 24.528 147.297 25.168C147.339 25.7227 147.467 26.256 147.681 26.768C147.937 27.2373 148.278 27.6427 148.705 27.984C149.174 28.3253 149.878 28.688 150.817 29.072C151.755 29.456 152.95 29.8187 154.401 30.16C156.534 30.7147 158.283 31.3333 159.649 32.016C161.057 32.656 162.166 33.4027 162.977 34.256C163.83 35.0667 164.427 36.0053 164.769 37.072C165.11 38.1387 165.281 39.3333 165.281 40.656C165.281 42.576 164.726 44.304 163.617 45.84C162.55 47.3333 161.099 48.5067 159.265 49.36C157.43 50.2133 155.382 50.64 153.121 50.64ZM188.226 50.64C184.77 50.64 181.698 49.9147 179.01 48.464C176.364 46.9707 174.274 44.944 172.738 42.384C171.244 39.824 170.498 36.88 170.498 33.552C170.498 30.9067 170.924 28.496 171.778 26.32C172.631 24.144 173.804 22.2667 175.298 20.688C176.834 19.0667 178.647 17.8293 180.738 16.976C182.871 16.08 185.175 15.632 187.65 15.632C189.826 15.632 191.852 16.0587 193.73 16.912C195.607 17.7227 197.228 18.8533 198.594 20.304C200.002 21.7547 201.068 23.4827 201.794 25.488C202.562 27.4507 202.924 29.6053 202.882 31.952L202.818 34.768H175.362L173.89 29.52H197.122L196.162 30.608V29.072C196.034 27.664 195.564 26.4053 194.754 25.296C193.943 24.1867 192.919 23.312 191.682 22.672C190.444 22.032 189.1 21.712 187.65 21.712C185.346 21.712 183.404 22.16 181.826 23.056C180.247 23.9093 179.052 25.1893 178.242 26.896C177.431 28.56 177.026 30.6293 177.026 33.104C177.026 35.4507 177.516 37.4987 178.498 39.248C179.479 40.9547 180.866 42.2773 182.658 43.216C184.45 44.1547 186.519 44.624 188.866 44.624C190.53 44.624 192.066 44.3467 193.474 43.792C194.924 43.2373 196.482 42.2347 198.146 40.784L201.474 45.456C200.45 46.48 199.191 47.376 197.698 48.144C196.247 48.912 194.69 49.5307 193.026 50C191.404 50.4267 189.804 50.64 188.226 50.64ZM210.046 50V16.4H216.638V23.312L215.486 24.08C215.912 22.5867 216.744 21.2213 217.982 19.984C219.219 18.704 220.691 17.68 222.398 16.912C224.104 16.1013 225.854 15.696 227.646 15.696C230.206 15.696 232.339 16.208 234.046 17.232C235.752 18.2133 237.032 19.728 237.886 21.776C238.739 23.824 239.166 26.4053 239.166 29.52V50H232.574V29.968C232.574 28.048 232.318 26.4693 231.806 25.232C231.294 23.952 230.504 23.0347 229.438 22.48C228.371 21.8827 227.048 21.6267 225.47 21.712C224.19 21.712 223.016 21.9253 221.95 22.352C220.883 22.736 219.944 23.2907 219.134 24.016C218.366 24.7413 217.747 25.5947 217.278 26.576C216.851 27.5147 216.638 28.5387 216.638 29.648V50H213.374C212.819 50 212.264 50 211.71 50C211.155 50 210.6 50 210.046 50ZM252.268 50V7.824H258.86V50H252.268ZM245.292 22.8V16.4H266.668V22.8H245.292ZM302.384 50.64C299.995 50.64 297.904 50.0853 296.112 48.976C294.363 47.8667 292.997 46.3093 292.016 44.304C291.077 42.2987 290.608 39.9093 290.608 37.136V16.4H297.2V35.344C297.2 37.3067 297.499 39.0133 298.096 40.464C298.736 41.872 299.632 42.96 300.784 43.728C301.979 44.496 303.408 44.88 305.072 44.88C306.309 44.88 307.44 44.688 308.464 44.304C309.488 43.8773 310.363 43.3013 311.088 42.576C311.856 41.8507 312.453 40.976 312.88 39.952C313.307 38.928 313.52 37.8187 313.52 36.624V16.4H320.112V50H313.52V42.96L314.672 42.192C314.16 43.7707 313.285 45.2 312.048 46.48C310.853 47.76 309.424 48.784 307.76 49.552C306.096 50.2773 304.304 50.64 302.384 50.64ZM329.358 50V16.4H336.014V26.96L335.374 24.4C335.843 22.7787 336.633 21.3067 337.742 19.984C338.894 18.6613 340.195 17.616 341.646 16.848C343.139 16.08 344.675 15.696 346.254 15.696C346.979 15.696 347.662 15.76 348.302 15.888C348.985 16.016 349.518 16.1653 349.902 16.336L348.174 23.504C347.662 23.2907 347.086 23.12 346.446 22.992C345.849 22.8213 345.251 22.736 344.654 22.736C343.502 22.736 342.393 22.9707 341.326 23.44C340.302 23.8667 339.385 24.4853 338.574 25.296C337.806 26.064 337.187 26.9813 336.718 28.048C336.249 29.072 336.014 30.2027 336.014 31.44V50H329.358ZM355.171 50V16.4H361.763V23.312L360.611 24.08C361.037 22.5867 361.869 21.2213 363.107 19.984C364.344 18.704 365.816 17.68 367.523 16.912C369.229 16.1013 370.979 15.696 372.771 15.696C375.331 15.696 377.464 16.208 379.171 17.232C380.877 18.2133 382.157 19.728 383.011 21.776C383.864 23.824 384.291 26.4053 384.291 29.52V50H377.699V29.968C377.699 28.048 377.443 26.4693 376.931 25.232C376.419 23.952 375.629 23.0347 374.563 22.48C373.496 21.8827 372.173 21.6267 370.595 21.712C369.315 21.712 368.141 21.9253 367.075 22.352C366.008 22.736 365.069 23.2907 364.259 24.016C363.491 24.7413 362.872 25.5947 362.403 26.576C361.976 27.5147 361.763 28.5387 361.763 29.648V50H358.499C357.944 50 357.389 50 356.835 50C356.28 50 355.725 50 355.171 50ZM406.161 50.64C403.388 50.64 400.849 49.872 398.545 48.336C396.284 46.8 394.47 44.7093 393.105 42.064C391.74 39.4187 391.057 36.432 391.057 33.104C391.057 29.7333 391.74 26.7467 393.105 24.144C394.513 21.4987 396.39 19.4293 398.737 17.936C401.126 16.4427 403.793 15.696 406.737 15.696C408.486 15.696 410.086 15.952 411.537 16.464C412.988 16.976 414.246 17.7013 415.313 18.64C416.422 19.536 417.318 20.5813 418.001 21.776C418.726 22.9707 419.174 24.2507 419.345 25.616L417.873 25.104V16.4H424.529V50H417.873V42L419.409 41.552C419.153 42.704 418.62 43.8347 417.809 44.944C417.041 46.0107 416.038 46.9707 414.801 47.824C413.606 48.6773 412.262 49.36 410.769 49.872C409.318 50.384 407.782 50.64 406.161 50.64ZM407.889 44.56C409.894 44.56 411.665 44.0693 413.201 43.088C414.737 42.1067 415.932 40.7627 416.785 39.056C417.681 37.3067 418.129 35.3227 418.129 33.104C418.129 30.928 417.681 28.9867 416.785 27.28C415.932 25.5733 414.737 24.2293 413.201 23.248C411.665 22.2667 409.894 21.776 407.889 21.776C405.926 21.776 404.177 22.2667 402.641 23.248C401.148 24.2293 399.953 25.5733 399.057 27.28C398.204 28.9867 397.777 30.928 397.777 33.104C397.777 35.3227 398.204 37.3067 399.057 39.056C399.953 40.7627 401.148 42.1067 402.641 43.088C404.177 44.0693 405.926 44.56 407.889 44.56ZM451.671 50V16.4H458.263V23.312L457.111 24.08C457.537 22.5867 458.369 21.2213 459.607 19.984C460.844 18.704 462.316 17.68 464.023 16.912C465.729 16.1013 467.479 15.696 469.271 15.696C471.831 15.696 473.964 16.208 475.671 17.232C477.377 18.2133 478.657 19.728 479.511 21.776C480.364 23.824 480.791 26.4053 480.791 29.52V50H474.199V29.968C474.199 28.048 473.943 26.4693 473.431 25.232C472.919 23.952 472.129 23.0347 471.063 22.48C469.996 21.8827 468.673 21.6267 467.095 21.712C465.815 21.712 464.641 21.9253 463.575 22.352C462.508 22.736 461.569 23.2907 460.759 24.016C459.991 24.7413 459.372 25.5947 458.903 26.576C458.476 27.5147 458.263 28.5387 458.263 29.648V50H454.999C454.444 50 453.889 50 453.335 50C452.78 50 452.225 50 451.671 50ZM490.821 50V16.4H497.413V50H490.821ZM494.021 8.976C492.613 8.976 491.525 8.61333 490.757 7.888C489.989 7.16267 489.605 6.13867 489.605 4.816C489.605 3.57867 489.989 2.576 490.757 1.808C491.568 1.04 492.656 0.655998 494.021 0.655998C495.429 0.655998 496.517 1.01867 497.285 1.744C498.053 2.46933 498.437 3.49333 498.437 4.816C498.437 6.05333 498.032 7.056 497.221 7.824C496.453 8.592 495.386 8.976 494.021 8.976ZM518.746 50.64C515.93 50.64 513.391 50.1493 511.13 49.168C508.868 48.1867 506.991 46.736 505.498 44.816L509.978 40.976C511.258 42.4693 512.644 43.5573 514.138 44.24C515.674 44.88 517.402 45.2 519.322 45.2C520.09 45.2 520.794 45.1147 521.434 44.944C522.116 44.7307 522.692 44.432 523.162 44.048C523.674 43.664 524.058 43.216 524.314 42.704C524.57 42.1493 524.698 41.552 524.698 40.912C524.698 39.8027 524.292 38.9067 523.482 38.224C523.055 37.9253 522.372 37.6053 521.434 37.264C520.538 36.88 519.364 36.496 517.914 36.112C515.439 35.472 513.412 34.7467 511.834 33.936C510.255 33.1253 509.039 32.208 508.186 31.184C507.546 30.3733 507.076 29.4987 506.778 28.56C506.479 27.5787 506.33 26.512 506.33 25.36C506.33 23.952 506.628 22.672 507.226 21.52C507.866 20.3253 508.719 19.3013 509.786 18.448C510.895 17.552 512.175 16.8693 513.626 16.4C515.119 15.9307 516.698 15.696 518.362 15.696C519.94 15.696 521.498 15.9093 523.034 16.336C524.612 16.7627 526.063 17.3813 527.386 18.192C528.708 19.0027 529.818 19.9627 530.714 21.072L526.938 25.232C526.127 24.4213 525.231 23.7173 524.25 23.12C523.311 22.48 522.351 21.9893 521.37 21.648C520.388 21.3067 519.492 21.136 518.682 21.136C517.786 21.136 516.975 21.2213 516.25 21.392C515.524 21.5627 514.906 21.8187 514.394 22.16C513.924 22.5013 513.562 22.928 513.306 23.44C513.05 23.952 512.922 24.528 512.922 25.168C512.964 25.7227 513.092 26.256 513.306 26.768C513.562 27.2373 513.903 27.6427 514.33 27.984C514.799 28.3253 515.503 28.688 516.442 29.072C517.38 29.456 518.575 29.8187 520.026 30.16C522.159 30.7147 523.908 31.3333 525.274 32.016C526.682 32.656 527.791 33.4027 528.602 34.256C529.455 35.0667 530.052 36.0053 530.394 37.072C530.735 38.1387 530.906 39.3333 530.906 40.656C530.906 42.576 530.351 44.304 529.242 45.84C528.175 47.3333 526.724 48.5067 524.89 49.36C523.055 50.2133 521.007 50.64 518.746 50.64ZM538.299 50V2.64H544.891V50H538.299ZM21.2238 125.64C18.1091 125.64 15.3144 124.872 12.8398 123.336C10.4078 121.8 8.46642 119.709 7.01575 117.064C5.60775 114.419 4.90375 111.453 4.90375 108.168C4.90375 104.883 5.60775 101.917 7.01575 99.272C8.46642 96.6267 10.4078 94.536 12.8398 93C15.3144 91.464 18.1091 90.696 21.2238 90.696C24.2104 90.696 26.9198 91.3147 29.3518 92.552C31.8264 93.7467 33.7038 95.3893 34.9838 97.48L31.3358 101.96C30.6531 100.979 29.7784 100.083 28.7118 99.272C27.6451 98.4613 26.5144 97.8213 25.3198 97.352C24.1251 96.8827 22.9731 96.648 21.8638 96.648C19.8158 96.648 17.9811 97.16 16.3598 98.184C14.7811 99.1653 13.5224 100.531 12.5838 102.28C11.6451 104.029 11.1758 105.992 11.1758 108.168C11.1758 110.344 11.6664 112.307 12.6478 114.056C13.6291 115.763 14.9304 117.128 16.5518 118.152C18.1731 119.176 19.9651 119.688 21.9278 119.688C23.0798 119.688 24.1891 119.496 25.2558 119.112C26.3651 118.728 27.4318 118.152 28.4558 117.384C29.4798 116.616 30.4398 115.677 31.3358 114.568L34.9838 119.048C33.6184 120.968 31.6558 122.547 29.0958 123.784C26.5784 125.021 23.9544 125.64 21.2238 125.64ZM56.3058 125.64C53.0204 125.64 50.0764 124.893 47.4738 123.4C44.9138 121.864 42.8871 119.795 41.3938 117.192C39.9004 114.547 39.1538 111.539 39.1538 108.168C39.1538 104.797 39.9004 101.811 41.3938 99.208C42.8871 96.5627 44.9138 94.4933 47.4738 93C50.0764 91.464 53.0204 90.696 56.3058 90.696C59.5484 90.696 62.4498 91.464 65.0098 93C67.6124 94.4933 69.6604 96.5627 71.1538 99.208C72.6471 101.811 73.3938 104.797 73.3938 108.168C73.3938 111.539 72.6471 114.547 71.1538 117.192C69.6604 119.795 67.6124 121.864 65.0098 123.4C62.4498 124.893 59.5484 125.64 56.3058 125.64ZM56.3058 119.624C58.3111 119.624 60.1031 119.133 61.6818 118.152C63.2604 117.128 64.4978 115.763 65.3938 114.056C66.2898 112.307 66.7164 110.344 66.6738 108.168C66.7164 105.949 66.2898 103.987 65.3938 102.28C64.4978 100.531 63.2604 99.1653 61.6818 98.184C60.1031 97.2027 58.3111 96.712 56.3058 96.712C54.3004 96.712 52.4871 97.224 50.8658 98.248C49.2871 99.2293 48.0498 100.595 47.1538 102.344C46.2578 104.051 45.8311 105.992 45.8738 108.168C45.8311 110.344 46.2578 112.307 47.1538 114.056C48.0498 115.763 49.2871 117.128 50.8658 118.152C52.4871 119.133 54.3004 119.624 56.3058 119.624ZM80.5768 125V91.4H87.1688V98.312L86.0168 99.08C86.4434 97.5867 87.2754 96.2213 88.5128 94.984C89.7501 93.704 91.2221 92.68 92.9288 91.912C94.6354 91.1013 96.3848 90.696 98.1768 90.696C100.737 90.696 102.87 91.208 104.577 92.232C106.283 93.2133 107.563 94.728 108.417 96.776C109.27 98.824 109.697 101.405 109.697 104.52V125H103.105V104.968C103.105 103.048 102.849 101.469 102.337 100.232C101.825 98.952 101.035 98.0347 99.9688 97.48C98.9021 96.8827 97.5794 96.6267 96.0008 96.712C94.7208 96.712 93.5474 96.9253 92.4808 97.352C91.4141 97.736 90.4754 98.2907 89.6648 99.016C88.8968 99.7413 88.2781 100.595 87.8088 101.576C87.3821 102.515 87.1688 103.539 87.1688 104.648V125H83.9048C83.3501 125 82.7954 125 82.2408 125C81.6861 125 81.1314 125 80.5768 125ZM129.647 125L115.439 91.4H122.543L132.783 116.552L131.567 117.128L142.511 91.4H149.295L134.383 125H129.647ZM167.317 125.64C164.544 125.64 162.005 124.872 159.701 123.336C157.44 121.8 155.627 119.709 154.261 117.064C152.896 114.419 152.213 111.432 152.213 108.104C152.213 104.733 152.896 101.747 154.261 99.144C155.669 96.4987 157.547 94.4293 159.893 92.936C162.283 91.4427 164.949 90.696 167.893 90.696C169.643 90.696 171.243 90.952 172.693 91.464C174.144 91.976 175.403 92.7013 176.469 93.64C177.579 94.536 178.475 95.5813 179.157 96.776C179.883 97.9707 180.331 99.2507 180.501 100.616L179.029 100.104V91.4H185.685V125H179.029V117L180.565 116.552C180.309 117.704 179.776 118.835 178.965 119.944C178.197 121.011 177.195 121.971 175.957 122.824C174.763 123.677 173.419 124.36 171.925 124.872C170.475 125.384 168.939 125.64 167.317 125.64ZM169.045 119.56C171.051 119.56 172.821 119.069 174.357 118.088C175.893 117.107 177.088 115.763 177.941 114.056C178.837 112.307 179.285 110.323 179.285 108.104C179.285 105.928 178.837 103.987 177.941 102.28C177.088 100.573 175.893 99.2293 174.357 98.248C172.821 97.2667 171.051 96.776 169.045 96.776C167.083 96.776 165.333 97.2667 163.797 98.248C162.304 99.2293 161.109 100.573 160.213 102.28C159.36 103.987 158.933 105.928 158.933 108.104C158.933 110.323 159.36 112.307 160.213 114.056C161.109 115.763 162.304 117.107 163.797 118.088C165.333 119.069 167.083 119.56 169.045 119.56ZM195.017 125V77.64H201.609V125H195.017ZM211.08 125V77.64H217.672V125H211.08ZM228.102 125V91.4H234.694V125H228.102ZM231.302 83.976C229.894 83.976 228.806 83.6133 228.038 82.888C227.27 82.1627 226.886 81.1387 226.886 79.816C226.886 78.5787 227.27 77.576 228.038 76.808C228.849 76.04 229.937 75.656 231.302 75.656C232.71 75.656 233.798 76.0187 234.566 76.744C235.334 77.4693 235.718 78.4933 235.718 79.816C235.718 81.0533 235.313 82.056 234.502 82.824C233.734 83.592 232.668 83.976 231.302 83.976ZM256.027 125.64C253.211 125.64 250.672 125.149 248.411 124.168C246.149 123.187 244.272 121.736 242.779 119.816L247.259 115.976C248.539 117.469 249.925 118.557 251.419 119.24C252.955 119.88 254.683 120.2 256.603 120.2C257.371 120.2 258.075 120.115 258.715 119.944C259.397 119.731 259.973 119.432 260.443 119.048C260.955 118.664 261.339 118.216 261.595 117.704C261.851 117.149 261.979 116.552 261.979 115.912C261.979 114.803 261.573 113.907 260.763 113.224C260.336 112.925 259.653 112.605 258.715 112.264C257.819 111.88 256.645 111.496 255.195 111.112C252.72 110.472 250.693 109.747 249.115 108.936C247.536 108.125 246.32 107.208 245.467 106.184C244.827 105.373 244.357 104.499 244.059 103.56C243.76 102.579 243.611 101.512 243.611 100.36C243.611 98.952 243.909 97.672 244.507 96.52C245.147 95.3253 246 94.3013 247.067 93.448C248.176 92.552 249.456 91.8693 250.907 91.4C252.4 90.9307 253.979 90.696 255.643 90.696C257.221 90.696 258.779 90.9093 260.315 91.336C261.893 91.7627 263.344 92.3813 264.667 93.192C265.989 94.0027 267.099 94.9627 267.995 96.072L264.219 100.232C263.408 99.4213 262.512 98.7173 261.531 98.12C260.592 97.48 259.632 96.9893 258.651 96.648C257.669 96.3067 256.773 96.136 255.963 96.136C255.067 96.136 254.256 96.2213 253.531 96.392C252.805 96.5627 252.187 96.8187 251.675 97.16C251.205 97.5013 250.843 97.928 250.587 98.44C250.331 98.952 250.203 99.528 250.203 100.168C250.245 100.723 250.373 101.256 250.587 101.768C250.843 102.237 251.184 102.643 251.611 102.984C252.08 103.325 252.784 103.688 253.723 104.072C254.661 104.456 255.856 104.819 257.307 105.16C259.44 105.715 261.189 106.333 262.555 107.016C263.963 107.656 265.072 108.403 265.883 109.256C266.736 110.067 267.333 111.005 267.675 112.072C268.016 113.139 268.187 114.333 268.187 115.656C268.187 117.576 267.632 119.304 266.523 120.84C265.456 122.333 264.005 123.507 262.171 124.36C260.336 125.213 258.288 125.64 256.027 125.64ZM306.317 125.64C303.544 125.64 301.005 124.872 298.701 123.336C296.44 121.8 294.627 119.709 293.261 117.064C291.896 114.419 291.213 111.432 291.213 108.104C291.213 104.733 291.896 101.747 293.261 99.144C294.669 96.4987 296.547 94.4293 298.893 92.936C301.283 91.4427 303.949 90.696 306.893 90.696C308.643 90.696 310.243 90.952 311.693 91.464C313.144 91.976 314.403 92.7013 315.469 93.64C316.579 94.536 317.475 95.5813 318.157 96.776C318.883 97.9707 319.331 99.2507 319.501 100.616L318.029 100.104V91.4H324.685V125H318.029V117L319.565 116.552C319.309 117.704 318.776 118.835 317.965 119.944C317.197 121.011 316.195 121.971 314.957 122.824C313.763 123.677 312.419 124.36 310.925 124.872C309.475 125.384 307.939 125.64 306.317 125.64ZM308.045 119.56C310.051 119.56 311.821 119.069 313.357 118.088C314.893 117.107 316.088 115.763 316.941 114.056C317.837 112.307 318.285 110.323 318.285 108.104C318.285 105.928 317.837 103.987 316.941 102.28C316.088 100.573 314.893 99.2293 313.357 98.248C311.821 97.2667 310.051 96.776 308.045 96.776C306.083 96.776 304.333 97.2667 302.797 98.248C301.304 99.2293 300.109 100.573 299.213 102.28C298.36 103.987 297.933 105.928 297.933 108.104C297.933 110.323 298.36 112.307 299.213 114.056C300.109 115.763 301.304 117.107 302.797 118.088C304.333 119.069 306.083 119.56 308.045 119.56ZM334.017 125V77.64H340.609V125H334.017ZM351.04 125V91.4H357.632V125H351.04ZM354.24 83.976C352.832 83.976 351.744 83.6133 350.976 82.888C350.208 82.1627 349.824 81.1387 349.824 79.816C349.824 78.5787 350.208 77.576 350.976 76.808C351.786 76.04 352.874 75.656 354.24 75.656C355.648 75.656 356.736 76.0187 357.504 76.744C358.272 77.4693 358.656 78.4933 358.656 79.816C358.656 81.0533 358.25 82.056 357.44 82.824C356.672 83.592 355.605 83.976 354.24 83.976ZM392.276 139.08V117H393.556C393.556 118.024 393.215 119.048 392.532 120.072C391.85 121.053 390.932 121.971 389.78 122.824C388.628 123.677 387.348 124.36 385.94 124.872C384.532 125.384 383.082 125.64 381.588 125.64C378.559 125.64 375.85 124.893 373.46 123.4C371.071 121.864 369.172 119.795 367.764 117.192C366.399 114.547 365.716 111.539 365.716 108.168C365.716 104.797 366.399 101.811 367.764 99.208C369.13 96.5627 370.986 94.4933 373.332 93C375.722 91.464 378.41 90.696 381.396 90.696C383.06 90.696 384.639 90.9733 386.132 91.528C387.668 92.0827 389.034 92.808 390.228 93.704C391.466 94.6 392.426 95.6027 393.108 96.712C393.834 97.7787 394.196 98.8667 394.196 99.976L392.276 100.104V91.336H398.868V139.08H392.276ZM382.292 119.56C384.298 119.56 386.068 119.069 387.604 118.088C389.14 117.107 390.335 115.763 391.188 114.056C392.084 112.349 392.532 110.387 392.532 108.168C392.532 105.949 392.084 103.987 391.188 102.28C390.335 100.531 389.14 99.1653 387.604 98.184C386.068 97.2027 384.298 96.712 382.292 96.712C380.287 96.712 378.516 97.224 376.98 98.248C375.444 99.2293 374.228 100.595 373.332 102.344C372.479 104.051 372.052 105.992 372.052 108.168C372.052 110.344 372.479 112.307 373.332 114.056C374.228 115.763 375.444 117.107 376.98 118.088C378.516 119.069 380.287 119.56 382.292 119.56ZM419.853 125.64C417.463 125.64 415.373 125.085 413.581 123.976C411.831 122.867 410.466 121.309 409.485 119.304C408.546 117.299 408.077 114.909 408.077 112.136V91.4H414.669V110.344C414.669 112.307 414.967 114.013 415.565 115.464C416.205 116.872 417.101 117.96 418.253 118.728C419.447 119.496 420.877 119.88 422.541 119.88C423.778 119.88 424.909 119.688 425.933 119.304C426.957 118.877 427.831 118.301 428.557 117.576C429.325 116.851 429.922 115.976 430.349 114.952C430.775 113.928 430.989 112.819 430.989 111.624V91.4H437.581V125H430.989V117.96L432.141 117.192C431.629 118.771 430.754 120.2 429.517 121.48C428.322 122.76 426.893 123.784 425.229 124.552C423.565 125.277 421.773 125.64 419.853 125.64ZM459.755 125.64C456.981 125.64 454.443 124.872 452.139 123.336C449.877 121.8 448.064 119.709 446.699 117.064C445.333 114.419 444.651 111.432 444.651 108.104C444.651 104.733 445.333 101.747 446.699 99.144C448.107 96.4987 449.984 94.4293 452.331 92.936C454.72 91.4427 457.387 90.696 460.331 90.696C462.08 90.696 463.68 90.952 465.131 91.464C466.581 91.976 467.84 92.7013 468.907 93.64C470.016 94.536 470.912 95.5813 471.595 96.776C472.32 97.9707 472.768 99.2507 472.939 100.616L471.467 100.104V91.4H478.123V125H471.467V117L473.003 116.552C472.747 117.704 472.213 118.835 471.403 119.944C470.635 121.011 469.632 121.971 468.395 122.824C467.2 123.677 465.856 124.36 464.363 124.872C462.912 125.384 461.376 125.64 459.755 125.64ZM461.483 119.56C463.488 119.56 465.259 119.069 466.795 118.088C468.331 117.107 469.525 115.763 470.379 114.056C471.275 112.307 471.723 110.323 471.723 108.104C471.723 105.928 471.275 103.987 470.379 102.28C469.525 100.573 468.331 99.2293 466.795 98.248C465.259 97.2667 463.488 96.776 461.483 96.776C459.52 96.776 457.771 97.2667 456.235 98.248C454.741 99.2293 453.547 100.573 452.651 102.28C451.797 103.987 451.371 105.928 451.371 108.104C451.371 110.323 451.797 112.307 452.651 114.056C453.547 115.763 454.741 117.107 456.235 118.088C457.771 119.069 459.52 119.56 461.483 119.56ZM487.199 125V91.4H493.855V98.568L492.639 99.336C492.98 98.2267 493.513 97.16 494.239 96.136C495.007 95.112 495.924 94.216 496.991 93.448C498.1 92.6373 499.273 91.9973 500.511 91.528C501.791 91.0587 503.092 90.824 504.415 90.824C506.335 90.824 508.02 91.144 509.471 91.784C510.921 92.424 512.116 93.384 513.055 94.664C513.993 95.944 514.676 97.544 515.103 99.464L514.079 99.208L514.527 98.12C514.996 97.1387 515.636 96.2213 516.447 95.368C517.3 94.472 518.26 93.6827 519.327 93C520.393 92.3173 521.524 91.784 522.719 91.4C523.913 91.016 525.087 90.824 526.239 90.824C528.756 90.824 530.825 91.336 532.447 92.36C534.111 93.384 535.348 94.9413 536.159 97.032C537.012 99.1227 537.439 101.725 537.439 104.84V125H530.783V105.224C530.783 103.304 530.527 101.747 530.015 100.552C529.545 99.3147 528.82 98.3973 527.839 97.8C526.857 97.2027 525.599 96.904 524.063 96.904C522.868 96.904 521.737 97.1173 520.671 97.544C519.647 97.928 518.751 98.4827 517.983 99.208C517.215 99.9333 516.617 100.787 516.191 101.768C515.764 102.707 515.551 103.752 515.551 104.904V125H508.895V105.096C508.895 103.347 508.639 101.875 508.127 100.68C507.615 99.4427 506.868 98.504 505.887 97.864C504.905 97.224 503.711 96.904 502.303 96.904C501.108 96.904 499.999 97.1173 498.975 97.544C497.951 97.928 497.055 98.4827 496.287 99.208C495.519 99.8907 494.921 100.723 494.495 101.704C494.068 102.643 493.855 103.667 493.855 104.776V125H487.199Z" fill="white"/>
</svg>
