<svg width="268" height="285" viewBox="0 0 268 285" fill="none" xmlns="http://www.w3.org/2000/svg">
<path d="M1.92825 45V0.199997H20.1683C22.6003 0.199997 24.7976 0.818665 26.7603 2.056C28.7656 3.25067 30.3656 4.89333 31.5603 6.984C32.7549 9.07467 33.3523 11.4 33.3523 13.96C33.3523 16.52 32.7549 18.8453 31.5603 20.936C30.3656 23.0267 28.7656 24.712 26.7603 25.992C24.7976 27.2293 22.6003 27.848 20.1683 27.848H8.84025V45H1.92825ZM8.84025 21.192H20.0403C21.1923 21.192 22.2376 20.872 23.1763 20.232C24.1149 19.5493 24.8616 18.6747 25.4163 17.608C26.0136 16.4987 26.3123 15.2827 26.3123 13.96C26.3123 12.6373 26.0136 11.4427 25.4163 10.376C24.8616 9.30933 24.1149 8.456 23.1763 7.816C22.2376 7.176 21.1923 6.856 20.0403 6.856H8.84025V21.192ZM40.8268 45V11.4H47.4828V21.96L46.8428 19.4C47.3121 17.7787 48.1014 16.3067 49.2108 14.984C50.3628 13.6613 51.6641 12.616 53.1147 11.848C54.6081 11.08 56.1441 10.696 57.7228 10.696C58.4481 10.696 59.1308 10.76 59.7708 10.888C60.4534 11.016 60.9868 11.1653 61.3708 11.336L59.6428 18.504C59.1308 18.2907 58.5548 18.12 57.9148 17.992C57.3174 17.8213 56.7201 17.736 56.1228 17.736C54.9708 17.736 53.8614 17.9707 52.7948 18.44C51.7708 18.8667 50.8534 19.4853 50.0428 20.296C49.2748 21.064 48.6561 21.9813 48.1868 23.048C47.7174 24.072 47.4828 25.2027 47.4828 26.44V45H40.8268ZM78.1298 45.64C75.3564 45.64 72.8178 44.872 70.5138 43.336C68.2524 41.8 66.4391 39.7093 65.0738 37.064C63.7084 34.4187 63.0258 31.432 63.0258 28.104C63.0258 24.7333 63.7084 21.7467 65.0738 19.144C66.4818 16.4987 68.3591 14.4293 70.7058 12.936C73.0951 11.4427 75.7618 10.696 78.7058 10.696C80.4551 10.696 82.0551 10.952 83.5058 11.464C84.9564 11.976 86.2151 12.7013 87.2818 13.64C88.3911 14.536 89.2871 15.5813 89.9698 16.776C90.6951 17.9707 91.1431 19.2507 91.3138 20.616L89.8418 20.104V11.4H96.4978V45H89.8418V37L91.3778 36.552C91.1218 37.704 90.5884 38.8347 89.7778 39.944C89.0098 41.0107 88.0071 41.9707 86.7698 42.824C85.5751 43.6773 84.2311 44.36 82.7378 44.872C81.2871 45.384 79.7511 45.64 78.1298 45.64ZM79.8578 39.56C81.8631 39.56 83.6338 39.0693 85.1698 38.088C86.7058 37.1067 87.9004 35.7627 88.7538 34.056C89.6498 32.3067 90.0978 30.3227 90.0978 28.104C90.0978 25.928 89.6498 23.9867 88.7538 22.28C87.9004 20.5733 86.7058 19.2293 85.1698 18.248C83.6338 17.2667 81.8631 16.776 79.8578 16.776C77.8951 16.776 76.1458 17.2667 74.6098 18.248C73.1164 19.2293 71.9218 20.5733 71.0258 22.28C70.1724 23.9867 69.7458 25.928 69.7458 28.104C69.7458 30.3227 70.1724 32.3067 71.0258 34.056C71.9218 35.7627 73.1164 37.1067 74.6098 38.088C76.1458 39.0693 77.8951 39.56 79.8578 39.56ZM121.382 45.64C117.926 45.64 114.854 44.9147 112.166 43.464C109.52 41.9707 107.43 39.944 105.894 37.384C104.4 34.824 103.654 31.88 103.654 28.552C103.654 25.9067 104.08 23.496 104.934 21.32C105.787 19.144 106.96 17.2667 108.454 15.688C109.99 14.0667 111.803 12.8293 113.894 11.976C116.027 11.08 118.331 10.632 120.806 10.632C122.982 10.632 125.008 11.0587 126.886 11.912C128.763 12.7227 130.384 13.8533 131.75 15.304C133.158 16.7547 134.224 18.4827 134.95 20.488C135.718 22.4507 136.08 24.6053 136.038 26.952L135.974 29.768H108.518L107.046 24.52H130.278L129.318 25.608V24.072C129.19 22.664 128.72 21.4053 127.91 20.296C127.099 19.1867 126.075 18.312 124.838 17.672C123.6 17.032 122.256 16.712 120.806 16.712C118.502 16.712 116.56 17.16 114.982 18.056C113.403 18.9093 112.208 20.1893 111.398 21.896C110.587 23.56 110.182 25.6293 110.182 28.104C110.182 30.4507 110.672 32.4987 111.654 34.248C112.635 35.9547 114.022 37.2773 115.814 38.216C117.606 39.1547 119.675 39.624 122.022 39.624C123.686 39.624 125.222 39.3467 126.63 38.792C128.08 38.2373 129.638 37.2347 131.302 35.784L134.63 40.456C133.606 41.48 132.347 42.376 130.854 43.144C129.403 43.912 127.846 44.5307 126.182 45C124.56 45.4267 122.96 45.64 121.382 45.64ZM154.402 45.64C151.586 45.64 149.047 45.1493 146.786 44.168C144.524 43.1867 142.647 41.736 141.154 39.816L145.634 35.976C146.914 37.4693 148.3 38.5573 149.794 39.24C151.33 39.88 153.058 40.2 154.978 40.2C155.746 40.2 156.45 40.1147 157.09 39.944C157.772 39.7307 158.348 39.432 158.818 39.048C159.33 38.664 159.714 38.216 159.97 37.704C160.226 37.1493 160.354 36.552 160.354 35.912C160.354 34.8027 159.948 33.9067 159.138 33.224C158.711 32.9253 158.028 32.6053 157.09 32.264C156.194 31.88 155.02 31.496 153.57 31.112C151.095 30.472 149.068 29.7467 147.49 28.936C145.911 28.1253 144.695 27.208 143.842 26.184C143.202 25.3733 142.732 24.4987 142.434 23.56C142.135 22.5787 141.986 21.512 141.986 20.36C141.986 18.952 142.284 17.672 142.882 16.52C143.522 15.3253 144.375 14.3013 145.442 13.448C146.551 12.552 147.831 11.8693 149.282 11.4C150.775 10.9307 152.354 10.696 154.018 10.696C155.596 10.696 157.154 10.9093 158.69 11.336C160.268 11.7627 161.719 12.3813 163.042 13.192C164.364 14.0027 165.474 14.9627 166.37 16.072L162.594 20.232C161.783 19.4213 160.887 18.7173 159.906 18.12C158.967 17.48 158.007 16.9893 157.026 16.648C156.044 16.3067 155.148 16.136 154.338 16.136C153.442 16.136 152.631 16.2213 151.906 16.392C151.18 16.5627 150.562 16.8187 150.05 17.16C149.58 17.5013 149.218 17.928 148.962 18.44C148.706 18.952 148.578 19.528 148.578 20.168C148.62 20.7227 148.748 21.256 148.962 21.768C149.218 22.2373 149.559 22.6427 149.986 22.984C150.455 23.3253 151.159 23.688 152.098 24.072C153.036 24.456 154.231 24.8187 155.682 25.16C157.815 25.7147 159.564 26.3333 160.93 27.016C162.338 27.656 163.447 28.4027 164.258 29.256C165.111 30.0667 165.708 31.0053 166.05 32.072C166.391 33.1387 166.562 34.3333 166.562 35.656C166.562 37.576 166.007 39.304 164.898 40.84C163.831 42.3333 162.38 43.5067 160.546 44.36C158.711 45.2133 156.663 45.64 154.402 45.64ZM189.507 45.64C186.051 45.64 182.979 44.9147 180.291 43.464C177.645 41.9707 175.555 39.944 174.019 37.384C172.525 34.824 171.779 31.88 171.779 28.552C171.779 25.9067 172.205 23.496 173.059 21.32C173.912 19.144 175.085 17.2667 176.579 15.688C178.115 14.0667 179.928 12.8293 182.019 11.976C184.152 11.08 186.456 10.632 188.931 10.632C191.107 10.632 193.133 11.0587 195.011 11.912C196.888 12.7227 198.509 13.8533 199.875 15.304C201.283 16.7547 202.349 18.4827 203.075 20.488C203.843 22.4507 204.205 24.6053 204.163 26.952L204.099 29.768H176.643L175.171 24.52H198.403L197.443 25.608V24.072C197.315 22.664 196.845 21.4053 196.035 20.296C195.224 19.1867 194.2 18.312 192.963 17.672C191.725 17.032 190.381 16.712 188.931 16.712C186.627 16.712 184.685 17.16 183.107 18.056C181.528 18.9093 180.333 20.1893 179.523 21.896C178.712 23.56 178.307 25.6293 178.307 28.104C178.307 30.4507 178.797 32.4987 179.779 34.248C180.76 35.9547 182.147 37.2773 183.939 38.216C185.731 39.1547 187.8 39.624 190.147 39.624C191.811 39.624 193.347 39.3467 194.755 38.792C196.205 38.2373 197.763 37.2347 199.427 35.784L202.755 40.456C201.731 41.48 200.472 42.376 198.979 43.144C197.528 43.912 195.971 44.5307 194.307 45C192.685 45.4267 191.085 45.64 189.507 45.64ZM211.327 45V11.4H217.919V18.312L216.767 19.08C217.193 17.5867 218.025 16.2213 219.263 14.984C220.5 13.704 221.972 12.68 223.679 11.912C225.385 11.1013 227.135 10.696 228.927 10.696C231.487 10.696 233.62 11.208 235.327 12.232C237.033 13.2133 238.313 14.728 239.167 16.776C240.02 18.824 240.447 21.4053 240.447 24.52V45H233.855V24.968C233.855 23.048 233.599 21.4693 233.087 20.232C232.575 18.952 231.785 18.0347 230.719 17.48C229.652 16.8827 228.329 16.6267 226.751 16.712C225.471 16.712 224.297 16.9253 223.231 17.352C222.164 17.736 221.225 18.2907 220.415 19.016C219.647 19.7413 219.028 20.5947 218.559 21.576C218.132 22.5147 217.919 23.5387 217.919 24.648V45H214.655C214.1 45 213.545 45 212.991 45C212.436 45 211.881 45 211.327 45ZM253.549 45V2.824H260.141V45H253.549ZM246.573 17.8V11.4H267.949V17.8H246.573ZM17.0715 120.64C14.6822 120.64 12.5915 120.085 10.7995 118.976C9.05017 117.867 7.68483 116.309 6.7035 114.304C5.76483 112.299 5.2955 109.909 5.2955 107.136V86.4H11.8875V105.344C11.8875 107.307 12.1862 109.013 12.7835 110.464C13.4235 111.872 14.3195 112.96 15.4715 113.728C16.6662 114.496 18.0955 114.88 19.7595 114.88C20.9968 114.88 22.1275 114.688 23.1515 114.304C24.1755 113.877 25.0502 113.301 25.7755 112.576C26.5435 111.851 27.1408 110.976 27.5675 109.952C27.9942 108.928 28.2075 107.819 28.2075 106.624V86.4H34.7995V120H28.2075V112.96L29.3595 112.192C28.8475 113.771 27.9728 115.2 26.7355 116.48C25.5408 117.76 24.1115 118.784 22.4475 119.552C20.7835 120.277 18.9915 120.64 17.0715 120.64ZM44.0455 120V86.4H50.7015V96.96L50.0615 94.4C50.5308 92.7787 51.3202 91.3067 52.4295 89.984C53.5815 88.6613 54.8828 87.616 56.3335 86.848C57.8268 86.08 59.3628 85.696 60.9415 85.696C61.6668 85.696 62.3495 85.76 62.9895 85.888C63.6722 86.016 64.2055 86.1653 64.5895 86.336L62.8615 93.504C62.3495 93.2907 61.7735 93.12 61.1335 92.992C60.5362 92.8213 59.9388 92.736 59.3415 92.736C58.1895 92.736 57.0802 92.9707 56.0135 93.44C54.9895 93.8667 54.0722 94.4853 53.2615 95.296C52.4935 96.064 51.8748 96.9813 51.4055 98.048C50.9362 99.072 50.7015 100.203 50.7015 101.44V120H44.0455ZM69.858 120V86.4H76.45V93.312L75.298 94.08C75.7247 92.5867 76.5567 91.2213 77.794 89.984C79.0313 88.704 80.5033 87.68 82.21 86.912C83.9167 86.1013 85.666 85.696 87.458 85.696C90.018 85.696 92.1513 86.208 93.858 87.232C95.5647 88.2133 96.8447 89.728 97.698 91.776C98.5513 93.824 98.978 96.4053 98.978 99.52V120H92.386V99.968C92.386 98.048 92.13 96.4693 91.618 95.232C91.106 93.952 90.3167 93.0347 89.25 92.48C88.1833 91.8827 86.8607 91.6267 85.282 91.712C84.002 91.712 82.8287 91.9253 81.762 92.352C80.6953 92.736 79.7567 93.2907 78.946 94.016C78.178 94.7413 77.5593 95.5947 77.09 96.576C76.6633 97.5147 76.45 98.5387 76.45 99.648V120H73.186C72.6313 120 72.0767 120 71.522 120C70.9673 120 70.4127 120 69.858 120ZM120.849 120.64C118.075 120.64 115.537 119.872 113.233 118.336C110.971 116.8 109.158 114.709 107.793 112.064C106.427 109.419 105.745 106.432 105.745 103.104C105.745 99.7333 106.427 96.7467 107.793 94.144C109.201 91.4987 111.078 89.4293 113.425 87.936C115.814 86.4427 118.481 85.696 121.425 85.696C123.174 85.696 124.774 85.952 126.225 86.464C127.675 86.976 128.934 87.7013 130.001 88.64C131.11 89.536 132.006 90.5813 132.689 91.776C133.414 92.9707 133.862 94.2507 134.033 95.616L132.561 95.104V86.4H139.217V120H132.561V112L134.097 111.552C133.841 112.704 133.307 113.835 132.497 114.944C131.729 116.011 130.726 116.971 129.489 117.824C128.294 118.677 126.95 119.36 125.457 119.872C124.006 120.384 122.47 120.64 120.849 120.64ZM122.577 114.56C124.582 114.56 126.353 114.069 127.889 113.088C129.425 112.107 130.619 110.763 131.473 109.056C132.369 107.307 132.817 105.323 132.817 103.104C132.817 100.928 132.369 98.9867 131.473 97.28C130.619 95.5733 129.425 94.2293 127.889 93.248C126.353 92.2667 124.582 91.776 122.577 91.776C120.614 91.776 118.865 92.2667 117.329 93.248C115.835 94.2293 114.641 95.5733 113.745 97.28C112.891 98.9867 112.465 100.928 112.465 103.104C112.465 105.323 112.891 107.307 113.745 109.056C114.641 110.763 115.835 112.107 117.329 113.088C118.865 114.069 120.614 114.56 122.577 114.56ZM166.358 120V86.4H172.95V93.312L171.798 94.08C172.225 92.5867 173.057 91.2213 174.294 89.984C175.531 88.704 177.003 87.68 178.71 86.912C180.417 86.1013 182.166 85.696 183.958 85.696C186.518 85.696 188.651 86.208 190.358 87.232C192.065 88.2133 193.345 89.728 194.198 91.776C195.051 93.824 195.478 96.4053 195.478 99.52V120H188.886V99.968C188.886 98.048 188.63 96.4693 188.118 95.232C187.606 93.952 186.817 93.0347 185.75 92.48C184.683 91.8827 183.361 91.6267 181.782 91.712C180.502 91.712 179.329 91.9253 178.262 92.352C177.195 92.736 176.257 93.2907 175.446 94.016C174.678 94.7413 174.059 95.5947 173.59 96.576C173.163 97.5147 172.95 98.5387 172.95 99.648V120H169.686C169.131 120 168.577 120 168.022 120C167.467 120 166.913 120 166.358 120ZM205.509 120V86.4H212.101V120H205.509ZM208.709 78.976C207.301 78.976 206.213 78.6133 205.445 77.888C204.677 77.1627 204.293 76.1387 204.293 74.816C204.293 73.5787 204.677 72.576 205.445 71.808C206.255 71.04 207.343 70.656 208.709 70.656C210.117 70.656 211.205 71.0187 211.973 71.744C212.741 72.4693 213.125 73.4933 213.125 74.816C213.125 76.0533 212.719 77.056 211.909 77.824C211.141 78.592 210.074 78.976 208.709 78.976ZM233.433 120.64C230.617 120.64 228.078 120.149 225.817 119.168C223.556 118.187 221.678 116.736 220.185 114.816L224.665 110.976C225.945 112.469 227.332 113.557 228.825 114.24C230.361 114.88 232.089 115.2 234.009 115.2C234.777 115.2 235.481 115.115 236.121 114.944C236.804 114.731 237.38 114.432 237.849 114.048C238.361 113.664 238.745 113.216 239.001 112.704C239.257 112.149 239.385 111.552 239.385 110.912C239.385 109.803 238.98 108.907 238.169 108.224C237.742 107.925 237.06 107.605 236.121 107.264C235.225 106.88 234.052 106.496 232.601 106.112C230.126 105.472 228.1 104.747 226.521 103.936C224.942 103.125 223.726 102.208 222.873 101.184C222.233 100.373 221.764 99.4987 221.465 98.56C221.166 97.5787 221.017 96.512 221.017 95.36C221.017 93.952 221.316 92.672 221.913 91.52C222.553 90.3253 223.406 89.3013 224.473 88.448C225.582 87.552 226.862 86.8693 228.313 86.4C229.806 85.9307 231.385 85.696 233.049 85.696C234.628 85.696 236.185 85.9093 237.721 86.336C239.3 86.7627 240.75 87.3813 242.073 88.192C243.396 89.0027 244.505 89.9627 245.401 91.072L241.625 95.232C240.814 94.4213 239.918 93.7173 238.937 93.12C237.998 92.48 237.038 91.9893 236.057 91.648C235.076 91.3067 234.18 91.136 233.369 91.136C232.473 91.136 231.662 91.2213 230.937 91.392C230.212 91.5627 229.593 91.8187 229.081 92.16C228.612 92.5013 228.249 92.928 227.993 93.44C227.737 93.952 227.609 94.528 227.609 95.168C227.652 95.7227 227.78 96.256 227.993 96.768C228.249 97.2373 228.59 97.6427 229.017 97.984C229.486 98.3253 230.19 98.688 231.129 99.072C232.068 99.456 233.262 99.8187 234.713 100.16C236.846 100.715 238.596 101.333 239.961 102.016C241.369 102.656 242.478 103.403 243.289 104.256C244.142 105.067 244.74 106.005 245.081 107.072C245.422 108.139 245.593 109.333 245.593 110.656C245.593 112.576 245.038 114.304 243.929 115.84C242.862 117.333 241.412 118.507 239.577 119.36C237.742 120.213 235.694 120.64 233.433 120.64ZM252.986 120V72.64H259.578V120H252.986ZM17.13 195.64C14.0153 195.64 11.2207 194.872 8.746 193.336C6.314 191.8 4.37267 189.709 2.922 187.064C1.514 184.419 0.81 181.453 0.81 178.168C0.81 174.883 1.514 171.917 2.922 169.272C4.37267 166.627 6.314 164.536 8.746 163C11.2207 161.464 14.0153 160.696 17.13 160.696C20.1167 160.696 22.826 161.315 25.258 162.552C27.7327 163.747 29.61 165.389 30.89 167.48L27.242 171.96C26.5593 170.979 25.6847 170.083 24.618 169.272C23.5513 168.461 22.4207 167.821 21.226 167.352C20.0313 166.883 18.8793 166.648 17.77 166.648C15.722 166.648 13.8873 167.16 12.266 168.184C10.6873 169.165 9.42867 170.531 8.49 172.28C7.55133 174.029 7.082 175.992 7.082 178.168C7.082 180.344 7.57267 182.307 8.554 184.056C9.53533 185.763 10.8367 187.128 12.458 188.152C14.0793 189.176 15.8713 189.688 17.834 189.688C18.986 189.688 20.0953 189.496 21.162 189.112C22.2713 188.728 23.338 188.152 24.362 187.384C25.386 186.616 26.346 185.677 27.242 184.568L30.89 189.048C29.5247 190.968 27.562 192.547 25.002 193.784C22.4847 195.021 19.8607 195.64 17.13 195.64ZM52.212 195.64C48.9267 195.64 45.9827 194.893 43.38 193.4C40.82 191.864 38.7933 189.795 37.3 187.192C35.8067 184.547 35.06 181.539 35.06 178.168C35.06 174.797 35.8067 171.811 37.3 169.208C38.7933 166.563 40.82 164.493 43.38 163C45.9827 161.464 48.9267 160.696 52.212 160.696C55.4547 160.696 58.356 161.464 60.916 163C63.5187 164.493 65.5667 166.563 67.06 169.208C68.5533 171.811 69.3 174.797 69.3 178.168C69.3 181.539 68.5533 184.547 67.06 187.192C65.5667 189.795 63.5187 191.864 60.916 193.4C58.356 194.893 55.4547 195.64 52.212 195.64ZM52.212 189.624C54.2173 189.624 56.0093 189.133 57.588 188.152C59.1667 187.128 60.404 185.763 61.3 184.056C62.196 182.307 62.6227 180.344 62.58 178.168C62.6227 175.949 62.196 173.987 61.3 172.28C60.404 170.531 59.1667 169.165 57.588 168.184C56.0093 167.203 54.2173 166.712 52.212 166.712C50.2067 166.712 48.3933 167.224 46.772 168.248C45.1933 169.229 43.956 170.595 43.06 172.344C42.164 174.051 41.7373 175.992 41.78 178.168C41.7373 180.344 42.164 182.307 43.06 184.056C43.956 185.763 45.1933 187.128 46.772 188.152C48.3933 189.133 50.2067 189.624 52.212 189.624ZM76.483 195V161.4H83.075V168.312L81.923 169.08C82.3497 167.587 83.1817 166.221 84.419 164.984C85.6563 163.704 87.1283 162.68 88.835 161.912C90.5417 161.101 92.291 160.696 94.083 160.696C96.643 160.696 98.7763 161.208 100.483 162.232C102.19 163.213 103.47 164.728 104.323 166.776C105.176 168.824 105.603 171.405 105.603 174.52V195H99.011V174.968C99.011 173.048 98.755 171.469 98.243 170.232C97.731 168.952 96.9417 168.035 95.875 167.48C94.8083 166.883 93.4857 166.627 91.907 166.712C90.627 166.712 89.4537 166.925 88.387 167.352C87.3203 167.736 86.3817 168.291 85.571 169.016C84.803 169.741 84.1843 170.595 83.715 171.576C83.2883 172.515 83.075 173.539 83.075 174.648V195H79.811C79.2563 195 78.7017 195 78.147 195C77.5923 195 77.0377 195 76.483 195ZM125.554 195L111.346 161.4H118.45L128.69 186.552L127.474 187.128L138.418 161.4H145.201L130.29 195H125.554ZM163.224 195.64C160.45 195.64 157.912 194.872 155.608 193.336C153.346 191.8 151.533 189.709 150.168 187.064C148.802 184.419 148.12 181.432 148.12 178.104C148.12 174.733 148.802 171.747 150.168 169.144C151.576 166.499 153.453 164.429 155.8 162.936C158.189 161.443 160.856 160.696 163.8 160.696C165.549 160.696 167.149 160.952 168.6 161.464C170.05 161.976 171.309 162.701 172.376 163.64C173.485 164.536 174.381 165.581 175.064 166.776C175.789 167.971 176.237 169.251 176.408 170.616L174.936 170.104V161.4H181.592V195H174.936V187L176.472 186.552C176.216 187.704 175.682 188.835 174.872 189.944C174.104 191.011 173.101 191.971 171.864 192.824C170.669 193.677 169.325 194.36 167.832 194.872C166.381 195.384 164.845 195.64 163.224 195.64ZM164.952 189.56C166.957 189.56 168.728 189.069 170.264 188.088C171.8 187.107 172.994 185.763 173.848 184.056C174.744 182.307 175.192 180.323 175.192 178.104C175.192 175.928 174.744 173.987 173.848 172.28C172.994 170.573 171.8 169.229 170.264 168.248C168.728 167.267 166.957 166.776 164.952 166.776C162.989 166.776 161.24 167.267 159.704 168.248C158.21 169.229 157.016 170.573 156.12 172.28C155.266 173.987 154.84 175.928 154.84 178.104C154.84 180.323 155.266 182.307 156.12 184.056C157.016 185.763 158.21 187.107 159.704 188.088C161.24 189.069 162.989 189.56 164.952 189.56ZM190.924 195V147.64H197.516V195H190.924ZM206.986 195V147.64H213.578V195H206.986ZM224.009 195V161.4H230.601V195H224.009ZM227.209 153.976C225.801 153.976 224.713 153.613 223.945 152.888C223.177 152.163 222.793 151.139 222.793 149.816C222.793 148.579 223.177 147.576 223.945 146.808C224.755 146.04 225.843 145.656 227.209 145.656C228.617 145.656 229.705 146.019 230.473 146.744C231.241 147.469 231.625 148.493 231.625 149.816C231.625 151.053 231.219 152.056 230.409 152.824C229.641 153.592 228.574 153.976 227.209 153.976ZM251.933 195.64C249.117 195.64 246.578 195.149 244.317 194.168C242.056 193.187 240.178 191.736 238.685 189.816L243.165 185.976C244.445 187.469 245.832 188.557 247.325 189.24C248.861 189.88 250.589 190.2 252.509 190.2C253.277 190.2 253.981 190.115 254.621 189.944C255.304 189.731 255.88 189.432 256.349 189.048C256.861 188.664 257.245 188.216 257.501 187.704C257.757 187.149 257.885 186.552 257.885 185.912C257.885 184.803 257.48 183.907 256.669 183.224C256.242 182.925 255.56 182.605 254.621 182.264C253.725 181.88 252.552 181.496 251.101 181.112C248.626 180.472 246.6 179.747 245.021 178.936C243.442 178.125 242.226 177.208 241.373 176.184C240.733 175.373 240.264 174.499 239.965 173.56C239.666 172.579 239.517 171.512 239.517 170.36C239.517 168.952 239.816 167.672 240.413 166.52C241.053 165.325 241.906 164.301 242.973 163.448C244.082 162.552 245.362 161.869 246.813 161.4C248.306 160.931 249.885 160.696 251.549 160.696C253.128 160.696 254.685 160.909 256.221 161.336C257.8 161.763 259.25 162.381 260.573 163.192C261.896 164.003 263.005 164.963 263.901 166.072L260.125 170.232C259.314 169.421 258.418 168.717 257.437 168.12C256.498 167.48 255.538 166.989 254.557 166.648C253.576 166.307 252.68 166.136 251.869 166.136C250.973 166.136 250.162 166.221 249.437 166.392C248.712 166.563 248.093 166.819 247.581 167.16C247.112 167.501 246.749 167.928 246.493 168.44C246.237 168.952 246.109 169.528 246.109 170.168C246.152 170.723 246.28 171.256 246.493 171.768C246.749 172.237 247.09 172.643 247.517 172.984C247.986 173.325 248.69 173.688 249.629 174.072C250.568 174.456 251.762 174.819 253.213 175.16C255.346 175.715 257.096 176.333 258.461 177.016C259.869 177.656 260.978 178.403 261.789 179.256C262.642 180.067 263.24 181.005 263.581 182.072C263.922 183.139 264.093 184.333 264.093 185.656C264.093 187.576 263.538 189.304 262.429 190.84C261.362 192.333 259.912 193.507 258.077 194.36C256.242 195.213 254.194 195.64 251.933 195.64ZM23.5985 270.64C20.8252 270.64 18.2865 269.872 15.9825 268.336C13.7212 266.8 11.9078 264.709 10.5425 262.064C9.17717 259.419 8.4945 256.432 8.4945 253.104C8.4945 249.733 9.17717 246.747 10.5425 244.144C11.9505 241.499 13.8278 239.429 16.1745 237.936C18.5638 236.443 21.2305 235.696 24.1745 235.696C25.9238 235.696 27.5238 235.952 28.9745 236.464C30.4252 236.976 31.6838 237.701 32.7505 238.64C33.8598 239.536 34.7558 240.581 35.4385 241.776C36.1638 242.971 36.6118 244.251 36.7825 245.616L35.3105 245.104V236.4H41.9665V270H35.3105V262L36.8465 261.552C36.5905 262.704 36.0572 263.835 35.2465 264.944C34.4785 266.011 33.4758 266.971 32.2385 267.824C31.0438 268.677 29.6998 269.36 28.2065 269.872C26.7558 270.384 25.2198 270.64 23.5985 270.64ZM25.3265 264.56C27.3318 264.56 29.1025 264.069 30.6385 263.088C32.1745 262.107 33.3692 260.763 34.2225 259.056C35.1185 257.307 35.5665 255.323 35.5665 253.104C35.5665 250.928 35.1185 248.987 34.2225 247.28C33.3692 245.573 32.1745 244.229 30.6385 243.248C29.1025 242.267 27.3318 241.776 25.3265 241.776C23.3638 241.776 21.6145 242.267 20.0785 243.248C18.5852 244.229 17.3905 245.573 16.4945 247.28C15.6412 248.987 15.2145 250.928 15.2145 253.104C15.2145 255.323 15.6412 257.307 16.4945 259.056C17.3905 260.763 18.5852 262.107 20.0785 263.088C21.6145 264.069 23.3638 264.56 25.3265 264.56ZM51.2985 270V222.64H57.8905V270H51.2985ZM68.321 270V236.4H74.913V270H68.321ZM71.521 228.976C70.113 228.976 69.025 228.613 68.257 227.888C67.489 227.163 67.105 226.139 67.105 224.816C67.105 223.579 67.489 222.576 68.257 221.808C69.0677 221.04 70.1557 220.656 71.521 220.656C72.929 220.656 74.017 221.019 74.785 221.744C75.553 222.469 75.937 223.493 75.937 224.816C75.937 226.053 75.5317 227.056 74.721 227.824C73.953 228.592 72.8863 228.976 71.521 228.976ZM109.558 284.08V262H110.838C110.838 263.024 110.496 264.048 109.814 265.072C109.131 266.053 108.214 266.971 107.062 267.824C105.91 268.677 104.63 269.36 103.222 269.872C101.814 270.384 100.363 270.64 98.8695 270.64C95.8402 270.64 93.1308 269.893 90.7415 268.4C88.3522 266.864 86.4535 264.795 85.0455 262.192C83.6802 259.547 82.9975 256.539 82.9975 253.168C82.9975 249.797 83.6802 246.811 85.0455 244.208C86.4108 241.563 88.2668 239.493 90.6135 238C93.0028 236.464 95.6908 235.696 98.6775 235.696C100.342 235.696 101.92 235.973 103.414 236.528C104.95 237.083 106.315 237.808 107.51 238.704C108.747 239.6 109.707 240.603 110.39 241.712C111.115 242.779 111.478 243.867 111.478 244.976L109.558 245.104V236.336H116.15V284.08H109.558ZM99.5735 264.56C101.579 264.56 103.35 264.069 104.886 263.088C106.422 262.107 107.616 260.763 108.47 259.056C109.366 257.349 109.814 255.387 109.814 253.168C109.814 250.949 109.366 248.987 108.47 247.28C107.616 245.531 106.422 244.165 104.886 243.184C103.35 242.203 101.579 241.712 99.5735 241.712C97.5682 241.712 95.7975 242.224 94.2615 243.248C92.7255 244.229 91.5095 245.595 90.6135 247.344C89.7602 249.051 89.3335 250.992 89.3335 253.168C89.3335 255.344 89.7602 257.307 90.6135 259.056C91.5095 260.763 92.7255 262.107 94.2615 263.088C95.7975 264.069 97.5682 264.56 99.5735 264.56ZM137.134 270.64C134.745 270.64 132.654 270.085 130.862 268.976C129.113 267.867 127.747 266.309 126.766 264.304C125.827 262.299 125.358 259.909 125.358 257.136V236.4H131.95V255.344C131.95 257.307 132.249 259.013 132.846 260.464C133.486 261.872 134.382 262.96 135.534 263.728C136.729 264.496 138.158 264.88 139.822 264.88C141.059 264.88 142.19 264.688 143.214 264.304C144.238 263.877 145.113 263.301 145.838 262.576C146.606 261.851 147.203 260.976 147.63 259.952C148.057 258.928 148.27 257.819 148.27 256.624V236.4H154.862V270H148.27V262.96L149.422 262.192C148.91 263.771 148.035 265.2 146.798 266.48C145.603 267.76 144.174 268.784 142.51 269.552C140.846 270.277 139.054 270.64 137.134 270.64ZM177.036 270.64C174.263 270.64 171.724 269.872 169.42 268.336C167.159 266.8 165.345 264.709 163.98 262.064C162.615 259.419 161.932 256.432 161.932 253.104C161.932 249.733 162.615 246.747 163.98 244.144C165.388 241.499 167.265 239.429 169.612 237.936C172.001 236.443 174.668 235.696 177.612 235.696C179.361 235.696 180.961 235.952 182.412 236.464C183.863 236.976 185.121 237.701 186.188 238.64C187.297 239.536 188.193 240.581 188.876 241.776C189.601 242.971 190.049 244.251 190.22 245.616L188.748 245.104V236.4H195.404V270H188.748V262L190.284 261.552C190.028 262.704 189.495 263.835 188.684 264.944C187.916 266.011 186.913 266.971 185.676 267.824C184.481 268.677 183.137 269.36 181.644 269.872C180.193 270.384 178.657 270.64 177.036 270.64ZM178.764 264.56C180.769 264.56 182.54 264.069 184.076 263.088C185.612 262.107 186.807 260.763 187.66 259.056C188.556 257.307 189.004 255.323 189.004 253.104C189.004 250.928 188.556 248.987 187.66 247.28C186.807 245.573 185.612 244.229 184.076 243.248C182.54 242.267 180.769 241.776 178.764 241.776C176.801 241.776 175.052 242.267 173.516 243.248C172.023 244.229 170.828 245.573 169.932 247.28C169.079 248.987 168.652 250.928 168.652 253.104C168.652 255.323 169.079 257.307 169.932 259.056C170.828 260.763 172.023 262.107 173.516 263.088C175.052 264.069 176.801 264.56 178.764 264.56ZM204.48 270V236.4H211.136V243.568L209.92 244.336C210.261 243.227 210.795 242.16 211.52 241.136C212.288 240.112 213.205 239.216 214.272 238.448C215.381 237.637 216.555 236.997 217.792 236.528C219.072 236.059 220.373 235.824 221.696 235.824C223.616 235.824 225.301 236.144 226.752 236.784C228.203 237.424 229.397 238.384 230.336 239.664C231.275 240.944 231.957 242.544 232.384 244.464L231.36 244.208L231.808 243.12C232.277 242.139 232.917 241.221 233.728 240.368C234.581 239.472 235.541 238.683 236.608 238C237.675 237.317 238.805 236.784 240 236.4C241.195 236.016 242.368 235.824 243.52 235.824C246.037 235.824 248.107 236.336 249.728 237.36C251.392 238.384 252.629 239.941 253.44 242.032C254.293 244.123 254.72 246.725 254.72 249.84V270H248.064V250.224C248.064 248.304 247.808 246.747 247.296 245.552C246.827 244.315 246.101 243.397 245.12 242.8C244.139 242.203 242.88 241.904 241.344 241.904C240.149 241.904 239.019 242.117 237.952 242.544C236.928 242.928 236.032 243.483 235.264 244.208C234.496 244.933 233.899 245.787 233.472 246.768C233.045 247.707 232.832 248.752 232.832 249.904V270H226.176V250.096C226.176 248.347 225.92 246.875 225.408 245.68C224.896 244.443 224.149 243.504 223.168 242.864C222.187 242.224 220.992 241.904 219.584 241.904C218.389 241.904 217.28 242.117 216.256 242.544C215.232 242.928 214.336 243.483 213.568 244.208C212.8 244.891 212.203 245.723 211.776 246.704C211.349 247.643 211.136 248.667 211.136 249.776V270H204.48Z" fill="white"/>
</svg>
