<svg width="716" height="261" viewBox="0 0 716 261" fill="none" xmlns="http://www.w3.org/2000/svg">
<path d="M20.544 69L0.384 1.8H16.992L27.072 37.128C27.52 38.728 27.904 40.36 28.224 42.024C28.608 43.624 28.896 45.16 29.088 46.632C29.344 48.104 29.536 49.48 29.664 50.76C29.792 51.976 29.92 53 30.048 53.832H27.936C28.32 51.464 28.64 49.352 28.896 47.496C29.216 45.64 29.568 43.912 29.952 42.312C30.336 40.648 30.816 38.92 31.392 37.128L41.376 10.536H54.432L64.224 37.128C64.992 39.24 65.632 41.224 66.144 43.08C66.656 44.936 67.04 46.728 67.296 48.456C67.616 50.12 67.872 51.784 68.064 53.448L66.144 53.736C66.272 52.584 66.368 51.528 66.432 50.568C66.496 49.544 66.56 48.584 66.624 47.688C66.752 46.728 66.88 45.736 67.008 44.712C67.136 43.688 67.328 42.568 67.584 41.352C67.84 40.072 68.192 38.632 68.64 37.032L78.624 1.8H94.848L74.688 69H62.208L46.272 30.312L48.096 30.504L33.408 69H20.544ZM101.392 69V1.8H148.24V15.72H117.232V55.08H149.2V69H101.392ZM109.072 41.448V28.2H143.92V41.448H109.072ZM219.745 69.96C214.689 69.96 210.017 69.128 205.729 67.464C201.505 65.736 197.825 63.336 194.689 60.264C191.553 57.128 189.121 53.448 187.393 49.224C185.729 44.936 184.897 40.232 184.897 35.112C184.897 30.12 185.793 25.512 187.585 21.288C189.377 17.064 191.841 13.416 194.977 10.344C198.177 7.208 201.921 4.776 206.209 3.048C210.561 1.32 215.297 0.455996 220.417 0.455996C223.617 0.455996 226.753 0.871996 229.825 1.704C232.897 2.536 235.745 3.784 238.369 5.44799C241.057 7.048 243.361 8.968 245.281 11.208L235.297 22.632C233.953 21.224 232.513 20.008 230.977 18.984C229.505 17.896 227.873 17.064 226.081 16.488C224.289 15.912 222.369 15.624 220.321 15.624C217.761 15.624 215.329 16.104 213.025 17.064C210.785 17.96 208.801 19.272 207.073 21C205.409 22.664 204.097 24.712 203.137 27.144C202.177 29.576 201.697 32.296 201.697 35.304C201.697 38.248 202.177 40.936 203.137 43.368C204.097 45.736 205.441 47.784 207.169 49.512C208.897 51.24 210.977 52.552 213.409 53.448C215.905 54.344 218.657 54.792 221.665 54.792C223.713 54.792 225.665 54.504 227.521 53.928C229.377 53.352 231.073 52.584 232.609 51.624C234.209 50.6 235.617 49.448 236.833 48.168L244.705 60.648C243.105 62.44 240.961 64.04 238.273 65.448C235.649 66.856 232.705 67.976 229.441 68.808C226.241 69.576 223.009 69.96 219.745 69.96ZM253.473 69V1.8H283.713C288.001 1.8 291.873 2.728 295.329 4.584C298.849 6.44 301.601 9 303.585 12.264C305.569 15.464 306.561 19.112 306.561 23.208C306.561 27.432 305.569 31.24 303.585 34.632C301.601 37.96 298.881 40.584 295.425 42.504C291.969 44.424 288.065 45.384 283.713 45.384H269.025V69H253.473ZM290.721 69L273.633 38.664L290.337 36.264L309.345 69H290.721ZM269.025 32.904H282.273C283.937 32.904 285.377 32.552 286.593 31.848C287.873 31.08 288.833 30.024 289.473 28.68C290.177 27.336 290.529 25.8 290.529 24.072C290.529 22.344 290.145 20.84 289.377 19.56C288.609 18.216 287.489 17.192 286.017 16.488C284.609 15.784 282.881 15.432 280.833 15.432H269.025V32.904ZM318.479 69V1.8H365.327V15.72H334.319V55.08H366.287V69H318.479ZM326.159 41.448V28.2H361.007V41.448H326.159ZM369.41 69L396.002 1.8H409.826L436.226 69H419.714L407.042 34.92C406.53 33.576 406.018 32.136 405.506 30.6C404.994 29.064 404.482 27.496 403.97 25.896C403.458 24.232 402.946 22.632 402.434 21.096C401.986 19.496 401.602 18.024 401.282 16.68L404.162 16.584C403.778 18.184 403.33 19.752 402.818 21.288C402.37 22.824 401.89 24.36 401.378 25.896C400.93 27.368 400.418 28.872 399.842 30.408C399.266 31.88 398.722 33.416 398.21 35.016L385.538 69H369.41ZM382.082 56.136L387.17 43.848H418.082L423.074 56.136H382.082ZM452.021 69V16.2H432.053V1.8H488.789V16.2H468.341V69H452.021ZM497.935 69V1.8H544.783V15.72H513.775V55.08H545.743V69H497.935ZM505.615 41.448V28.2H540.463V41.448H505.615ZM557.123 88.2L552.707 82.728C555.267 81.576 557.315 80.104 558.851 78.312C560.387 76.584 561.155 75.08 561.155 73.8C561.155 73.224 560.995 72.584 560.675 71.88C560.419 71.24 559.715 70.504 558.563 69.672C557.091 68.584 556.099 67.528 555.587 66.504C555.075 65.416 554.819 64.232 554.819 62.952C554.819 60.968 555.523 59.4 556.931 58.248C558.403 57.096 560.291 56.52 562.595 56.52C564.451 56.52 566.115 57.032 567.587 58.056C569.123 59.08 570.307 60.488 571.139 62.28C572.035 64.072 572.483 66.152 572.483 68.52C572.483 70.696 572.099 72.776 571.331 74.76C570.563 76.808 569.475 78.696 568.067 80.424C566.723 82.216 565.091 83.784 563.171 85.128C561.315 86.472 559.299 87.496 557.123 88.2ZM20.544 165L0.384 97.8H16.992L27.072 133.128C27.52 134.728 27.904 136.36 28.224 138.024C28.608 139.624 28.896 141.16 29.088 142.632C29.344 144.104 29.536 145.48 29.664 146.76C29.792 147.976 29.92 149 30.048 149.832H27.936C28.32 147.464 28.64 145.352 28.896 143.496C29.216 141.64 29.568 139.912 29.952 138.312C30.336 136.648 30.816 134.92 31.392 133.128L41.376 106.536H54.432L64.224 133.128C64.992 135.24 65.632 137.224 66.144 139.08C66.656 140.936 67.04 142.728 67.296 144.456C67.616 146.12 67.872 147.784 68.064 149.448L66.144 149.736C66.272 148.584 66.368 147.528 66.432 146.568C66.496 145.544 66.56 144.584 66.624 143.688C66.752 142.728 66.88 141.736 67.008 140.712C67.136 139.688 67.328 138.568 67.584 137.352C67.84 136.072 68.192 134.632 68.64 133.032L78.624 97.8H94.848L74.688 165H62.208L46.272 126.312L48.096 126.504L33.408 165H20.544ZM101.392 165V97.8H148.24V111.72H117.232V151.08H149.2V165H101.392ZM109.072 137.448V124.2H143.92V137.448H109.072ZM187.873 165V151.272H199.201V111.528H187.873V97.8H226.945V111.528H215.521V151.272H226.945V165H187.873ZM240.067 165V97.8H254.659L289.891 145.8L286.723 145.32C286.403 143.208 286.147 141.192 285.955 139.272C285.763 137.352 285.571 135.464 285.379 133.608C285.251 131.752 285.123 129.864 284.995 127.944C284.931 126.024 284.867 123.944 284.803 121.704C284.803 119.464 284.803 117.032 284.803 114.408V97.8H300.643V165H285.859L249.091 115.464L253.987 116.136C254.307 119.208 254.563 121.832 254.755 124.008C255.011 126.12 255.203 128.008 255.331 129.672C255.523 131.336 255.651 132.84 255.715 134.184C255.779 135.528 255.811 136.872 255.811 138.216C255.875 139.496 255.907 140.936 255.907 142.536V165H240.067ZM315.104 165V97.8H329.696L364.928 145.8L361.76 145.32C361.44 143.208 361.184 141.192 360.992 139.272C360.8 137.352 360.608 135.464 360.416 133.608C360.288 131.752 360.16 129.864 360.032 127.944C359.968 126.024 359.904 123.944 359.84 121.704C359.84 119.464 359.84 117.032 359.84 114.408V97.8H375.68V165H360.896L324.128 115.464L329.024 116.136C329.344 119.208 329.6 121.832 329.792 124.008C330.048 126.12 330.24 128.008 330.368 129.672C330.56 131.336 330.688 132.84 330.752 134.184C330.816 135.528 330.848 136.872 330.848 138.216C330.912 139.496 330.944 140.936 330.944 142.536V165H315.104ZM420.766 165.96C415.646 165.96 410.974 165.096 406.75 163.368C402.526 161.64 398.846 159.208 395.71 156.072C392.574 152.936 390.142 149.256 388.414 145.032C386.686 140.808 385.822 136.168 385.822 131.112C385.822 126.056 386.686 121.416 388.414 117.192C390.142 112.968 392.574 109.288 395.71 106.152C398.846 103.016 402.526 100.584 406.75 98.856C410.974 97.128 415.614 96.264 420.67 96.264C425.726 96.264 430.366 97.128 434.59 98.856C438.814 100.584 442.494 103.016 445.63 106.152C448.766 109.288 451.166 112.968 452.83 117.192C454.558 121.416 455.422 126.056 455.422 131.112C455.422 136.104 454.558 140.744 452.83 145.032C451.166 149.256 448.766 152.936 445.63 156.072C442.494 159.208 438.814 161.64 434.59 163.368C430.366 165.096 425.758 165.96 420.766 165.96ZM420.67 150.6C423.294 150.6 425.694 150.12 427.87 149.16C430.11 148.2 432.03 146.856 433.63 145.128C435.294 143.336 436.574 141.256 437.47 138.888C438.366 136.52 438.814 133.928 438.814 131.112C438.814 128.296 438.366 125.704 437.47 123.336C436.574 120.968 435.294 118.92 433.63 117.192C432.03 115.4 430.11 114.024 427.87 113.064C425.694 112.104 423.294 111.624 420.67 111.624C418.046 111.624 415.614 112.104 413.374 113.064C411.198 114.024 409.278 115.4 407.614 117.192C405.95 118.92 404.67 120.968 403.774 123.336C402.942 125.704 402.526 128.296 402.526 131.112C402.526 133.928 402.942 136.552 403.774 138.984C404.67 141.352 405.95 143.4 407.614 145.128C409.278 146.856 411.198 148.2 413.374 149.16C415.614 150.12 418.046 150.6 420.67 150.6ZM481.558 165L454.678 97.8H471.67L484.63 132.072C485.398 134.056 486.038 135.784 486.55 137.256C487.126 138.728 487.606 140.104 487.99 141.384C488.438 142.664 488.822 143.976 489.142 145.32C489.526 146.6 489.942 148.072 490.39 149.736H487.414C487.926 147.56 488.438 145.64 488.95 143.976C489.462 142.248 490.038 140.488 490.678 138.696C491.318 136.84 492.118 134.632 493.078 132.072L505.558 97.8H522.262L495.19 165H481.558ZM512.923 165L539.515 97.8H553.339L579.739 165H563.227L550.555 130.92C550.043 129.576 549.531 128.136 549.019 126.6C548.507 125.064 547.995 123.496 547.483 121.896C546.971 120.232 546.459 118.632 545.947 117.096C545.499 115.496 545.115 114.024 544.795 112.68L547.675 112.584C547.291 114.184 546.843 115.752 546.331 117.288C545.883 118.824 545.403 120.36 544.891 121.896C544.443 123.368 543.931 124.872 543.355 126.408C542.779 127.88 542.235 129.416 541.723 131.016L529.051 165H512.923ZM525.595 152.136L530.683 139.848H561.595L566.587 152.136H525.595ZM595.534 165V112.2H575.566V97.8H632.302V112.2H611.854V165H595.534ZM641.448 165V97.8H688.296V111.72H657.288V151.08H689.256V165H641.448ZM649.128 137.448V124.2H683.976V137.448H649.128ZM700.635 184.2L696.219 178.728C698.779 177.576 700.827 176.104 702.363 174.312C703.899 172.584 704.667 171.08 704.667 169.8C704.667 169.224 704.507 168.584 704.187 167.88C703.931 167.24 703.227 166.504 702.075 165.672C700.603 164.584 699.611 163.528 699.099 162.504C698.587 161.416 698.331 160.232 698.331 158.952C698.331 156.968 699.035 155.4 700.443 154.248C701.915 153.096 703.803 152.52 706.107 152.52C707.963 152.52 709.627 153.032 711.099 154.056C712.635 155.08 713.819 156.488 714.651 158.28C715.547 160.072 715.995 162.152 715.995 164.52C715.995 166.696 715.611 168.776 714.843 170.76C714.075 172.808 712.987 174.696 711.579 176.424C710.235 178.216 708.603 179.784 706.683 181.128C704.827 182.472 702.811 183.496 700.635 184.2ZM20.544 261L0.384 193.8H16.992L27.072 229.128C27.52 230.728 27.904 232.36 28.224 234.024C28.608 235.624 28.896 237.16 29.088 238.632C29.344 240.104 29.536 241.48 29.664 242.76C29.792 243.976 29.92 245 30.048 245.832H27.936C28.32 243.464 28.64 241.352 28.896 239.496C29.216 237.64 29.568 235.912 29.952 234.312C30.336 232.648 30.816 230.92 31.392 229.128L41.376 202.536H54.432L64.224 229.128C64.992 231.24 65.632 233.224 66.144 235.08C66.656 236.936 67.04 238.728 67.296 240.456C67.616 242.12 67.872 243.784 68.064 245.448L66.144 245.736C66.272 244.584 66.368 243.528 66.432 242.568C66.496 241.544 66.56 240.584 66.624 239.688C66.752 238.728 66.88 237.736 67.008 236.712C67.136 235.688 67.328 234.568 67.584 233.352C67.84 232.072 68.192 230.632 68.64 229.032L78.624 193.8H94.848L74.688 261H62.208L46.272 222.312L48.096 222.504L33.408 261H20.544ZM101.392 261V193.8H148.24V207.72H117.232V247.08H149.2V261H101.392ZM109.072 233.448V220.2H143.92V233.448H109.072ZM189.217 261V193.8H217.345C222.273 193.8 226.785 194.632 230.881 196.296C234.977 197.896 238.497 200.2 241.441 203.208C244.449 206.216 246.753 209.768 248.353 213.864C249.953 217.96 250.753 222.472 250.753 227.4C250.753 232.328 249.953 236.872 248.353 241.032C246.753 245.128 244.449 248.68 241.441 251.688C238.497 254.632 234.977 256.936 230.881 258.6C226.785 260.2 222.273 261 217.345 261H189.217ZM205.537 249.864L203.329 246.6H216.865C219.553 246.6 221.953 246.152 224.065 245.256C226.177 244.296 227.969 242.984 229.441 241.32C230.977 239.656 232.161 237.64 232.993 235.272C233.825 232.904 234.241 230.28 234.241 227.4C234.241 224.52 233.825 221.896 232.993 219.528C232.161 217.16 230.977 215.144 229.441 213.48C227.969 211.816 226.177 210.536 224.065 209.64C221.953 208.68 219.553 208.2 216.865 208.2H203.041L205.537 205.128V249.864ZM260.973 261V193.8H307.821V207.72H276.813V247.08H308.781V261H260.973ZM268.653 233.448V220.2H303.501V233.448H268.653ZM320.448 261V193.8H336.768V246.6H366.72V261H320.448ZM375.204 261V247.272H386.532V207.528H375.204V193.8H414.276V207.528H402.852V247.272H414.276V261H375.204ZM446.214 261L419.334 193.8H436.326L449.286 228.072C450.054 230.056 450.694 231.784 451.206 233.256C451.782 234.728 452.262 236.104 452.646 237.384C453.094 238.664 453.478 239.976 453.798 241.32C454.182 242.6 454.598 244.072 455.046 245.736H452.07C452.582 243.56 453.094 241.64 453.606 239.976C454.118 238.248 454.694 236.488 455.334 234.696C455.974 232.84 456.774 230.632 457.734 228.072L470.214 193.8H486.918L459.846 261H446.214ZM493.342 261V193.8H540.19V207.72H509.182V247.08H541.15V261H493.342ZM501.022 233.448V220.2H535.87V233.448H501.022ZM552.817 261V193.8H583.057C587.345 193.8 591.217 194.728 594.673 196.584C598.193 198.44 600.945 201 602.929 204.264C604.913 207.464 605.905 211.112 605.905 215.208C605.905 219.432 604.913 223.24 602.929 226.632C600.945 229.96 598.225 232.584 594.769 234.504C591.313 236.424 587.409 237.384 583.057 237.384H568.369V261H552.817ZM590.065 261L572.977 230.664L589.681 228.264L608.689 261H590.065ZM568.369 224.904H581.617C583.281 224.904 584.721 224.552 585.937 223.848C587.217 223.08 588.177 222.024 588.817 220.68C589.521 219.336 589.873 217.8 589.873 216.072C589.873 214.344 589.489 212.84 588.721 211.56C587.953 210.216 586.833 209.192 585.361 208.488C583.953 207.784 582.225 207.432 580.177 207.432H568.369V224.904Z" fill="white"/>
</svg>
