<svg width="716" height="241" viewBox="0 0 716 241" fill="none" xmlns="http://www.w3.org/2000/svg">
<path d="M20.544 69L0.384 1.8H16.992L27.072 37.128C27.52 38.728 27.904 40.36 28.224 42.024C28.608 43.624 28.896 45.16 29.088 46.632C29.344 48.104 29.536 49.48 29.664 50.76C29.792 51.976 29.92 53 30.048 53.832H27.936C28.32 51.464 28.64 49.352 28.896 47.496C29.216 45.64 29.568 43.912 29.952 42.312C30.336 40.648 30.816 38.92 31.392 37.128L41.376 10.536H54.432L64.224 37.128C64.992 39.24 65.632 41.224 66.144 43.08C66.656 44.936 67.04 46.728 67.296 48.456C67.616 50.12 67.872 51.784 68.064 53.448L66.144 53.736C66.272 52.584 66.368 51.528 66.432 50.568C66.496 49.544 66.56 48.584 66.624 47.688C66.752 46.728 66.88 45.736 67.008 44.712C67.136 43.688 67.328 42.568 67.584 41.352C67.84 40.072 68.192 38.632 68.64 37.032L78.624 1.8H94.848L74.688 69H62.208L46.272 30.312L48.096 30.504L33.408 69H20.544ZM101.392 69V1.8H148.24V15.72H117.232V55.08H149.2V69H101.392ZM109.072 41.448V28.2H143.92V41.448H109.072ZM219.745 69.96C214.689 69.96 210.017 69.128 205.729 67.464C201.505 65.736 197.825 63.336 194.689 60.264C191.553 57.128 189.121 53.448 187.393 49.224C185.729 44.936 184.897 40.232 184.897 35.112C184.897 30.12 185.793 25.512 187.585 21.288C189.377 17.064 191.841 13.416 194.977 10.344C198.177 7.208 201.921 4.776 206.209 3.048C210.561 1.32 215.297 0.455996 220.417 0.455996C223.617 0.455996 226.753 0.871996 229.825 1.704C232.897 2.536 235.745 3.784 238.369 5.44799C241.057 7.048 243.361 8.968 245.281 11.208L235.297 22.632C233.953 21.224 232.513 20.008 230.977 18.984C229.505 17.896 227.873 17.064 226.081 16.488C224.289 15.912 222.369 15.624 220.321 15.624C217.761 15.624 215.329 16.104 213.025 17.064C210.785 17.96 208.801 19.272 207.073 21C205.409 22.664 204.097 24.712 203.137 27.144C202.177 29.576 201.697 32.296 201.697 35.304C201.697 38.248 202.177 40.936 203.137 43.368C204.097 45.736 205.441 47.784 207.169 49.512C208.897 51.24 210.977 52.552 213.409 53.448C215.905 54.344 218.657 54.792 221.665 54.792C223.713 54.792 225.665 54.504 227.521 53.928C229.377 53.352 231.073 52.584 232.609 51.624C234.209 50.6 235.617 49.448 236.833 48.168L244.705 60.648C243.105 62.44 240.961 64.04 238.273 65.448C235.649 66.856 232.705 67.976 229.441 68.808C226.241 69.576 223.009 69.96 219.745 69.96ZM253.473 69V1.8H283.713C288.001 1.8 291.873 2.728 295.329 4.584C298.849 6.44 301.601 9 303.585 12.264C305.569 15.464 306.561 19.112 306.561 23.208C306.561 27.432 305.569 31.24 303.585 34.632C301.601 37.96 298.881 40.584 295.425 42.504C291.969 44.424 288.065 45.384 283.713 45.384H269.025V69H253.473ZM290.721 69L273.633 38.664L290.337 36.264L309.345 69H290.721ZM269.025 32.904H282.273C283.937 32.904 285.377 32.552 286.593 31.848C287.873 31.08 288.833 30.024 289.473 28.68C290.177 27.336 290.529 25.8 290.529 24.072C290.529 22.344 290.145 20.84 289.377 19.56C288.609 18.216 287.489 17.192 286.017 16.488C284.609 15.784 282.881 15.432 280.833 15.432H269.025V32.904ZM318.479 69V1.8H365.327V15.72H334.319V55.08H366.287V69H318.479ZM326.159 41.448V28.2H361.007V41.448H326.159ZM369.41 69L396.002 1.8H409.826L436.226 69H419.714L407.042 34.92C406.53 33.576 406.018 32.136 405.506 30.6C404.994 29.064 404.482 27.496 403.97 25.896C403.458 24.232 402.946 22.632 402.434 21.096C401.986 19.496 401.602 18.024 401.282 16.68L404.162 16.584C403.778 18.184 403.33 19.752 402.818 21.288C402.37 22.824 401.89 24.36 401.378 25.896C400.93 27.368 400.418 28.872 399.842 30.408C399.266 31.88 398.722 33.416 398.21 35.016L385.538 69H369.41ZM382.082 56.136L387.17 43.848H418.082L423.074 56.136H382.082ZM452.021 69V16.2H432.053V1.8H488.789V16.2H468.341V69H452.021ZM497.935 69V1.8H544.783V15.72H513.775V55.08H545.743V69H497.935ZM505.615 41.448V28.2H540.463V41.448H505.615ZM557.123 88.2L552.707 82.728C555.267 81.576 557.315 80.104 558.851 78.312C560.387 76.584 561.155 75.08 561.155 73.8C561.155 73.224 560.995 72.584 560.675 71.88C560.419 71.24 559.715 70.504 558.563 69.672C557.091 68.584 556.099 67.528 555.587 66.504C555.075 65.416 554.819 64.232 554.819 62.952C554.819 60.968 555.523 59.4 556.931 58.248C558.403 57.096 560.291 56.52 562.595 56.52C564.451 56.52 566.115 57.032 567.587 58.056C569.123 59.08 570.307 60.488 571.139 62.28C572.035 64.072 572.483 66.152 572.483 68.52C572.483 70.696 572.099 72.776 571.331 74.76C570.563 76.808 569.475 78.696 568.067 80.424C566.723 82.216 565.091 83.784 563.171 85.128C561.315 86.472 559.299 87.496 557.123 88.2ZM20.544 155L0.384 87.8H16.992L27.072 123.128C27.52 124.728 27.904 126.36 28.224 128.024C28.608 129.624 28.896 131.16 29.088 132.632C29.344 134.104 29.536 135.48 29.664 136.76C29.792 137.976 29.92 139 30.048 139.832H27.936C28.32 137.464 28.64 135.352 28.896 133.496C29.216 131.64 29.568 129.912 29.952 128.312C30.336 126.648 30.816 124.92 31.392 123.128L41.376 96.536H54.432L64.224 123.128C64.992 125.24 65.632 127.224 66.144 129.08C66.656 130.936 67.04 132.728 67.296 134.456C67.616 136.12 67.872 137.784 68.064 139.448L66.144 139.736C66.272 138.584 66.368 137.528 66.432 136.568C66.496 135.544 66.56 134.584 66.624 133.688C66.752 132.728 66.88 131.736 67.008 130.712C67.136 129.688 67.328 128.568 67.584 127.352C67.84 126.072 68.192 124.632 68.64 123.032L78.624 87.8H94.848L74.688 155H62.208L46.272 116.312L48.096 116.504L33.408 155H20.544ZM101.392 155V87.8H148.24V101.72H117.232V141.08H149.2V155H101.392ZM109.072 127.448V114.2H143.92V127.448H109.072ZM187.873 155V141.272H199.201V101.528H187.873V87.8H226.945V101.528H215.521V141.272H226.945V155H187.873ZM240.067 155V87.8H254.659L289.891 135.8L286.723 135.32C286.403 133.208 286.147 131.192 285.955 129.272C285.763 127.352 285.571 125.464 285.379 123.608C285.251 121.752 285.123 119.864 284.995 117.944C284.931 116.024 284.867 113.944 284.803 111.704C284.803 109.464 284.803 107.032 284.803 104.408V87.8H300.643V155H285.859L249.091 105.464L253.987 106.136C254.307 109.208 254.563 111.832 254.755 114.008C255.011 116.12 255.203 118.008 255.331 119.672C255.523 121.336 255.651 122.84 255.715 124.184C255.779 125.528 255.811 126.872 255.811 128.216C255.875 129.496 255.907 130.936 255.907 132.536V155H240.067ZM315.104 155V87.8H329.696L364.928 135.8L361.76 135.32C361.44 133.208 361.184 131.192 360.992 129.272C360.8 127.352 360.608 125.464 360.416 123.608C360.288 121.752 360.16 119.864 360.032 117.944C359.968 116.024 359.904 113.944 359.84 111.704C359.84 109.464 359.84 107.032 359.84 104.408V87.8H375.68V155H360.896L324.128 105.464L329.024 106.136C329.344 109.208 329.6 111.832 329.792 114.008C330.048 116.12 330.24 118.008 330.368 119.672C330.56 121.336 330.688 122.84 330.752 124.184C330.816 125.528 330.848 126.872 330.848 128.216C330.912 129.496 330.944 130.936 330.944 132.536V155H315.104ZM420.766 155.96C415.646 155.96 410.974 155.096 406.75 153.368C402.526 151.64 398.846 149.208 395.71 146.072C392.574 142.936 390.142 139.256 388.414 135.032C386.686 130.808 385.822 126.168 385.822 121.112C385.822 116.056 386.686 111.416 388.414 107.192C390.142 102.968 392.574 99.288 395.71 96.152C398.846 93.016 402.526 90.584 406.75 88.856C410.974 87.128 415.614 86.264 420.67 86.264C425.726 86.264 430.366 87.128 434.59 88.856C438.814 90.584 442.494 93.016 445.63 96.152C448.766 99.288 451.166 102.968 452.83 107.192C454.558 111.416 455.422 116.056 455.422 121.112C455.422 126.104 454.558 130.744 452.83 135.032C451.166 139.256 448.766 142.936 445.63 146.072C442.494 149.208 438.814 151.64 434.59 153.368C430.366 155.096 425.758 155.96 420.766 155.96ZM420.67 140.6C423.294 140.6 425.694 140.12 427.87 139.16C430.11 138.2 432.03 136.856 433.63 135.128C435.294 133.336 436.574 131.256 437.47 128.888C438.366 126.52 438.814 123.928 438.814 121.112C438.814 118.296 438.366 115.704 437.47 113.336C436.574 110.968 435.294 108.92 433.63 107.192C432.03 105.4 430.11 104.024 427.87 103.064C425.694 102.104 423.294 101.624 420.67 101.624C418.046 101.624 415.614 102.104 413.374 103.064C411.198 104.024 409.278 105.4 407.614 107.192C405.95 108.92 404.67 110.968 403.774 113.336C402.942 115.704 402.526 118.296 402.526 121.112C402.526 123.928 402.942 126.552 403.774 128.984C404.67 131.352 405.95 133.4 407.614 135.128C409.278 136.856 411.198 138.2 413.374 139.16C415.614 140.12 418.046 140.6 420.67 140.6ZM481.558 155L454.678 87.8H471.67L484.63 122.072C485.398 124.056 486.038 125.784 486.55 127.256C487.126 128.728 487.606 130.104 487.99 131.384C488.438 132.664 488.822 133.976 489.142 135.32C489.526 136.6 489.942 138.072 490.39 139.736H487.414C487.926 137.56 488.438 135.64 488.95 133.976C489.462 132.248 490.038 130.488 490.678 128.696C491.318 126.84 492.118 124.632 493.078 122.072L505.558 87.8H522.262L495.19 155H481.558ZM512.923 155L539.515 87.8H553.339L579.739 155H563.227L550.555 120.92C550.043 119.576 549.531 118.136 549.019 116.6C548.507 115.064 547.995 113.496 547.483 111.896C546.971 110.232 546.459 108.632 545.947 107.096C545.499 105.496 545.115 104.024 544.795 102.68L547.675 102.584C547.291 104.184 546.843 105.752 546.331 107.288C545.883 108.824 545.403 110.36 544.891 111.896C544.443 113.368 543.931 114.872 543.355 116.408C542.779 117.88 542.235 119.416 541.723 121.016L529.051 155H512.923ZM525.595 142.136L530.683 129.848H561.595L566.587 142.136H525.595ZM595.534 155V102.2H575.566V87.8H632.302V102.2H611.854V155H595.534ZM641.448 155V87.8H688.296V101.72H657.288V141.08H689.256V155H641.448ZM649.128 127.448V114.2H683.976V127.448H649.128ZM700.635 174.2L696.219 168.728C698.779 167.576 700.827 166.104 702.363 164.312C703.899 162.584 704.667 161.08 704.667 159.8C704.667 159.224 704.507 158.584 704.187 157.88C703.931 157.24 703.227 156.504 702.075 155.672C700.603 154.584 699.611 153.528 699.099 152.504C698.587 151.416 698.331 150.232 698.331 148.952C698.331 146.968 699.035 145.4 700.443 144.248C701.915 143.096 703.803 142.52 706.107 142.52C707.963 142.52 709.627 143.032 711.099 144.056C712.635 145.08 713.819 146.488 714.651 148.28C715.547 150.072 715.995 152.152 715.995 154.52C715.995 156.696 715.611 158.776 714.843 160.76C714.075 162.808 712.987 164.696 711.579 166.424C710.235 168.216 708.603 169.784 706.683 171.128C704.827 172.472 702.811 173.496 700.635 174.2ZM20.544 241L0.384 173.8H16.992L27.072 209.128C27.52 210.728 27.904 212.36 28.224 214.024C28.608 215.624 28.896 217.16 29.088 218.632C29.344 220.104 29.536 221.48 29.664 222.76C29.792 223.976 29.92 225 30.048 225.832H27.936C28.32 223.464 28.64 221.352 28.896 219.496C29.216 217.64 29.568 215.912 29.952 214.312C30.336 212.648 30.816 210.92 31.392 209.128L41.376 182.536H54.432L64.224 209.128C64.992 211.24 65.632 213.224 66.144 215.08C66.656 216.936 67.04 218.728 67.296 220.456C67.616 222.12 67.872 223.784 68.064 225.448L66.144 225.736C66.272 224.584 66.368 223.528 66.432 222.568C66.496 221.544 66.56 220.584 66.624 219.688C66.752 218.728 66.88 217.736 67.008 216.712C67.136 215.688 67.328 214.568 67.584 213.352C67.84 212.072 68.192 210.632 68.64 209.032L78.624 173.8H94.848L74.688 241H62.208L46.272 202.312L48.096 202.504L33.408 241H20.544ZM101.392 241V173.8H148.24V187.72H117.232V227.08H149.2V241H101.392ZM109.072 213.448V200.2H143.92V213.448H109.072ZM189.217 241V173.8H217.345C222.273 173.8 226.785 174.632 230.881 176.296C234.977 177.896 238.497 180.2 241.441 183.208C244.449 186.216 246.753 189.768 248.353 193.864C249.953 197.96 250.753 202.472 250.753 207.4C250.753 212.328 249.953 216.872 248.353 221.032C246.753 225.128 244.449 228.68 241.441 231.688C238.497 234.632 234.977 236.936 230.881 238.6C226.785 240.2 222.273 241 217.345 241H189.217ZM205.537 229.864L203.329 226.6H216.865C219.553 226.6 221.953 226.152 224.065 225.256C226.177 224.296 227.969 222.984 229.441 221.32C230.977 219.656 232.161 217.64 232.993 215.272C233.825 212.904 234.241 210.28 234.241 207.4C234.241 204.52 233.825 201.896 232.993 199.528C232.161 197.16 230.977 195.144 229.441 193.48C227.969 191.816 226.177 190.536 224.065 189.64C221.953 188.68 219.553 188.2 216.865 188.2H203.041L205.537 185.128V229.864ZM260.973 241V173.8H307.821V187.72H276.813V227.08H308.781V241H260.973ZM268.653 213.448V200.2H303.501V213.448H268.653ZM320.448 241V173.8H336.768V226.6H366.72V241H320.448ZM375.204 241V227.272H386.532V187.528H375.204V173.8H414.276V187.528H402.852V227.272H414.276V241H375.204ZM446.214 241L419.334 173.8H436.326L449.286 208.072C450.054 210.056 450.694 211.784 451.206 213.256C451.782 214.728 452.262 216.104 452.646 217.384C453.094 218.664 453.478 219.976 453.798 221.32C454.182 222.6 454.598 224.072 455.046 225.736H452.07C452.582 223.56 453.094 221.64 453.606 219.976C454.118 218.248 454.694 216.488 455.334 214.696C455.974 212.84 456.774 210.632 457.734 208.072L470.214 173.8H486.918L459.846 241H446.214ZM493.342 241V173.8H540.19V187.72H509.182V227.08H541.15V241H493.342ZM501.022 213.448V200.2H535.87V213.448H501.022ZM552.817 241V173.8H583.057C587.345 173.8 591.217 174.728 594.673 176.584C598.193 178.44 600.945 181 602.929 184.264C604.913 187.464 605.905 191.112 605.905 195.208C605.905 199.432 604.913 203.24 602.929 206.632C600.945 209.96 598.225 212.584 594.769 214.504C591.313 216.424 587.409 217.384 583.057 217.384H568.369V241H552.817ZM590.065 241L572.977 210.664L589.681 208.264L608.689 241H590.065ZM568.369 204.904H581.617C583.281 204.904 584.721 204.552 585.937 203.848C587.217 203.08 588.177 202.024 588.817 200.68C589.521 199.336 589.873 197.8 589.873 196.072C589.873 194.344 589.489 192.84 588.721 191.56C587.953 190.216 586.833 189.192 585.361 188.488C583.953 187.784 582.225 187.432 580.177 187.432H568.369V204.904Z" fill="white"/>
</svg>
