<svg width="1009" height="256" viewBox="0 0 1009 256" fill="none" xmlns="http://www.w3.org/2000/svg">
<path d="M49.096 113.28C42.8667 113.28 37.1493 112.171 31.944 109.952C26.7387 107.733 22.216 104.576 18.376 100.48C14.536 96.2987 11.5493 91.392 9.41601 85.76C7.36801 80.128 6.34401 73.9413 6.34401 67.2C6.34401 60.8 7.45335 54.8693 9.67201 49.408C11.976 43.8613 15.1333 38.9973 19.144 34.816C23.1547 30.6347 27.8053 27.392 33.096 25.088C38.3867 22.784 44.104 21.632 50.248 21.632C54.6 21.632 58.824 22.3147 62.92 23.68C67.1013 24.96 70.856 26.7947 74.184 29.184C77.5973 31.488 80.3707 34.1333 82.504 37.12L73.288 46.72C70.8134 44.2453 68.296 42.1973 65.736 40.576C63.2613 38.8693 60.7013 37.5893 58.056 36.736C55.496 35.8827 52.8933 35.456 50.248 35.456C46.0667 35.456 42.1413 36.2667 38.472 37.888C34.888 39.424 31.7307 41.6 29 44.416C26.3547 47.232 24.264 50.6027 22.728 54.528C21.192 58.368 20.424 62.592 20.424 67.2C20.424 72.064 21.1493 76.5013 22.6 80.512C24.136 84.4373 26.2693 87.808 29 90.624C31.7307 93.44 34.9733 95.616 38.728 97.152C42.568 98.6027 46.792 99.328 51.4 99.328C54.216 99.328 56.9893 98.944 59.72 98.176C62.4507 97.408 65.0107 96.2987 67.4 94.848C69.7893 93.3973 71.9653 91.6907 73.928 89.728L80.84 100.992C78.8774 103.296 76.1894 105.387 72.776 107.264C69.448 109.141 65.6933 110.635 61.512 111.744C57.416 112.768 53.2773 113.28 49.096 113.28ZM86.691 112V44.8H100.003V65.92L98.723 60.8C99.6617 57.5573 101.24 54.6133 103.459 51.968C105.763 49.3227 108.366 47.232 111.267 45.696C114.254 44.16 117.326 43.392 120.483 43.392C121.934 43.392 123.299 43.52 124.579 43.776C125.944 44.032 127.011 44.3307 127.779 44.672L124.323 59.008C123.299 58.5813 122.147 58.24 120.867 57.984C119.672 57.6427 118.478 57.472 117.283 57.472C114.979 57.472 112.76 57.9413 110.627 58.88C108.579 59.7333 106.744 60.9707 105.123 62.592C103.587 64.128 102.35 65.9627 101.411 68.096C100.472 70.144 100.003 72.4053 100.003 74.88V112H86.691ZM157.201 113.28C150.289 113.28 144.145 111.829 138.769 108.928C133.478 105.941 129.297 101.888 126.225 96.768C123.238 91.648 121.745 85.76 121.745 79.104C121.745 73.8133 122.598 68.992 124.305 64.64C126.012 60.288 128.358 56.5333 131.345 53.376C134.417 50.1333 138.044 47.6587 142.225 45.952C146.492 44.16 151.1 43.264 156.049 43.264C160.401 43.264 164.454 44.1173 168.209 45.824C171.964 47.4453 175.206 49.7067 177.937 52.608C180.753 55.5093 182.886 58.9653 184.337 62.976C185.873 66.9013 186.598 71.2107 186.513 75.904L186.385 81.536H131.473L128.529 71.04H174.993L173.073 73.216V70.144C172.817 67.328 171.878 64.8107 170.257 62.592C168.636 60.3733 166.588 58.624 164.113 57.344C161.638 56.064 158.95 55.424 156.049 55.424C151.441 55.424 147.558 56.32 144.401 58.112C141.244 59.8187 138.854 62.3787 137.233 65.792C135.612 69.12 134.801 73.2587 134.801 78.208C134.801 82.9013 135.782 86.9973 137.745 90.496C139.708 93.9093 142.481 96.5547 146.065 98.432C149.649 100.309 153.788 101.248 158.481 101.248C161.809 101.248 164.881 100.693 167.697 99.584C170.598 98.4747 173.713 96.4693 177.041 93.568L183.697 102.912C181.649 104.96 179.132 106.752 176.145 108.288C173.244 109.824 170.129 111.061 166.801 112C163.558 112.853 160.358 113.28 157.201 113.28ZM217.097 113.28C211.55 113.28 206.473 111.744 201.865 108.672C197.342 105.6 193.716 101.419 190.985 96.128C188.254 90.8373 186.889 84.864 186.889 78.208C186.889 71.4667 188.254 65.4933 190.985 60.288C193.801 54.9973 197.556 50.8587 202.249 47.872C207.028 44.8853 212.361 43.392 218.249 43.392C221.748 43.392 224.948 43.904 227.849 44.928C230.75 45.952 233.268 47.4027 235.401 49.28C237.62 51.072 239.412 53.1627 240.777 55.552C242.228 57.9413 243.124 60.5013 243.465 63.232L240.521 62.208V44.8H253.833V112H240.521V96L243.593 95.104C243.081 97.408 242.014 99.6693 240.393 101.888C238.857 104.021 236.852 105.941 234.377 107.648C231.988 109.355 229.3 110.72 226.313 111.744C223.412 112.768 220.34 113.28 217.097 113.28ZM220.553 101.12C224.564 101.12 228.105 100.139 231.177 98.176C234.249 96.2133 236.638 93.5253 238.345 90.112C240.137 86.6133 241.033 82.6453 241.033 78.208C241.033 73.856 240.137 69.9733 238.345 66.56C236.638 63.1467 234.249 60.4587 231.177 58.496C228.105 56.5333 224.564 55.552 220.553 55.552C216.628 55.552 213.129 56.5333 210.057 58.496C207.07 60.4587 204.681 63.1467 202.889 66.56C201.182 69.9733 200.329 73.856 200.329 78.208C200.329 82.6453 201.182 86.6133 202.889 90.112C204.681 93.5253 207.07 96.2133 210.057 98.176C213.129 100.139 216.628 101.12 220.553 101.12ZM270.961 112V27.648H284.145V112H270.961ZM257.009 57.6V44.8H299.761V57.6H257.009ZM304.342 112V44.8H317.526V112H304.342ZM310.742 29.952C307.926 29.952 305.75 29.2267 304.214 27.776C302.678 26.3253 301.91 24.2773 301.91 21.632C301.91 19.1573 302.678 17.152 304.214 15.616C305.835 14.08 308.011 13.312 310.742 13.312C313.558 13.312 315.734 14.0373 317.27 15.488C318.806 16.9387 319.574 18.9867 319.574 21.632C319.574 24.1067 318.763 26.112 317.142 27.648C315.606 29.184 313.473 29.952 310.742 29.952ZM350.207 112L321.791 44.8H335.999L356.479 95.104L354.047 96.256L375.935 44.8H389.503L359.679 112H350.207ZM421.451 113.28C414.539 113.28 408.395 111.829 403.019 108.928C397.728 105.941 393.547 101.888 390.475 96.768C387.488 91.648 385.995 85.76 385.995 79.104C385.995 73.8133 386.848 68.992 388.555 64.64C390.262 60.288 392.608 56.5333 395.595 53.376C398.667 50.1333 402.294 47.6587 406.475 45.952C410.742 44.16 415.35 43.264 420.299 43.264C424.651 43.264 428.704 44.1173 432.459 45.824C436.214 47.4453 439.456 49.7067 442.187 52.608C445.003 55.5093 447.136 58.9653 448.587 62.976C450.123 66.9013 450.848 71.2107 450.763 75.904L450.635 81.536H395.723L392.779 71.04H439.243L437.323 73.216V70.144C437.067 67.328 436.128 64.8107 434.507 62.592C432.886 60.3733 430.838 58.624 428.363 57.344C425.888 56.064 423.2 55.424 420.299 55.424C415.691 55.424 411.808 56.32 408.651 58.112C405.494 59.8187 403.104 62.3787 401.483 65.792C399.862 69.12 399.051 73.2587 399.051 78.208C399.051 82.9013 400.032 86.9973 401.995 90.496C403.958 93.9093 406.731 96.5547 410.315 98.432C413.899 100.309 418.038 101.248 422.731 101.248C426.059 101.248 429.131 100.693 431.947 99.584C434.848 98.4747 437.963 96.4693 441.291 93.568L447.947 102.912C445.899 104.96 443.382 106.752 440.395 108.288C437.494 109.824 434.379 111.061 431.051 112C427.808 112.853 424.608 113.28 421.451 113.28ZM460.867 113.408C458.051 113.408 455.875 112.597 454.339 110.976C452.803 109.269 452.035 106.88 452.035 103.808C452.035 100.992 452.846 98.688 454.467 96.896C456.088 95.104 458.222 94.208 460.867 94.208C463.683 94.208 465.859 95.0613 467.395 96.768C468.931 98.3893 469.699 100.736 469.699 103.808C469.699 106.624 468.888 108.928 467.267 110.72C465.646 112.512 463.512 113.408 460.867 113.408ZM521.643 112V35.712H496.555V22.4H561.323V35.712H535.467V112H521.643ZM584.051 113.28C577.139 113.28 570.995 111.829 565.619 108.928C560.328 105.941 556.147 101.888 553.075 96.768C550.088 91.648 548.595 85.76 548.595 79.104C548.595 73.8133 549.448 68.992 551.155 64.64C552.862 60.288 555.208 56.5333 558.195 53.376C561.267 50.1333 564.894 47.6587 569.075 45.952C573.342 44.16 577.95 43.264 582.899 43.264C587.251 43.264 591.304 44.1173 595.059 45.824C598.814 47.4453 602.056 49.7067 604.787 52.608C607.603 55.5093 609.736 58.9653 611.187 62.976C612.723 66.9013 613.448 71.2107 613.363 75.904L613.235 81.536H558.323L555.379 71.04H601.843L599.923 73.216V70.144C599.667 67.328 598.728 64.8107 597.107 62.592C595.486 60.3733 593.438 58.624 590.963 57.344C588.488 56.064 585.8 55.424 582.899 55.424C578.291 55.424 574.408 56.32 571.251 58.112C568.094 59.8187 565.704 62.3787 564.083 65.792C562.462 69.12 561.651 73.2587 561.651 78.208C561.651 82.9013 562.632 86.9973 564.595 90.496C566.558 93.9093 569.331 96.5547 572.915 98.432C576.499 100.309 580.638 101.248 585.331 101.248C588.659 101.248 591.731 100.693 594.547 99.584C597.448 98.4747 600.563 96.4693 603.891 93.568L610.547 102.912C608.499 104.96 605.982 106.752 602.995 108.288C600.094 109.824 596.979 111.061 593.651 112C590.408 112.853 587.208 113.28 584.051 113.28ZM646.635 113.28C640.406 113.28 634.816 111.744 629.867 108.672C625.003 105.6 621.12 101.419 618.219 96.128C615.403 90.8373 613.995 84.9067 613.995 78.336C613.995 71.7653 615.403 65.8347 618.219 60.544C621.12 55.2533 625.003 51.072 629.867 48C634.816 44.928 640.406 43.392 646.635 43.392C652.608 43.392 658.027 44.6293 662.891 47.104C667.84 49.4933 671.595 52.7787 674.155 56.96L666.859 65.92C665.494 63.9573 663.744 62.1653 661.611 60.544C659.478 58.9227 657.216 57.6427 654.827 56.704C652.438 55.7653 650.134 55.296 647.915 55.296C643.819 55.296 640.15 56.32 636.907 58.368C633.75 60.3307 631.232 63.0613 629.355 66.56C627.478 70.0587 626.539 73.984 626.539 78.336C626.539 82.688 627.52 86.6133 629.483 90.112C631.446 93.5253 634.048 96.256 637.291 98.304C640.534 100.352 644.118 101.376 648.043 101.376C650.347 101.376 652.566 100.992 654.699 100.224C656.918 99.456 659.051 98.304 661.099 96.768C663.147 95.232 665.067 93.3547 666.859 91.136L674.155 100.096C671.424 103.936 667.499 107.093 662.379 109.568C657.344 112.043 652.096 113.28 646.635 113.28ZM676.991 112V17.28H690.175V58.624L687.871 60.16C688.724 57.1733 690.388 54.4427 692.863 51.968C695.338 49.408 698.282 47.36 701.695 45.824C705.108 44.2027 708.607 43.392 712.191 43.392C717.311 43.392 721.578 44.416 724.991 46.464C728.404 48.4267 730.964 51.456 732.671 55.552C734.378 59.648 735.231 64.8107 735.231 71.04V112H722.047V71.936C722.047 68.096 721.535 64.9387 720.511 62.464C719.487 59.904 717.908 58.0693 715.775 56.96C713.642 55.7653 710.996 55.2533 707.839 55.424C705.279 55.424 702.932 55.8507 700.799 56.704C698.666 57.472 696.788 58.5813 695.167 60.032C693.631 61.4827 692.394 63.1893 691.455 65.152C690.602 67.0293 690.175 69.0773 690.175 71.296V112H683.647C682.538 112 681.428 112 680.319 112C679.21 112 678.1 112 676.991 112ZM743.516 112V44.8H756.7V58.624L754.396 60.16C755.249 57.1733 756.913 54.4427 759.388 51.968C761.863 49.408 764.807 47.36 768.22 45.824C771.633 44.2027 775.132 43.392 778.716 43.392C783.836 43.392 788.103 44.416 791.516 46.464C794.929 48.4267 797.489 51.456 799.196 55.552C800.903 59.648 801.756 64.8107 801.756 71.04V112H788.572V71.936C788.572 68.096 788.06 64.9387 787.036 62.464C786.012 59.904 784.433 58.0693 782.3 56.96C780.167 55.7653 777.521 55.2533 774.364 55.424C771.804 55.424 769.457 55.8507 767.324 56.704C765.191 57.472 763.313 58.5813 761.692 60.032C760.156 61.4827 758.919 63.1893 757.98 65.152C757.127 67.0293 756.7 69.0773 756.7 71.296V112H750.172C749.063 112 747.953 112 746.844 112C745.735 112 744.625 112 743.516 112ZM812.217 112V44.8H825.401V112H812.217ZM818.617 29.952C815.801 29.952 813.625 29.2267 812.089 27.776C810.553 26.3253 809.785 24.2773 809.785 21.632C809.785 19.1573 810.553 17.152 812.089 15.616C813.71 14.08 815.886 13.312 818.617 13.312C821.433 13.312 823.609 14.0373 825.145 15.488C826.681 16.9387 827.449 18.9867 827.449 21.632C827.449 24.1067 826.638 26.112 825.017 27.648C823.481 29.184 821.348 29.952 818.617 29.952ZM864.61 113.28C858.381 113.28 852.791 111.744 847.842 108.672C842.978 105.6 839.095 101.419 836.194 96.128C833.378 90.8373 831.97 84.9067 831.97 78.336C831.97 71.7653 833.378 65.8347 836.194 60.544C839.095 55.2533 842.978 51.072 847.842 48C852.791 44.928 858.381 43.392 864.61 43.392C870.583 43.392 876.002 44.6293 880.866 47.104C885.815 49.4933 889.57 52.7787 892.13 56.96L884.834 65.92C883.469 63.9573 881.719 62.1653 879.586 60.544C877.453 58.9227 875.191 57.6427 872.802 56.704C870.413 55.7653 868.109 55.296 865.89 55.296C861.794 55.296 858.125 56.32 854.882 58.368C851.725 60.3307 849.207 63.0613 847.33 66.56C845.453 70.0587 844.514 73.984 844.514 78.336C844.514 82.688 845.495 86.6133 847.458 90.112C849.421 93.5253 852.023 96.256 855.266 98.304C858.509 100.352 862.093 101.376 866.018 101.376C868.322 101.376 870.541 100.992 872.674 100.224C874.893 99.456 877.026 98.304 879.074 96.768C881.122 95.232 883.042 93.3547 884.834 91.136L892.13 100.096C889.399 103.936 885.474 107.093 880.354 109.568C875.319 112.043 870.071 113.28 864.61 113.28ZM920.822 113.28C915.275 113.28 910.198 111.744 905.59 108.672C901.067 105.6 897.441 101.419 894.71 96.128C891.979 90.8373 890.614 84.864 890.614 78.208C890.614 71.4667 891.979 65.4933 894.71 60.288C897.526 54.9973 901.281 50.8587 905.974 47.872C910.753 44.8853 916.086 43.392 921.974 43.392C925.473 43.392 928.673 43.904 931.574 44.928C934.475 45.952 936.993 47.4027 939.126 49.28C941.345 51.072 943.137 53.1627 944.502 55.552C945.953 57.9413 946.849 60.5013 947.19 63.232L944.246 62.208V44.8H957.558V112H944.246V96L947.318 95.104C946.806 97.408 945.739 99.6693 944.118 101.888C942.582 104.021 940.577 105.941 938.102 107.648C935.713 109.355 933.025 110.72 930.038 111.744C927.137 112.768 924.065 113.28 920.822 113.28ZM924.278 101.12C928.289 101.12 931.83 100.139 934.902 98.176C937.974 96.2133 940.363 93.5253 942.07 90.112C943.862 86.6133 944.758 82.6453 944.758 78.208C944.758 73.856 943.862 69.9733 942.07 66.56C940.363 63.1467 937.974 60.4587 934.902 58.496C931.83 56.5333 928.289 55.552 924.278 55.552C920.353 55.552 916.854 56.5333 913.782 58.496C910.795 60.4587 908.406 63.1467 906.614 66.56C904.907 69.9733 904.054 73.856 904.054 78.208C904.054 82.6453 904.907 86.6133 906.614 90.112C908.406 93.5253 910.795 96.2133 913.782 98.176C916.854 100.139 920.353 101.12 924.278 101.12ZM966.622 112V17.28H979.806V112H966.622ZM994.267 113.408C991.451 113.408 989.275 112.597 987.739 110.976C986.203 109.269 985.435 106.88 985.435 103.808C985.435 100.992 986.246 98.688 987.867 96.896C989.488 95.104 991.622 94.208 994.267 94.208C997.083 94.208 999.259 95.0613 1000.79 96.768C1002.33 98.3893 1003.1 100.736 1003.1 103.808C1003.1 106.624 1002.29 108.928 1000.67 110.72C999.046 112.512 996.912 113.408 994.267 113.408ZM211.794 240V150.4H248.274C253.138 150.4 257.533 151.637 261.458 154.112C265.469 156.501 268.669 159.787 271.058 163.968C273.447 168.149 274.642 172.8 274.642 177.92C274.642 183.04 273.447 187.691 271.058 191.872C268.669 196.053 265.469 199.424 261.458 201.984C257.533 204.459 253.138 205.696 248.274 205.696H225.618V240H211.794ZM225.618 192.384H248.018C250.322 192.384 252.413 191.744 254.29 190.464C256.167 189.099 257.661 187.349 258.77 185.216C259.965 182.997 260.562 180.565 260.562 177.92C260.562 175.275 259.965 172.885 258.77 170.752C257.661 168.619 256.167 166.912 254.29 165.632C252.413 164.352 250.322 163.712 248.018 163.712H225.618V192.384ZM279.991 240V172.8H293.303V193.92L292.023 188.8C292.962 185.557 294.54 182.613 296.759 179.968C299.063 177.323 301.666 175.232 304.567 173.696C307.554 172.16 310.626 171.392 313.783 171.392C315.234 171.392 316.599 171.52 317.879 171.776C319.244 172.032 320.311 172.331 321.079 172.672L317.623 187.008C316.599 186.581 315.447 186.24 314.167 185.984C312.972 185.643 311.778 185.472 310.583 185.472C308.279 185.472 306.06 185.941 303.927 186.88C301.879 187.733 300.044 188.971 298.423 190.592C296.887 192.128 295.65 193.963 294.711 196.096C293.772 198.144 293.303 200.405 293.303 202.88V240H279.991ZM349.349 241.28C342.778 241.28 336.89 239.787 331.685 236.8C326.565 233.728 322.512 229.589 319.525 224.384C316.538 219.093 315.045 213.077 315.045 206.336C315.045 199.595 316.538 193.621 319.525 188.416C322.512 183.125 326.565 178.987 331.685 176C336.89 172.928 342.778 171.392 349.349 171.392C355.834 171.392 361.637 172.928 366.757 176C371.962 178.987 376.058 183.125 379.045 188.416C382.032 193.621 383.525 199.595 383.525 206.336C383.525 213.077 382.032 219.093 379.045 224.384C376.058 229.589 371.962 233.728 366.757 236.8C361.637 239.787 355.834 241.28 349.349 241.28ZM349.349 229.248C353.36 229.248 356.944 228.267 360.101 226.304C363.258 224.256 365.733 221.525 367.525 218.112C369.317 214.613 370.17 210.688 370.085 206.336C370.17 201.899 369.317 197.973 367.525 194.56C365.733 191.061 363.258 188.331 360.101 186.368C356.944 184.405 353.36 183.424 349.349 183.424C345.338 183.424 341.712 184.448 338.469 186.496C335.312 188.459 332.837 191.189 331.045 194.688C329.253 198.101 328.4 201.984 328.485 206.336C328.4 210.688 329.253 214.613 331.045 218.112C332.837 221.525 335.312 224.256 338.469 226.304C341.712 228.267 345.338 229.248 349.349 229.248ZM416.323 241.28C410.179 241.28 404.675 239.787 399.811 236.8C395.032 233.728 391.235 229.589 388.419 224.384C385.603 219.093 384.195 213.077 384.195 206.336C384.195 199.595 385.56 193.621 388.291 188.416C391.107 183.125 394.904 178.987 399.683 176C404.462 172.928 409.88 171.392 415.939 171.392C419.267 171.392 422.467 171.947 425.539 173.056C428.696 174.08 431.512 175.531 433.987 177.408C436.462 179.2 438.382 181.205 439.747 183.424C441.198 185.557 441.923 187.733 441.923 189.952L438.083 190.208V145.28H451.267V240H438.083V224H440.643C440.643 226.048 439.96 228.096 438.595 230.144C437.23 232.107 435.395 233.941 433.091 235.648C430.872 237.355 428.27 238.72 425.283 239.744C422.382 240.768 419.395 241.28 416.323 241.28ZM418.115 229.888C422.126 229.888 425.667 228.864 428.739 226.816C431.811 224.768 434.2 221.995 435.907 218.496C437.699 214.912 438.595 210.859 438.595 206.336C438.595 201.813 437.699 197.803 435.907 194.304C434.2 190.72 431.811 187.904 428.739 185.856C425.667 183.808 422.126 182.784 418.115 182.784C414.104 182.784 410.563 183.808 407.491 185.856C404.419 187.904 401.987 190.72 400.195 194.304C398.488 197.803 397.635 201.813 397.635 206.336C397.635 210.859 398.488 214.912 400.195 218.496C401.987 221.995 404.419 224.768 407.491 226.816C410.563 228.864 414.104 229.888 418.115 229.888ZM485.368 241.28C480.589 241.28 476.408 240.171 472.824 237.952C469.325 235.733 466.595 232.619 464.632 228.608C462.755 224.597 461.816 219.819 461.816 214.272V172.8H475V210.688C475 214.613 475.597 218.027 476.792 220.928C478.072 223.744 479.864 225.92 482.168 227.456C484.557 228.992 487.416 229.76 490.744 229.76C493.219 229.76 495.48 229.376 497.528 228.608C499.576 227.755 501.325 226.603 502.776 225.152C504.312 223.701 505.507 221.952 506.36 219.904C507.213 217.856 507.64 215.637 507.64 213.248V172.8H520.824V240H507.64V225.92L509.944 224.384C508.92 227.541 507.171 230.4 504.696 232.96C502.307 235.52 499.448 237.568 496.12 239.104C492.792 240.555 489.208 241.28 485.368 241.28ZM558.26 241.28C552.031 241.28 546.441 239.744 541.492 236.672C536.628 233.6 532.745 229.419 529.844 224.128C527.028 218.837 525.62 212.907 525.62 206.336C525.62 199.765 527.028 193.835 529.844 188.544C532.745 183.253 536.628 179.072 541.492 176C546.441 172.928 552.031 171.392 558.26 171.392C564.233 171.392 569.652 172.629 574.516 175.104C579.465 177.493 583.22 180.779 585.78 184.96L578.484 193.92C577.119 191.957 575.369 190.165 573.236 188.544C571.103 186.923 568.841 185.643 566.452 184.704C564.063 183.765 561.759 183.296 559.54 183.296C555.444 183.296 551.775 184.32 548.532 186.368C545.375 188.331 542.857 191.061 540.98 194.56C539.103 198.059 538.164 201.984 538.164 206.336C538.164 210.688 539.145 214.613 541.108 218.112C543.071 221.525 545.673 224.256 548.916 226.304C552.159 228.352 555.743 229.376 559.668 229.376C561.972 229.376 564.191 228.992 566.324 228.224C568.543 227.456 570.676 226.304 572.724 224.768C574.772 223.232 576.692 221.355 578.484 219.136L585.78 228.096C583.049 231.936 579.124 235.093 574.004 237.568C568.969 240.043 563.721 241.28 558.26 241.28ZM596.936 240V155.648H610.12V240H596.936ZM582.984 185.6V172.8H625.736V185.6H582.984ZM630.317 240V172.8H643.501V240H630.317ZM636.717 157.952C633.901 157.952 631.725 157.227 630.189 155.776C628.653 154.325 627.885 152.277 627.885 149.632C627.885 147.157 628.653 145.152 630.189 143.616C631.81 142.08 633.986 141.312 636.717 141.312C639.533 141.312 641.709 142.037 643.245 143.488C644.781 144.939 645.549 146.987 645.549 149.632C645.549 152.107 644.738 154.112 643.117 155.648C641.581 157.184 639.448 157.952 636.717 157.952ZM684.374 241.28C677.803 241.28 671.915 239.787 666.71 236.8C661.59 233.728 657.537 229.589 654.55 224.384C651.563 219.093 650.07 213.077 650.07 206.336C650.07 199.595 651.563 193.621 654.55 188.416C657.537 183.125 661.59 178.987 666.71 176C671.915 172.928 677.803 171.392 684.374 171.392C690.859 171.392 696.662 172.928 701.782 176C706.987 178.987 711.083 183.125 714.07 188.416C717.057 193.621 718.55 199.595 718.55 206.336C718.55 213.077 717.057 219.093 714.07 224.384C711.083 229.589 706.987 233.728 701.782 236.8C696.662 239.787 690.859 241.28 684.374 241.28ZM684.374 229.248C688.385 229.248 691.969 228.267 695.126 226.304C698.283 224.256 700.758 221.525 702.55 218.112C704.342 214.613 705.195 210.688 705.11 206.336C705.195 201.899 704.342 197.973 702.55 194.56C700.758 191.061 698.283 188.331 695.126 186.368C691.969 184.405 688.385 183.424 684.374 183.424C680.363 183.424 676.737 184.448 673.494 186.496C670.337 188.459 667.862 191.189 666.07 194.688C664.278 198.101 663.425 201.984 663.51 206.336C663.425 210.688 664.278 214.613 666.07 218.112C667.862 221.525 670.337 224.256 673.494 226.304C676.737 228.267 680.363 229.248 684.374 229.248ZM723.316 240V172.8H736.5V186.624L734.196 188.16C735.049 185.173 736.713 182.443 739.188 179.968C741.663 177.408 744.607 175.36 748.02 173.824C751.433 172.203 754.932 171.392 758.516 171.392C763.636 171.392 767.903 172.416 771.316 174.464C774.729 176.427 777.289 179.456 778.996 183.552C780.703 187.648 781.556 192.811 781.556 199.04V240H768.372V199.936C768.372 196.096 767.86 192.939 766.836 190.464C765.812 187.904 764.233 186.069 762.1 184.96C759.967 183.765 757.321 183.253 754.164 183.424C751.604 183.424 749.257 183.851 747.124 184.704C744.991 185.472 743.113 186.581 741.492 188.032C739.956 189.483 738.719 191.189 737.78 193.152C736.927 195.029 736.5 197.077 736.5 199.296V240H729.972C728.863 240 727.753 240 726.644 240C725.535 240 724.425 240 723.316 240ZM795.217 241.408C792.401 241.408 790.225 240.597 788.689 238.976C787.153 237.269 786.385 234.88 786.385 231.808C786.385 228.992 787.196 226.688 788.817 224.896C790.438 223.104 792.572 222.208 795.217 222.208C798.033 222.208 800.209 223.061 801.745 224.768C803.281 226.389 804.049 228.736 804.049 231.808C804.049 234.624 803.238 236.928 801.617 238.72C799.996 240.512 797.862 241.408 795.217 241.408Z" fill="white"/>
</svg>
