<svg width="612" height="269" viewBox="0 0 612 269" fill="none" xmlns="http://www.w3.org/2000/svg">
<path d="M20.6 73V23.5H1.88V10H55.07V23.5H35.9V73H20.6ZM59.0033 73V25.21H72.6833L73.3133 40.78L70.6133 37.81C71.3333 35.23 72.5033 32.92 74.1233 30.88C75.8033 28.84 77.7533 27.22 79.9733 26.02C82.1933 24.82 84.5633 24.22 87.0833 24.22C88.1633 24.22 89.1533 24.31 90.0533 24.49C91.0133 24.67 91.8833 24.88 92.6633 25.12L88.7033 41.05C88.0433 40.63 87.1433 40.3 86.0033 40.06C84.9233 39.76 83.7833 39.61 82.5833 39.61C81.2633 39.61 80.0333 39.85 78.8933 40.33C77.7533 40.75 76.7933 41.38 76.0133 42.22C75.2333 43.06 74.6033 44.05 74.1233 45.19C73.7033 46.33 73.4933 47.62 73.4933 49.06V73H59.0033ZM115.579 73.81C111.559 73.81 107.959 72.76 104.779 70.66C101.659 68.5 99.1688 65.56 97.3088 61.84C95.4488 58.06 94.5188 53.8 94.5188 49.06C94.5188 44.2 95.4488 39.91 97.3088 36.19C99.1688 32.47 101.719 29.56 104.959 27.46C108.199 25.3 111.889 24.22 116.029 24.22C118.309 24.22 120.379 24.55 122.239 25.21C124.159 25.87 125.839 26.8 127.279 28C128.719 29.14 129.949 30.49 130.969 32.05C131.989 33.55 132.739 35.17 133.219 36.91L130.249 36.55V25.21H144.559V73H129.979V61.48L133.219 61.39C132.739 63.07 131.959 64.66 130.879 66.16C129.799 67.66 128.479 68.98 126.919 70.12C125.359 71.26 123.619 72.16 121.699 72.82C119.779 73.48 117.739 73.81 115.579 73.81ZM119.539 61.66C121.759 61.66 123.679 61.15 125.299 60.13C126.919 59.11 128.179 57.67 129.079 55.81C129.979 53.89 130.429 51.64 130.429 49.06C130.429 46.48 129.979 44.26 129.079 42.4C128.179 40.48 126.919 39.01 125.299 37.99C123.679 36.91 121.759 36.37 119.539 36.37C117.379 36.37 115.489 36.91 113.869 37.99C112.309 39.01 111.079 40.48 110.179 42.4C109.279 44.26 108.829 46.48 108.829 49.06C108.829 51.64 109.279 53.89 110.179 55.81C111.079 57.67 112.309 59.11 113.869 60.13C115.489 61.15 117.379 61.66 119.539 61.66ZM157.265 73V25.21H170.945L171.395 34.93L168.515 36.01C169.175 33.85 170.345 31.9 172.025 30.16C173.765 28.36 175.835 26.92 178.235 25.84C180.635 24.76 183.155 24.22 185.795 24.22C189.395 24.22 192.425 24.97 194.885 26.47C197.345 27.91 199.205 30.1 200.465 33.04C201.725 35.92 202.355 39.46 202.355 43.66V73H187.865V44.83C187.865 42.91 187.595 41.32 187.055 40.06C186.515 38.8 185.675 37.87 184.535 37.27C183.455 36.61 182.105 36.31 180.485 36.37C179.225 36.37 178.055 36.58 176.975 37C175.895 37.36 174.965 37.93 174.185 38.71C173.405 39.43 172.775 40.27 172.295 41.23C171.875 42.19 171.665 43.24 171.665 44.38V73H164.555C162.875 73 161.435 73 160.235 73C159.035 73 158.045 73 157.265 73ZM230.504 73.9C225.824 73.9 221.684 73.15 218.084 71.65C214.544 70.15 211.724 68.14 209.624 65.62L218.354 58.06C220.214 59.92 222.314 61.3 224.654 62.2C226.994 63.04 229.214 63.46 231.314 63.46C232.154 63.46 232.904 63.37 233.564 63.19C234.224 63.01 234.764 62.77 235.184 62.47C235.664 62.11 236.024 61.72 236.264 61.3C236.504 60.82 236.624 60.28 236.624 59.68C236.624 58.48 236.084 57.55 235.004 56.89C234.464 56.59 233.564 56.23 232.304 55.81C231.044 55.39 229.424 54.91 227.444 54.37C224.624 53.65 222.164 52.81 220.064 51.85C218.024 50.83 216.344 49.66 215.024 48.34C213.824 47.08 212.894 45.7 212.234 44.2C211.574 42.64 211.244 40.9 211.244 38.98C211.244 36.76 211.754 34.75 212.774 32.95C213.854 31.15 215.264 29.59 217.004 28.27C218.804 26.95 220.844 25.96 223.124 25.3C225.464 24.58 227.864 24.22 230.324 24.22C232.964 24.22 235.484 24.52 237.884 25.12C240.284 25.72 242.504 26.56 244.544 27.64C246.644 28.72 248.504 30.01 250.124 31.51L242.564 39.97C241.484 38.95 240.254 38.05 238.874 37.27C237.554 36.43 236.174 35.77 234.734 35.29C233.294 34.81 231.974 34.57 230.774 34.57C229.874 34.57 229.064 34.66 228.344 34.84C227.684 34.96 227.114 35.2 226.634 35.56C226.154 35.86 225.794 36.25 225.554 36.73C225.314 37.15 225.194 37.66 225.194 38.26C225.194 38.86 225.344 39.43 225.644 39.97C226.004 40.51 226.484 40.96 227.084 41.32C227.684 41.68 228.644 42.1 229.964 42.58C231.284 43 233.084 43.54 235.364 44.2C238.184 44.98 240.614 45.85 242.654 46.81C244.694 47.77 246.314 48.91 247.514 50.23C248.474 51.25 249.194 52.45 249.674 53.83C250.154 55.15 250.394 56.59 250.394 58.15C250.394 61.21 249.524 63.94 247.784 66.34C246.104 68.68 243.764 70.54 240.764 71.92C237.764 73.24 234.344 73.9 230.504 73.9ZM261.924 73V22.87C261.924 19.75 262.584 16.93 263.904 14.41C265.284 11.89 267.174 9.91 269.574 8.47C272.034 6.97 274.884 6.22 278.124 6.22C280.404 6.22 282.504 6.55 284.424 7.21C286.344 7.87 288.054 8.8 289.554 10L285.414 20.53C284.634 20.11 283.884 19.78 283.164 19.54C282.444 19.3 281.784 19.18 281.184 19.18C280.104 19.18 279.204 19.36 278.484 19.72C277.764 20.08 277.224 20.65 276.864 21.43C276.564 22.15 276.414 23.05 276.414 24.13V73H269.214C267.594 73 266.154 73 264.894 73C263.694 73 262.704 73 261.924 73ZM254.994 38.44V26.56H286.224V38.44H254.994ZM315.029 73.9C310.049 73.9 305.609 72.82 301.709 70.66C297.869 68.5 294.809 65.56 292.529 61.84C290.309 58.12 289.199 53.86 289.199 49.06C289.199 44.26 290.309 40 292.529 36.28C294.809 32.56 297.869 29.62 301.709 27.46C305.609 25.3 310.049 24.22 315.029 24.22C320.009 24.22 324.419 25.3 328.259 27.46C332.159 29.62 335.219 32.56 337.439 36.28C339.659 40 340.769 44.26 340.769 49.06C340.769 53.86 339.659 58.12 337.439 61.84C335.219 65.56 332.159 68.5 328.259 70.66C324.419 72.82 320.009 73.9 315.029 73.9ZM315.029 61.48C317.189 61.48 319.109 60.94 320.789 59.86C322.469 58.78 323.789 57.31 324.749 55.45C325.709 53.59 326.159 51.46 326.099 49.06C326.159 46.66 325.709 44.53 324.749 42.67C323.789 40.75 322.469 39.25 320.789 38.17C319.109 37.09 317.189 36.55 315.029 36.55C312.869 36.55 310.919 37.09 309.179 38.17C307.499 39.25 306.179 40.75 305.219 42.67C304.259 44.53 303.809 46.66 303.869 49.06C303.809 51.46 304.259 53.59 305.219 55.45C306.179 57.31 307.499 58.78 309.179 59.86C310.919 60.94 312.869 61.48 315.029 61.48ZM350.185 73V25.21H363.865L364.495 40.78L361.795 37.81C362.515 35.23 363.685 32.92 365.305 30.88C366.985 28.84 368.935 27.22 371.155 26.02C373.375 24.82 375.745 24.22 378.265 24.22C379.345 24.22 380.335 24.31 381.235 24.49C382.195 24.67 383.065 24.88 383.845 25.12L379.885 41.05C379.225 40.63 378.325 40.3 377.185 40.06C376.105 39.76 374.965 39.61 373.765 39.61C372.445 39.61 371.215 39.85 370.075 40.33C368.935 40.75 367.975 41.38 367.195 42.22C366.415 43.06 365.785 44.05 365.305 45.19C364.885 46.33 364.675 47.62 364.675 49.06V73H350.185ZM391.052 73V25.21H404.732L405.182 33.85L403.292 33.94C404.012 32.38 404.912 31 405.992 29.8C407.132 28.6 408.392 27.61 409.772 26.83C411.212 25.99 412.682 25.36 414.182 24.94C415.742 24.52 417.302 24.31 418.862 24.31C421.202 24.31 423.332 24.67 425.252 25.39C427.172 26.11 428.852 27.28 430.292 28.9C431.732 30.46 432.872 32.59 433.712 35.29L431.462 35.11L432.182 33.67C432.962 32.23 433.952 30.94 435.152 29.8C436.412 28.6 437.792 27.61 439.292 26.83C440.792 25.99 442.352 25.36 443.972 24.94C445.592 24.52 447.152 24.31 448.652 24.31C452.432 24.31 455.582 25.06 458.102 26.56C460.622 28 462.512 30.19 463.772 33.13C465.092 36.07 465.752 39.64 465.752 43.84V73H451.262V45.01C451.262 43.09 450.992 41.5 450.452 40.24C449.912 38.98 449.102 38.05 448.022 37.45C447.002 36.79 445.712 36.46 444.152 36.46C442.892 36.46 441.722 36.67 440.642 37.09C439.622 37.51 438.722 38.08 437.942 38.8C437.222 39.52 436.652 40.36 436.232 41.32C435.812 42.28 435.602 43.36 435.602 44.56V73H421.112V44.92C421.112 43.12 420.842 41.59 420.302 40.33C419.762 39.07 418.952 38.11 417.872 37.45C416.792 36.79 415.532 36.46 414.092 36.46C412.832 36.46 411.662 36.67 410.582 37.09C409.562 37.51 408.662 38.08 407.882 38.8C407.162 39.52 406.592 40.36 406.172 41.32C405.752 42.28 405.542 43.33 405.542 44.47V73H391.052ZM478.524 73V25.21H492.924V73H478.524ZM485.724 15.76C483.024 15.76 480.894 15.13 479.334 13.87C477.834 12.55 477.084 10.69 477.084 8.29C477.084 6.13 477.864 4.36 479.424 2.97999C480.984 1.59999 483.084 0.909995 485.724 0.909995C488.424 0.909995 490.524 1.57 492.024 2.89C493.524 4.15 494.274 5.95 494.274 8.29C494.274 10.51 493.494 12.31 491.934 13.69C490.434 15.07 488.364 15.76 485.724 15.76ZM506.454 73V25.21H520.134L520.584 34.93L517.704 36.01C518.364 33.85 519.534 31.9 521.214 30.16C522.954 28.36 525.024 26.92 527.424 25.84C529.824 24.76 532.344 24.22 534.984 24.22C538.584 24.22 541.614 24.97 544.074 26.47C546.534 27.91 548.394 30.1 549.654 33.04C550.914 35.92 551.544 39.46 551.544 43.66V73H537.054V44.83C537.054 42.91 536.784 41.32 536.244 40.06C535.704 38.8 534.864 37.87 533.724 37.27C532.644 36.61 531.294 36.31 529.674 36.37C528.414 36.37 527.244 36.58 526.164 37C525.084 37.36 524.154 37.93 523.374 38.71C522.594 39.43 521.964 40.27 521.484 41.23C521.064 42.19 520.854 43.24 520.854 44.38V73H513.744C512.064 73 510.624 73 509.424 73C508.224 73 507.234 73 506.454 73ZM585.453 93.7C581.553 93.7 577.653 93.13 573.753 91.99C569.913 90.85 566.793 89.38 564.393 87.58L569.433 77.5C570.693 78.34 572.073 79.06 573.573 79.66C575.133 80.32 576.753 80.83 578.433 81.19C580.113 81.55 581.823 81.73 583.563 81.73C586.623 81.73 589.113 81.28 591.033 80.38C592.953 79.48 594.393 78.1 595.353 76.24C596.313 74.44 596.793 72.16 596.793 69.4V61.39L599.583 61.84C599.163 63.82 598.113 65.62 596.433 67.24C594.813 68.86 592.803 70.18 590.403 71.2C588.003 72.16 585.453 72.64 582.753 72.64C578.433 72.64 574.563 71.65 571.143 69.67C567.783 67.63 565.113 64.84 563.133 61.3C561.213 57.7 560.253 53.56 560.253 48.88C560.253 44.08 561.213 39.85 563.133 36.19C565.053 32.47 567.693 29.56 571.053 27.46C574.413 25.3 578.193 24.22 582.393 24.22C584.193 24.22 585.903 24.43 587.523 24.85C589.203 25.27 590.733 25.84 592.113 26.56C593.553 27.22 594.813 28.03 595.893 28.99C597.033 29.89 597.933 30.88 598.593 31.96C599.313 33.04 599.793 34.15 600.033 35.29L597.063 36.01L597.603 25.21H611.283V69.13C611.283 73.03 610.683 76.48 609.483 79.48C608.343 82.54 606.633 85.12 604.353 87.22C602.133 89.38 599.433 91 596.253 92.08C593.073 93.16 589.473 93.7 585.453 93.7ZM585.813 61.48C588.153 61.48 590.163 60.97 591.843 59.95C593.583 58.87 594.903 57.4 595.803 55.54C596.763 53.68 597.243 51.49 597.243 48.97C597.243 46.45 596.763 44.26 595.803 42.4C594.903 40.48 593.583 39.01 591.843 37.99C590.163 36.91 588.153 36.37 585.813 36.37C583.533 36.37 581.553 36.91 579.873 37.99C578.193 39.01 576.873 40.48 575.913 42.4C575.013 44.26 574.563 46.45 574.563 48.97C574.563 51.49 575.013 53.68 575.913 55.54C576.873 57.4 578.193 58.87 579.873 59.95C581.553 60.97 583.533 61.48 585.813 61.48ZM21.5 161.9C16.82 161.9 12.68 161.15 9.08 159.65C5.54 158.15 2.72 156.14 0.62 153.62L9.35 146.06C11.21 147.92 13.31 149.3 15.65 150.2C17.99 151.04 20.21 151.46 22.31 151.46C23.15 151.46 23.9 151.37 24.56 151.19C25.22 151.01 25.76 150.77 26.18 150.47C26.66 150.11 27.02 149.72 27.26 149.3C27.5 148.82 27.62 148.28 27.62 147.68C27.62 146.48 27.08 145.55 26 144.89C25.46 144.59 24.56 144.23 23.3 143.81C22.04 143.39 20.42 142.91 18.44 142.37C15.62 141.65 13.16 140.81 11.06 139.85C9.02 138.83 7.34 137.66 6.02 136.34C4.82 135.08 3.89 133.7 3.23 132.2C2.57 130.64 2.24 128.9 2.24 126.98C2.24 124.76 2.75 122.75 3.77 120.95C4.85 119.15 6.26 117.59 8 116.27C9.8 114.95 11.84 113.96 14.12 113.3C16.46 112.58 18.86 112.22 21.32 112.22C23.96 112.22 26.48 112.52 28.88 113.12C31.28 113.72 33.5 114.56 35.54 115.64C37.64 116.72 39.5 118.01 41.12 119.51L33.56 127.97C32.48 126.95 31.25 126.05 29.87 125.27C28.55 124.43 27.17 123.77 25.73 123.29C24.29 122.81 22.97 122.57 21.77 122.57C20.87 122.57 20.06 122.66 19.34 122.84C18.68 122.96 18.11 123.2 17.63 123.56C17.15 123.86 16.79 124.25 16.55 124.73C16.31 125.15 16.19 125.66 16.19 126.26C16.19 126.86 16.34 127.43 16.64 127.97C17 128.51 17.48 128.96 18.08 129.32C18.68 129.68 19.64 130.1 20.96 130.58C22.28 131 24.08 131.54 26.36 132.2C29.18 132.98 31.61 133.85 33.65 134.81C35.69 135.77 37.31 136.91 38.51 138.23C39.47 139.25 40.19 140.45 40.67 141.83C41.15 143.15 41.39 144.59 41.39 146.15C41.39 149.21 40.52 151.94 38.78 154.34C37.1 156.68 34.76 158.54 31.76 159.92C28.76 161.24 25.34 161.9 21.5 161.9ZM49.9505 180.8V113.21H63.6305L64.1705 123.92L61.4705 123.11C61.8905 121.13 62.9105 119.33 64.5305 117.71C66.1505 116.09 68.1905 114.8 70.6505 113.84C73.1705 112.82 75.8105 112.31 78.5705 112.31C82.6505 112.31 86.2805 113.39 89.4606 115.55C92.6405 117.65 95.1305 120.56 96.9306 124.28C98.7905 127.94 99.7205 132.2 99.7205 137.06C99.7205 141.86 98.7905 146.12 96.9306 149.84C95.1305 153.56 92.6105 156.5 89.3705 158.66C86.1905 160.76 82.5305 161.81 78.3905 161.81C75.6905 161.81 73.1105 161.3 70.6505 160.28C68.1905 159.26 66.1205 157.88 64.4405 156.14C62.7605 154.4 61.6505 152.51 61.1105 150.47L64.4405 149.21V180.8H49.9505ZM74.8805 149.66C77.0405 149.66 78.9305 149.15 80.5505 148.13C82.1705 147.05 83.4305 145.58 84.3305 143.72C85.2305 141.86 85.6805 139.64 85.6805 137.06C85.6805 134.54 85.2305 132.35 84.3305 130.49C83.4305 128.57 82.1705 127.1 80.5505 126.08C78.9905 125 77.1005 124.46 74.8805 124.46C72.6605 124.46 70.7405 124.97 69.1205 125.99C67.5005 127.01 66.2405 128.48 65.3405 130.4C64.4405 132.32 63.9905 134.54 63.9905 137.06C63.9905 139.64 64.4405 141.86 65.3405 143.72C66.2405 145.58 67.5005 147.05 69.1205 148.13C70.7405 149.15 72.6605 149.66 74.8805 149.66ZM126.917 161.81C122.897 161.81 119.297 160.76 116.117 158.66C112.997 156.5 110.507 153.56 108.647 149.84C106.787 146.06 105.857 141.8 105.857 137.06C105.857 132.2 106.787 127.91 108.647 124.19C110.507 120.47 113.057 117.56 116.297 115.46C119.537 113.3 123.227 112.22 127.367 112.22C129.647 112.22 131.717 112.55 133.577 113.21C135.497 113.87 137.177 114.8 138.617 116C140.057 117.14 141.287 118.49 142.307 120.05C143.327 121.55 144.077 123.17 144.557 124.91L141.587 124.55V113.21H155.897V161H141.317V149.48L144.557 149.39C144.077 151.07 143.297 152.66 142.217 154.16C141.137 155.66 139.817 156.98 138.257 158.12C136.697 159.26 134.957 160.16 133.037 160.82C131.117 161.48 129.077 161.81 126.917 161.81ZM130.877 149.66C133.097 149.66 135.017 149.15 136.637 148.13C138.257 147.11 139.517 145.67 140.417 143.81C141.317 141.89 141.767 139.64 141.767 137.06C141.767 134.48 141.317 132.26 140.417 130.4C139.517 128.48 138.257 127.01 136.637 125.99C135.017 124.91 133.097 124.37 130.877 124.37C128.717 124.37 126.827 124.91 125.207 125.99C123.647 127.01 122.417 128.48 121.517 130.4C120.617 132.26 120.167 134.48 120.167 137.06C120.167 139.64 120.617 141.89 121.517 143.81C122.417 145.67 123.647 147.11 125.207 148.13C126.827 149.15 128.717 149.66 130.877 149.66ZM189.573 161.9C184.953 161.9 180.813 160.82 177.153 158.66C173.493 156.5 170.583 153.56 168.423 149.84C166.323 146.06 165.273 141.8 165.273 137.06C165.273 132.32 166.323 128.09 168.423 124.37C170.583 120.59 173.493 117.62 177.153 115.46C180.813 113.3 184.953 112.22 189.573 112.22C193.833 112.22 197.733 112.97 201.273 114.47C204.873 115.97 207.723 118.07 209.823 120.77L201.993 130.13C201.153 129.17 200.163 128.27 199.023 127.43C197.883 126.59 196.623 125.93 195.243 125.45C193.863 124.97 192.423 124.73 190.923 124.73C188.643 124.73 186.633 125.27 184.893 126.35C183.153 127.37 181.803 128.81 180.843 130.67C179.883 132.53 179.403 134.66 179.403 137.06C179.403 139.34 179.883 141.41 180.843 143.27C181.863 145.13 183.243 146.6 184.983 147.68C186.723 148.76 188.703 149.3 190.923 149.3C192.483 149.3 193.923 149.12 195.243 148.76C196.563 148.34 197.763 147.74 198.843 146.96C199.983 146.18 201.033 145.22 201.993 144.08L209.733 153.53C207.693 156.11 204.843 158.15 201.183 159.65C197.583 161.15 193.713 161.9 189.573 161.9ZM240.416 161.9C235.136 161.9 230.546 160.85 226.646 158.75C222.746 156.59 219.716 153.68 217.556 150.02C215.396 146.3 214.316 142.07 214.316 137.33C214.316 133.67 214.916 130.31 216.116 127.25C217.316 124.19 218.996 121.55 221.156 119.33C223.316 117.05 225.866 115.31 228.806 114.11C231.806 112.85 235.076 112.22 238.616 112.22C241.976 112.22 245.036 112.82 247.796 114.02C250.616 115.22 253.046 116.9 255.086 119.06C257.126 121.22 258.686 123.77 259.766 126.71C260.846 129.65 261.326 132.86 261.206 136.34L261.116 140.21H223.046L220.976 132.11H249.416L247.886 133.82V132.02C247.766 130.52 247.286 129.2 246.446 128.06C245.666 126.86 244.616 125.93 243.296 125.27C241.976 124.61 240.476 124.28 238.796 124.28C236.456 124.28 234.446 124.76 232.766 125.72C231.146 126.62 229.916 127.97 229.076 129.77C228.236 131.51 227.816 133.67 227.816 136.25C227.816 138.89 228.356 141.2 229.436 143.18C230.576 145.1 232.196 146.6 234.296 147.68C236.456 148.76 239.006 149.3 241.946 149.3C243.986 149.3 245.786 149 247.346 148.4C248.966 147.8 250.706 146.78 252.566 145.34L259.316 154.88C257.456 156.5 255.476 157.82 253.376 158.84C251.276 159.86 249.116 160.61 246.896 161.09C244.736 161.63 242.576 161.9 240.416 161.9ZM286.49 161.9C281.81 161.9 277.67 161.15 274.07 159.65C270.53 158.15 267.71 156.14 265.61 153.62L274.34 146.06C276.2 147.92 278.3 149.3 280.64 150.2C282.98 151.04 285.2 151.46 287.3 151.46C288.14 151.46 288.89 151.37 289.55 151.19C290.21 151.01 290.75 150.77 291.17 150.47C291.65 150.11 292.01 149.72 292.25 149.3C292.49 148.82 292.61 148.28 292.61 147.68C292.61 146.48 292.07 145.55 290.99 144.89C290.45 144.59 289.55 144.23 288.29 143.81C287.03 143.39 285.41 142.91 283.43 142.37C280.61 141.65 278.15 140.81 276.05 139.85C274.01 138.83 272.33 137.66 271.01 136.34C269.81 135.08 268.88 133.7 268.22 132.2C267.56 130.64 267.23 128.9 267.23 126.98C267.23 124.76 267.74 122.75 268.76 120.95C269.84 119.15 271.25 117.59 272.99 116.27C274.79 114.95 276.83 113.96 279.11 113.3C281.45 112.58 283.85 112.22 286.31 112.22C288.95 112.22 291.47 112.52 293.87 113.12C296.27 113.72 298.49 114.56 300.53 115.64C302.63 116.72 304.49 118.01 306.11 119.51L298.55 127.97C297.47 126.95 296.24 126.05 294.86 125.27C293.54 124.43 292.16 123.77 290.72 123.29C289.28 122.81 287.96 122.57 286.76 122.57C285.86 122.57 285.05 122.66 284.33 122.84C283.67 122.96 283.1 123.2 282.62 123.56C282.14 123.86 281.78 124.25 281.54 124.73C281.3 125.15 281.18 125.66 281.18 126.26C281.18 126.86 281.33 127.43 281.63 127.97C281.99 128.51 282.47 128.96 283.07 129.32C283.67 129.68 284.63 130.1 285.95 130.58C287.27 131 289.07 131.54 291.35 132.2C294.17 132.98 296.6 133.85 298.64 134.81C300.68 135.77 302.3 136.91 303.5 138.23C304.46 139.25 305.18 140.45 305.66 141.83C306.14 143.15 306.38 144.59 306.38 146.15C306.38 149.21 305.51 151.94 303.77 154.34C302.09 156.68 299.75 158.54 296.75 159.92C293.75 161.24 290.33 161.9 286.49 161.9ZM344.579 161V113.21H358.979V161H344.579ZM351.779 103.76C349.079 103.76 346.949 103.13 345.389 101.87C343.889 100.55 343.139 98.69 343.139 96.29C343.139 94.13 343.919 92.36 345.479 90.98C347.039 89.6 349.139 88.91 351.779 88.91C354.479 88.91 356.579 89.57 358.079 90.89C359.579 92.15 360.329 93.95 360.329 96.29C360.329 98.51 359.549 100.31 357.989 101.69C356.489 103.07 354.419 103.76 351.779 103.76ZM372.509 161V113.21H386.189L386.639 122.93L383.759 124.01C384.419 121.85 385.589 119.9 387.269 118.16C389.009 116.36 391.079 114.92 393.479 113.84C395.879 112.76 398.399 112.22 401.039 112.22C404.639 112.22 407.669 112.97 410.129 114.47C412.589 115.91 414.449 118.1 415.709 121.04C416.969 123.92 417.599 127.46 417.599 131.66V161H403.109V132.83C403.109 130.91 402.839 129.32 402.299 128.06C401.759 126.8 400.919 125.87 399.779 125.27C398.699 124.61 397.349 124.31 395.729 124.37C394.469 124.37 393.299 124.58 392.219 125C391.139 125.36 390.209 125.93 389.429 126.71C388.649 127.43 388.019 128.27 387.539 129.23C387.119 130.19 386.909 131.24 386.909 132.38V161H379.799C378.119 161 376.679 161 375.479 161C374.279 161 373.289 161 372.509 161ZM433.598 161V101.15H447.998V161H433.598ZM425.138 125.81V113.21H457.268V125.81H425.138ZM487.558 161.9C482.578 161.9 478.138 160.82 474.238 158.66C470.398 156.5 467.338 153.56 465.058 149.84C462.838 146.12 461.728 141.86 461.728 137.06C461.728 132.26 462.838 128 465.058 124.28C467.338 120.56 470.398 117.62 474.238 115.46C478.138 113.3 482.578 112.22 487.558 112.22C492.538 112.22 496.948 113.3 500.788 115.46C504.688 117.62 507.748 120.56 509.968 124.28C512.188 128 513.298 132.26 513.298 137.06C513.298 141.86 512.188 146.12 509.968 149.84C507.748 153.56 504.688 156.5 500.788 158.66C496.948 160.82 492.538 161.9 487.558 161.9ZM487.558 149.48C489.718 149.48 491.638 148.94 493.318 147.86C494.998 146.78 496.318 145.31 497.278 143.45C498.238 141.59 498.688 139.46 498.628 137.06C498.688 134.66 498.238 132.53 497.278 130.67C496.318 128.75 494.998 127.25 493.318 126.17C491.638 125.09 489.718 124.55 487.558 124.55C485.398 124.55 483.448 125.09 481.708 126.17C480.028 127.25 478.708 128.75 477.748 130.67C476.788 132.53 476.338 134.66 476.398 137.06C476.338 139.46 476.788 141.59 477.748 143.45C478.708 145.31 480.028 146.78 481.708 147.86C483.448 148.94 485.398 149.48 487.558 149.48ZM28.16 249.9C22.88 249.9 18.29 248.85 14.39 246.75C10.49 244.59 7.46 241.68 5.3 238.02C3.14 234.3 2.06 230.07 2.06 225.33C2.06 221.67 2.66 218.31 3.86 215.25C5.06 212.19 6.74 209.55 8.9 207.33C11.06 205.05 13.61 203.31 16.55 202.11C19.55 200.85 22.82 200.22 26.36 200.22C29.72 200.22 32.78 200.82 35.54 202.02C38.36 203.22 40.79 204.9 42.83 207.06C44.87 209.22 46.43 211.77 47.51 214.71C48.59 217.65 49.07 220.86 48.95 224.34L48.86 228.21H10.79L8.72 220.11H37.16L35.63 221.82V220.02C35.51 218.52 35.03 217.2 34.19 216.06C33.41 214.86 32.36 213.93 31.04 213.27C29.72 212.61 28.22 212.28 26.54 212.28C24.2 212.28 22.19 212.76 20.51 213.72C18.89 214.62 17.66 215.97 16.82 217.77C15.98 219.51 15.56 221.67 15.56 224.25C15.56 226.89 16.1 229.2 17.18 231.18C18.32 233.1 19.94 234.6 22.04 235.68C24.2 236.76 26.75 237.3 29.69 237.3C31.73 237.3 33.53 237 35.09 236.4C36.71 235.8 38.45 234.78 40.31 233.34L47.06 242.88C45.2 244.5 43.22 245.82 41.12 246.84C39.02 247.86 36.86 248.61 34.64 249.09C32.48 249.63 30.32 249.9 28.16 249.9ZM87.2907 249L77.1207 233.61L72.4407 227.04L53.5407 201.21H70.8207L80.6307 215.88L85.7607 222.9L104.391 249H87.2907ZM53.0907 249L72.3507 222.18L80.0907 231.45L70.1007 249H53.0907ZM84.6807 228.21L77.0307 219.03L86.4807 201.21H103.491L84.6807 228.21ZM112.441 268.8V201.21H126.121L126.661 211.92L123.961 211.11C124.381 209.13 125.401 207.33 127.021 205.71C128.641 204.09 130.681 202.8 133.141 201.84C135.661 200.82 138.301 200.31 141.061 200.31C145.141 200.31 148.771 201.39 151.951 203.55C155.131 205.65 157.621 208.56 159.421 212.28C161.281 215.94 162.211 220.2 162.211 225.06C162.211 229.86 161.281 234.12 159.421 237.84C157.621 241.56 155.101 244.5 151.861 246.66C148.681 248.76 145.021 249.81 140.881 249.81C138.181 249.81 135.601 249.3 133.141 248.28C130.681 247.26 128.611 245.88 126.931 244.14C125.251 242.4 124.141 240.51 123.601 238.47L126.931 237.21V268.8H112.441ZM137.371 237.66C139.531 237.66 141.421 237.15 143.041 236.13C144.661 235.05 145.921 233.58 146.821 231.72C147.721 229.86 148.171 227.64 148.171 225.06C148.171 222.54 147.721 220.35 146.821 218.49C145.921 216.57 144.661 215.1 143.041 214.08C141.481 213 139.591 212.46 137.371 212.46C135.151 212.46 133.231 212.97 131.611 213.99C129.991 215.01 128.731 216.48 127.831 218.4C126.931 220.32 126.481 222.54 126.481 225.06C126.481 227.64 126.931 229.86 127.831 231.72C128.731 233.58 129.991 235.05 131.611 236.13C133.231 237.15 135.151 237.66 137.371 237.66ZM194.537 249.9C189.257 249.9 184.667 248.85 180.767 246.75C176.867 244.59 173.837 241.68 171.677 238.02C169.517 234.3 168.437 230.07 168.437 225.33C168.437 221.67 169.037 218.31 170.237 215.25C171.437 212.19 173.117 209.55 175.277 207.33C177.437 205.05 179.987 203.31 182.927 202.11C185.927 200.85 189.197 200.22 192.737 200.22C196.097 200.22 199.157 200.82 201.917 202.02C204.737 203.22 207.167 204.9 209.207 207.06C211.247 209.22 212.807 211.77 213.887 214.71C214.967 217.65 215.447 220.86 215.327 224.34L215.237 228.21H177.167L175.097 220.11H203.537L202.007 221.82V220.02C201.887 218.52 201.407 217.2 200.567 216.06C199.787 214.86 198.737 213.93 197.417 213.27C196.097 212.61 194.597 212.28 192.917 212.28C190.577 212.28 188.567 212.76 186.887 213.72C185.267 214.62 184.037 215.97 183.197 217.77C182.357 219.51 181.937 221.67 181.937 224.25C181.937 226.89 182.477 229.2 183.557 231.18C184.697 233.1 186.317 234.6 188.417 235.68C190.577 236.76 193.127 237.3 196.067 237.3C198.107 237.3 199.907 237 201.467 236.4C203.087 235.8 204.827 234.78 206.687 233.34L213.437 242.88C211.577 244.5 209.597 245.82 207.497 246.84C205.397 247.86 203.237 248.61 201.017 249.09C198.857 249.63 196.697 249.9 194.537 249.9ZM224.501 249V201.21H238.181L238.811 216.78L236.111 213.81C236.831 211.23 238.001 208.92 239.621 206.88C241.301 204.84 243.251 203.22 245.471 202.02C247.691 200.82 250.061 200.22 252.581 200.22C253.661 200.22 254.651 200.31 255.551 200.49C256.511 200.67 257.381 200.88 258.161 201.12L254.201 217.05C253.541 216.63 252.641 216.3 251.501 216.06C250.421 215.76 249.281 215.61 248.081 215.61C246.761 215.61 245.531 215.85 244.391 216.33C243.251 216.75 242.291 217.38 241.511 218.22C240.731 219.06 240.101 220.05 239.621 221.19C239.201 222.33 238.991 223.62 238.991 225.06V249H224.501ZM266.268 249V201.21H280.668V249H266.268ZM273.468 191.76C270.768 191.76 268.638 191.13 267.078 189.87C265.578 188.55 264.828 186.69 264.828 184.29C264.828 182.13 265.608 180.36 267.168 178.98C268.728 177.6 270.828 176.91 273.468 176.91C276.168 176.91 278.268 177.57 279.768 178.89C281.268 180.15 282.018 181.95 282.018 184.29C282.018 186.51 281.238 188.31 279.678 189.69C278.178 191.07 276.108 191.76 273.468 191.76ZM316.969 249.9C311.689 249.9 307.099 248.85 303.199 246.75C299.299 244.59 296.269 241.68 294.109 238.02C291.949 234.3 290.869 230.07 290.869 225.33C290.869 221.67 291.469 218.31 292.669 215.25C293.869 212.19 295.549 209.55 297.709 207.33C299.869 205.05 302.419 203.31 305.359 202.11C308.359 200.85 311.629 200.22 315.169 200.22C318.529 200.22 321.589 200.82 324.349 202.02C327.169 203.22 329.599 204.9 331.639 207.06C333.679 209.22 335.239 211.77 336.319 214.71C337.399 217.65 337.879 220.86 337.759 224.34L337.669 228.21H299.599L297.529 220.11H325.969L324.439 221.82V220.02C324.319 218.52 323.839 217.2 322.999 216.06C322.219 214.86 321.169 213.93 319.849 213.27C318.529 212.61 317.029 212.28 315.349 212.28C313.009 212.28 310.999 212.76 309.319 213.72C307.699 214.62 306.469 215.97 305.629 217.77C304.789 219.51 304.369 221.67 304.369 224.25C304.369 226.89 304.909 229.2 305.989 231.18C307.129 233.1 308.749 234.6 310.849 235.68C313.009 236.76 315.559 237.3 318.499 237.3C320.539 237.3 322.339 237 323.899 236.4C325.519 235.8 327.259 234.78 329.119 233.34L335.869 242.88C334.009 244.5 332.029 245.82 329.929 246.84C327.829 247.86 325.669 248.61 323.449 249.09C321.289 249.63 319.129 249.9 316.969 249.9ZM346.933 249V201.21H360.613L361.063 210.93L358.183 212.01C358.843 209.85 360.013 207.9 361.693 206.16C363.433 204.36 365.503 202.92 367.903 201.84C370.303 200.76 372.823 200.22 375.463 200.22C379.063 200.22 382.093 200.97 384.553 202.47C387.013 203.91 388.873 206.1 390.133 209.04C391.393 211.92 392.023 215.46 392.023 219.66V249H377.533V220.83C377.533 218.91 377.263 217.32 376.723 216.06C376.183 214.8 375.343 213.87 374.203 213.27C373.123 212.61 371.773 212.31 370.153 212.37C368.893 212.37 367.723 212.58 366.643 213C365.563 213.36 364.633 213.93 363.853 214.71C363.073 215.43 362.443 216.27 361.963 217.23C361.543 218.19 361.333 219.24 361.333 220.38V249H354.223C352.543 249 351.103 249 349.903 249C348.703 249 347.713 249 346.933 249ZM425.032 249.9C420.412 249.9 416.272 248.82 412.612 246.66C408.952 244.5 406.042 241.56 403.882 237.84C401.782 234.06 400.732 229.8 400.732 225.06C400.732 220.32 401.782 216.09 403.882 212.37C406.042 208.59 408.952 205.62 412.612 203.46C416.272 201.3 420.412 200.22 425.032 200.22C429.292 200.22 433.192 200.97 436.732 202.47C440.332 203.97 443.182 206.07 445.282 208.77L437.452 218.13C436.612 217.17 435.622 216.27 434.482 215.43C433.342 214.59 432.082 213.93 430.702 213.45C429.322 212.97 427.882 212.73 426.382 212.73C424.102 212.73 422.092 213.27 420.352 214.35C418.612 215.37 417.262 216.81 416.302 218.67C415.342 220.53 414.862 222.66 414.862 225.06C414.862 227.34 415.342 229.41 416.302 231.27C417.322 233.13 418.702 234.6 420.442 235.68C422.182 236.76 424.162 237.3 426.382 237.3C427.942 237.3 429.382 237.12 430.702 236.76C432.022 236.34 433.222 235.74 434.302 234.96C435.442 234.18 436.492 233.22 437.452 232.08L445.192 241.53C443.152 244.11 440.302 246.15 436.642 247.65C433.042 249.15 429.172 249.9 425.032 249.9ZM475.875 249.9C470.595 249.9 466.005 248.85 462.105 246.75C458.205 244.59 455.175 241.68 453.015 238.02C450.855 234.3 449.775 230.07 449.775 225.33C449.775 221.67 450.375 218.31 451.575 215.25C452.775 212.19 454.455 209.55 456.615 207.33C458.775 205.05 461.325 203.31 464.265 202.11C467.265 200.85 470.535 200.22 474.075 200.22C477.435 200.22 480.495 200.82 483.255 202.02C486.075 203.22 488.505 204.9 490.545 207.06C492.585 209.22 494.145 211.77 495.225 214.71C496.305 217.65 496.785 220.86 496.665 224.34L496.575 228.21H458.505L456.435 220.11H484.875L483.345 221.82V220.02C483.225 218.52 482.745 217.2 481.905 216.06C481.125 214.86 480.075 213.93 478.755 213.27C477.435 212.61 475.935 212.28 474.255 212.28C471.915 212.28 469.905 212.76 468.225 213.72C466.605 214.62 465.375 215.97 464.535 217.77C463.695 219.51 463.275 221.67 463.275 224.25C463.275 226.89 463.815 229.2 464.895 231.18C466.035 233.1 467.655 234.6 469.755 235.68C471.915 236.76 474.465 237.3 477.405 237.3C479.445 237.3 481.245 237 482.805 236.4C484.425 235.8 486.165 234.78 488.025 233.34L494.775 242.88C492.915 244.5 490.935 245.82 488.835 246.84C486.735 247.86 484.575 248.61 482.355 249.09C480.195 249.63 478.035 249.9 475.875 249.9ZM521.949 249.9C517.269 249.9 513.129 249.15 509.529 247.65C505.989 246.15 503.169 244.14 501.069 241.62L509.799 234.06C511.659 235.92 513.759 237.3 516.099 238.2C518.439 239.04 520.659 239.46 522.759 239.46C523.599 239.46 524.349 239.37 525.009 239.19C525.669 239.01 526.209 238.77 526.629 238.47C527.109 238.11 527.469 237.72 527.709 237.3C527.949 236.82 528.069 236.28 528.069 235.68C528.069 234.48 527.529 233.55 526.449 232.89C525.909 232.59 525.009 232.23 523.749 231.81C522.489 231.39 520.869 230.91 518.889 230.37C516.069 229.65 513.609 228.81 511.509 227.85C509.469 226.83 507.789 225.66 506.469 224.34C505.269 223.08 504.339 221.7 503.679 220.2C503.019 218.64 502.689 216.9 502.689 214.98C502.689 212.76 503.199 210.75 504.219 208.95C505.299 207.15 506.709 205.59 508.449 204.27C510.249 202.95 512.289 201.96 514.569 201.3C516.909 200.58 519.309 200.22 521.769 200.22C524.409 200.22 526.929 200.52 529.329 201.12C531.729 201.72 533.949 202.56 535.989 203.64C538.089 204.72 539.949 206.01 541.569 207.51L534.009 215.97C532.929 214.95 531.699 214.05 530.319 213.27C528.999 212.43 527.619 211.77 526.179 211.29C524.739 210.81 523.419 210.57 522.219 210.57C521.319 210.57 520.509 210.66 519.789 210.84C519.129 210.96 518.559 211.2 518.079 211.56C517.599 211.86 517.239 212.25 516.999 212.73C516.759 213.15 516.639 213.66 516.639 214.26C516.639 214.86 516.789 215.43 517.089 215.97C517.449 216.51 517.929 216.96 518.529 217.32C519.129 217.68 520.089 218.1 521.409 218.58C522.729 219 524.529 219.54 526.809 220.2C529.629 220.98 532.059 221.85 534.099 222.81C536.139 223.77 537.759 224.91 538.959 226.23C539.919 227.25 540.639 228.45 541.119 229.83C541.599 231.15 541.839 232.59 541.839 234.15C541.839 237.21 540.969 239.94 539.229 242.34C537.549 244.68 535.209 246.54 532.209 247.92C529.209 249.24 525.789 249.9 521.949 249.9Z" fill="white"/>
</svg>
